<?xml version="1.0" encoding="UTF-8"?><svg id="Swatch_Info_Layer" xmlns="http://www.w3.org/2000/svg" viewBox="0 0 908.87164 412.20338"><defs><style>.cls-1,.cls-2{fill:#4f1e27;}.cls-2{stroke:#4f1e27;stroke-miterlimit:10;}</style></defs><path class="cls-2" d="M73.81468,365.77421h-6.21575v.63636c0,3.49109-.92996,6.28096-2.78953,8.36892-1.85991,2.08796-4.53575,3.13263-8.0265,3.13263h-12.8719c-2.38224,0-4.55146-.4404-6.50935-1.32119-1.95755-.88148-3.50782-2.11323-4.64944-3.69524-1.14264-1.58338-1.71311-3.38594-1.71311-5.40836,0-1.98964.42367-5.59544,1.27272-10.81603l3.57268.5872c-.71795,4.79658-1.07676,7.92852-1.07676,9.39652,0,1.53354.39909,2.90389,1.19897,4.11174.7992,1.20648,1.87596,2.13644,3.23027,2.78919,1.35363.65274,2.83015.97912,4.42924.97912l12.92072.04916c2.31636,0,4.10287-.74287,5.3592-2.22725,1.25565-1.48506,1.88449-3.36955,1.88449-5.65279,0-.42401-.01707-.734-.04916-.92996h-1.17439c-2.54509,0-4.5518-.47249-6.02013-1.41883l1.56631-2.78987c.5872.39124,1.21502.62816,1.88415.70942.66845.08193,1.63971.12222,2.91209.12222h10.86519v3.37706Z"/><path class="cls-2" d="M73.81468,362.39715h12.23554v3.37706h-12.23554v-3.37706Z"/><path class="cls-2" d="M104.40354,362.39715v3.37706h-18.35332v-3.37706h7.29251v-21.09402h3.7683v21.09402h7.29251ZM90.25926,369.69h3.71948v4.11106h-3.71948v-4.11106ZM96.37703,369.69h3.71948v4.11106h-3.71948v-4.11106Z"/><path class="cls-2" d="M104.40354,362.39715h12.23554v3.37706h-12.23554v-3.37706Z"/><path class="cls-2" d="M145.61281,362.39715v3.37706h-28.97373v-3.37706h19.62569v-13.26314c0-1.63118-.42435-2.86293-1.27237-3.69524-.8487-.83163-2.12142-1.24813-3.81746-1.24813-1.46833,0-4.37257.26151-8.71168.78316l-1.37035.1468-.1468-2.78919c4.92631-1.01121,8.6137-1.51784,11.06081-1.51784,5.35066,0,8.0265,2.78987,8.0265,8.3696v13.21398h5.57939Z"/><path class="cls-2" d="M145.61281,362.39715h12.23554v3.37706h-12.23554v-3.37706Z"/><path class="cls-2" d="M176.20167,362.39715v3.37706h-18.35332v-3.37706h7.29217v-21.09402h3.76898v21.09402h7.29217ZM158.41232,369.69h6.14965v4.11106h-6.14965v-4.11106ZM168.17482,369.69h3.71982v4.11106h-3.71982v-4.11106Z"/><path class="cls-2" d="M176.20167,362.39715h12.23554v3.37706h-12.23554v-3.37706Z"/><path class="cls-2" d="M198.22565,330.63389v35.14032h-9.78844v-3.37706h6.02013v-31.76325h3.7683Z"/><path class="cls-2" d="M207.03497,330.63389h3.76898v35.14032h-3.76898v-35.14032Z"/><path class="cls-2" d="M255.78187,362.39715v3.37706h-16.29744c-2.90458,0-5.18782-.40762-6.85245-1.22355-1.66395-.81525-2.86293-2.11186-3.59692-3.89052-.734-1.77798-1.10134-4.20051-1.10134-7.26827,0-3.03431.35027-5.46434,1.05217-7.29217.70122-1.82714,1.85991-3.16472,3.47539-4.01342,1.61479-.84802,3.79288-1.27272,6.53359-1.27272,1.20648,0,3.05889.05735,5.55516.17138,2.49559.11471,4.38008.23761,5.65279.36734v21.04486h5.57905ZM232.50975,358.62884c.53872,1.30549,1.41132,2.26003,2.61849,2.86293,1.20717.60427,2.87112.90538,4.99254.90538h6.31305v-17.86376c-2.87112-.19596-5.08949-.2936-6.65581-.2936-2.96944,0-5.05809.70191-6.26457,2.10435-1.20785,1.40313-1.81075,3.71982-1.81075,6.95009,0,2.25115.26902,4.02981.80705,5.33462ZM235.52016,332.6406h3.71914v4.11106h-3.71914v-4.11106ZM241.63793,332.6406h3.71914v4.11106h-3.71914v-4.11106Z"/><path class="cls-2" d="M255.78187,362.39715h12.23554v3.37706h-12.23554v-3.37706Z"/><path class="cls-2" d="M286.37073,362.39715v3.37706h-18.35332v-3.37706h7.29217v-21.09402h3.76898v21.09402h7.29217ZM275.30958,369.69h3.71982v4.11106h-3.71982v-4.11106Z"/><path class="cls-2" d="M286.37073,362.39715h12.23554v3.37706h-12.23554v-3.37706Z"/><path class="cls-2" d="M328.33892,343.01624c3.01724,2.54475,4.52688,6.72204,4.52688,12.52914v10.22883h-34.25952v-3.37706h5.62821v-3.9151c0-1.5984.39943-3.07527,1.19897-4.42924s1.8763-2.43004,3.23027-3.23027c1.35397-.79886,2.83015-1.19897,4.42924-1.19897,1.56631,0,3.02611.38373,4.38076,1.14981,1.35328.76745,2.43004,1.82782,3.23027,3.18179.79886,1.35397,1.19897,2.86293,1.19897,4.52688v3.9151h7.19453v-6.75413c0-4.82799-1.21604-8.21325-3.64677-10.15509-2.43072-1.94116-5.50599-2.91209-9.22514-2.91209-1.43658,0-2.96125.10651-4.57604.31818-1.61547.21235-3.54844.51346-5.79959.90538l-.24512-2.88751c4.24147-1.14162,8.00978-1.71311,11.30559-1.71311,4.60062,0,8.40989,1.27272,11.42849,3.81746ZM309.47146,354.46862c-.97912.97912-1.46799,2.17058-1.46799,3.57302v4.3555h10.13051v-4.3555c0-1.40244-.48136-2.59391-1.44341-3.57302-.96273-.97843-2.1617-1.46799-3.59761-1.46799s-2.64239.48956-3.6215,1.46799Z"/><path class="cls-1" d="M481.1348,118.98334v178.48894h-18.34129V62.23225h18.34129v49.67776h54.77714v-49.67776h18.34129v235.24003h-18.34129V118.98334h-54.77714Z"/><path class="cls-1" d="M659.77736,62.23225v7.07332h-57.49132v38.98553h38.49204v7.07332h-38.49204v48.85529h57.49132v7.07332h-75.83261V62.23225h75.83261Z"/><path class="cls-1" d="M681.32632,62.23225h43.92041c5.81219,0,11.1446.64702,15.99723,1.93009,4.85263,1.29403,9.01986,3.11446,12.50169,5.47223,3.48183,2.35777,6.1823,5.18162,8.10142,8.47154,1.91912,3.28992,2.87868,6.90883,2.87868,10.85673,0,3.01576-.30158,5.70252-.90473,8.0603-.60315,2.35777-1.67238,4.54009-3.20767,6.54145-1.5353,2.00137-3.57779,3.89307-6.12747,5.66963-2.54969,1.78752-5.77106,3.60794-9.66413,5.47223v.32899c3.89307.60315,7.40232,1.64496,10.52774,3.12542s5.79848,3.3612,8.01918,5.63673c2.22069,2.27553,3.93419,4.93488,5.1405,7.97257,1.2063,3.04866,1.80946,6.37696,1.80946,9.99587,0,4.1124-.89102,7.96709-2.67306,11.5531-1.78204,3.59698-4.33173,6.7224-7.64906,9.37627-3.31733,2.66483-7.32007,4.75942-12.0082,6.29471-4.68813,1.5353-9.93829,2.30294-15.75048,2.30294h-50.91148V62.23225ZM699.66762,111.33428h23.35842c3.67374,0,6.93624-.5209,9.78751-1.56271,2.85126-1.04181,5.26387-2.47841,7.23782-4.32076,1.97395-1.83139,3.46812-4.02467,4.48251-6.57984,1.01439-2.5442,1.52159-5.30225,1.52159-8.26318,0-3.18025-.60315-6.0699-1.80946-8.6799-1.2063-2.59904-3.0843-4.83618-5.63398-6.70047-2.54969-1.86429-5.78477-3.28992-9.70526-4.27689s-8.62233-1.48046-14.10552-1.48046h-15.13362v41.86421ZM699.66762,163.31499h19.82176c5.3187,0,9.93829-.50445,13.85878-1.51885,3.92049-1.01439,7.15557-2.44002,9.70526-4.27689,2.54969-1.83687,4.44139-4.0466,5.67511-6.6237,1.23372-2.5771,1.85058-5.40095,1.85058-8.47154,0-3.45441-.54832-6.66208-1.64496-9.62301-1.09664-2.96093-2.89239-5.52158-5.38724-7.68744-2.49485-2.16586-5.75736-3.8821-9.78751-5.14324-4.03015-1.26114-8.97874-1.8917-14.84576-1.8917h-19.24602v45.23638Z"/><path class="cls-1" d="M835.37674,59.76481l51.32272,111.52823h-18.67029l-16.61409-36.3536h-46.79909l-17.18982,36.3536h-9.21177l52.55644-111.52823h4.60589ZM807.82368,127.86612h40.21925l-19.82176-43.18018-20.39749,43.18018Z"/><path class="cls-1" d="M92.91806,185.94405l51.32272,111.52823h-18.67029l-16.61409-36.3536h-46.79909l-17.18982,36.3536h-9.21177l52.55644-111.52823h4.60589ZM65.365,254.04535h40.21925l-19.82176-43.18018-20.39749,43.18018Z"/><path class="cls-1" d="M159.37441,188.41149h18.34129v101.98746h54.94163v7.07332h-73.28293v-109.06079Z"/><path class="cls-1" d="M253.13708,188.41149l37.83406,55.27063,37.66956-55.27063h9.952l-42.27545,61.93271v47.12808h-18.34129v-45.40087l-43.59142-63.65992h18.75253Z"/><path class="cls-1" d="M396.49526,185.94405l51.32272,111.52823h-18.67029l-16.61409-36.3536h-46.79909l-17.18982,36.3536h-9.21177l52.55644-111.52823h4.60589ZM368.9422,254.04535h40.21925l-19.82176-43.18018-20.39749,43.18018Z"/><path class="cls-1" d="M584.10285,188.41149h18.34129v109.06079h-18.34129v-109.06079Z"/><path class="cls-1" d="M674.82234,185.94405l51.32272,111.52823h-18.67029l-16.61409-36.3536h-46.79909l-17.18982,36.3536h-9.21177l52.55644-111.52823h4.60589ZM647.26928,254.04535h40.21925l-19.82176-43.18018-20.39749,43.18018Z"/></svg>