<?xml version="1.0" encoding="UTF-8"?><svg id="Layer_1" xmlns="http://www.w3.org/2000/svg" viewBox="0 0 92.92207 48.28543"><defs><style>.cls-1{fill:#a29f81;}</style></defs><path class="cls-1" d="M55.23942,21.32875c.86478.00726,1.4588-.57982,2.34063-.5101,1.31758.10417,2.28809,1.45329,1.28004,2.55524-.66565.72766-1.76148.86135-2.59783,1.23392-1.34186.59775-.75973,1.3984-.18599,2.39771.78312,1.364,2.21903,2.90365,3.64382,3.59393.75418.36538,1.58463.49256,2.36083.78972,1.22424,1.47619-.79746,2.3231-1.98819,2.66902-.32904.09559-1.75819.34437-1.87214.42691-.22858.16559-.23375,1.36565-.63789,1.74631-.60784.57253-2.10987.02394-2.8929-.00493-3.31571-.12224-4.82628,3.26176-8.67827,2.97261-2.48685-.18668-3.45296-1.57326-5.39023-2.52881-1.81565-.89556-2.78727-.11991-4.42252-.1093-1.25575.00815-1.10934-1.23887-1.48154-2.0759-1.1481-.24062-4.36592-.75257-4.25334-2.375.06766-.97512,1.04175-.87165,1.71844-1.09848,2.02048-.67726,3.66811-2.21937,4.70879-4.06166.26504-.46919.82758-1.3762.50421-1.87039-.36728-.5613-2.42806-.88333-3.18985-1.57797-1.20288-1.09685-.26006-2.56253,1.16228-2.6769.77543-.06235,1.5129.63332,2.33107.50417.00887-2.24381-.44783-4.84221.38432-6.98117,2.73679-7.03464,13.98646-7.04233,16.77155-.00009.86546,2.18835.41282,4.69251.38468,6.98116Z"/></svg>