<?xml version="1.0" encoding="UTF-8"?><svg id="Layer_1" xmlns="http://www.w3.org/2000/svg" viewBox="0 0 92.92207 48.28543"><defs><style>.cls-1{fill:#a29f81;}</style></defs><path class="cls-1" d="M54.45822,9.29019l1.4733.29447c3.01504.85944,5.18397,3.61214,5.36835,6.74518l-.00303,15.65088c-.25381,3.73461-3.24167,6.7412-6.98411,6.98411l-15.65088.00303c-3.13175-.18801-5.88616-2.35241-6.74518-5.36835l-.29447-1.4733v-15.99681c.30134-3.56608,3.25399-6.56104,6.83921-6.83921h15.99681ZM54.44514,14.23244c-2.49917.07971-2.32459,3.98545.33223,3.69405,2.18979-.24017,2.01387-3.76888-.33223-3.69405ZM46.33329,17.94149c-4.36626.08819-7.24241,4.57643-5.564,8.60215,1.75198,4.20217,7.41746,5.0629,10.38675,1.61385,3.465-4.02485.48398-10.32318-4.82274-10.21599Z"/></svg>