<?xml version="1.0" encoding="UTF-8"?><svg xmlns="http://www.w3.org/2000/svg" xmlns:xlink="http://www.w3.org/1999/xlink" viewBox="0 0 92.92207 48.28543"><defs><style>.cls-1{fill:none;}.cls-2{mix-blend-mode:hard-light;opacity:.4;}.cls-3{fill:url(#radial-gradient);}.cls-4{isolation:isolate;}.cls-5{fill:#a29f81;}.cls-6{fill:url(#linear-gradient);mix-blend-mode:multiply;}.cls-7{opacity:.68;}.cls-8{clip-path:url(#clippath);}</style><clipPath id="clippath"><rect class="cls-1" x="-1604.11862" y="-207.26194" width="1092.69699" height="717.58788"/></clipPath><radialGradient id="radial-gradient" cx="-6600.93324" cy="-103.4172" fx="-6600.93324" fy="-103.4172" r="120.28484" gradientTransform="translate(128937.94401 1586.53666) scale(20 15.638)" gradientUnits="userSpaceOnUse"><stop offset=".00926" stop-color="#bfbfbf" stop-opacity="0"/><stop offset=".99486" stop-color="#000" stop-opacity=".6"/></radialGradient><linearGradient id="linear-gradient" x1="-1840.88037" y1="-195.51541" x2="267.13844" y2="2517.86004" gradientUnits="userSpaceOnUse"><stop offset="0" stop-color="#fff"/><stop offset=".09667" stop-color="#f9f9f9"/><stop offset=".2208" stop-color="#e9e9e9"/><stop offset=".35998" stop-color="#cfcfcf"/><stop offset=".51011" stop-color="#aaa"/><stop offset=".66905" stop-color="#7a7a7a"/><stop offset=".8345" stop-color="#414141"/><stop offset="1" stop-color="#000"/></linearGradient></defs><g class="cls-4"><g id="Layer_1"><path class="cls-5" d="M70.65706,27.55067v2.03247l-14.58124-.00045c-.0694,2.89576,1.4859,4.95498,4.45888,5.13003,1.86114.10958,4.18504-.65151,4.82025-2.56689h4.86026c-1.47284,5.59475-6.84927,7.6107-12.19575,6.40762-10.25811-2.30832-9.86619-18.38683.26516-20.5916,6.68651-1.45511,11.9064,2.7431,12.29057,9.44849l.08186.14033ZM65.08985,26.13677c-.15001-1.80273-.98662-3.57404-2.84529-4.09163-3.0185-.84057-6.02979.82724-6.16829,4.09163h9.01358Z"/><path class="cls-5" d="M25.41243,10.58393l14.27061.00089c3.02335.19319,6.35013,1.08147,7.38262,4.28201.79885,2.47627.44728,5.41309-1.55178,7.20264-.55502.49685-1.22844.78791-1.8091,1.23857,4.27528.99615,5.86143,5.61857,4.64023,9.54572-1.14205,3.67261-5.00482,5.25715-8.56906,5.48152l-14.36353-.00366V10.58393ZM31.50985,21.80672h6.84855c3.3553,0,4.33421-4.81617,1.4011-6.08463-.26621-.11513-1.06202-.36627-1.31273-.36627h-6.93692v6.45089ZM31.50985,33.64809c2.24866-.10324,4.61697.13685,6.85224.00369,2.9442-.1754,4.50689-1.43976,4.18294-4.54379-.19743-1.8917-1.88459-3.14795-3.74478-3.14795h-7.29039v7.68805Z"/><path class="cls-5" d="M66.23864,11.99782v2.73942h-11.31116v-2.60687c0-.00937.12318-.13255.13255-.13255h11.1786Z"/></g><g id="Swatch_Info_Layer"><g class="cls-7"><g class="cls-8"><g class="cls-2"><rect class="cls-3" x="-2483.3163" y="-231.68884" width="2724.83896" height="1509.17226"/><rect class="cls-6" x="-2480.00119" y="-231.68884" width="2721.52385" height="1930.09426"/></g></g></g></g></g></svg>