<?xml version="1.0" encoding="UTF-8"?><svg id="Layer_1" xmlns="http://www.w3.org/2000/svg" viewBox="0 0 92.92207 48.28543"><defs><style>.cls-1{fill:#403f3f;}</style></defs><path class="cls-1" d="M29.83237,22.98971c-.63488.20314-.96667.16595-.99214-.11511,0-.07448.03902-.17605.11521-.30471.0762-.12875.78213-.66712,2.11628-1.62197,1.33586-.95151,2.21956-1.54405,2.65131-1.77094.20324-.10157.33017-.18626.38263-.25064.04911-.06094.08802-.20991.11349-.4368.0762-.50784-.12704-.96839-.60952-1.37477-.45883-.37919-1.51363-.81266-3.16602-1.29685-1.50171-.45711-2.5176-.89057-3.05253-1.29685-.53342-.37929-.81437-.87704-.83812-1.48655-.02709-.60952.18959-1.24612.64842-1.90637.48258-.68744,1.36629-1.49665,2.64969-2.42442,1.28503-.92786,2.69022-1.76083,4.21567-2.499,1.881-.91422,3.07628-1.26976,3.58594-1.06663.33007.1524.55868.40638.68562.76192.12704.35888.12704.76526,0,1.22237-.33007.99214-1.11908,2.1095-2.3652,3.35562-.93959.91422-1.6152,1.28331-2.02147,1.10725-.22861-.12866-.342-.26751-.342-.41992,0-.1523.08803-.26741.2658-.34533.53503-.32846,1.28503-1.05986,2.2518-2.19086.96506-1.1309,1.35951-1.92668,1.18174-2.38379-.02536-.07793-.20314-.06438-.53331.03729-.96678.28096-2.23826.85328-3.81445,1.71677-1.57791.86339-2.79865,1.66594-3.66214,2.40411-1.19528,1.01579-1.79287,1.85563-1.79287,2.51588,0,.38263.17777.70088.53331.95485.43174.32846,1.39842.73817,2.90012,1.21903,1.75406.55868,2.88497,1.1208,3.39463,1.67948.88886.91432.87704,1.97074-.0389,3.16603-.43175.58587-1.08017,1.1682-1.94538,1.75406-.86511.58576-1.70323,1.01579-2.5176,1.29685M30.44361,22.14996c1.47462-.73817,2.55479-1.57791,3.24223-2.51588.20313-.25397.27934-.38263.2285-.38263-.05074,0-.62306.43346-1.71677,1.29685-1.52536,1.19528-2.30254,1.80479-2.32619,1.83188l.57223-.23022Z"/><path class="cls-1" d="M40.01616,18.79432c-.12694-.1524-.15241-.43346-.0762-.83973.0762-.40638.16594-.73817.26751-.99214s.10157-.41992,0-.4944c-.12865,0-.5604.12532-1.29685.37929-.02547.02709-.08974.05073-.19131.07781-.30481.10157-.54686.17949-.72463.22689-.17777.05417-.40638.11512-.68744.19304-.27934.07448-.50107.11511-.66702.11511s-.33694-.02031-.51471-.05761c-.17777-.04063-.30471-.13542-.38091-.28773-.0762-.1524-.11511-.342-.11511-.57232,0-.25397.10157-.50785.30471-.76182.33017-.45711.99214-.94818,1.98428-1.46957.99214-.52149,1.81834-.83307,2.47859-.93464.61123-.07448.9024.10157.87875.53503-.02709.20314-.12188.34877-.28611.4368-.16595.09146-.29976.0474-.40132-.13199-.02537-.07458-.0762-.10167-.1523-.07458-.50966.07458-1.16991.31835-1.98428.72463-.81438.40638-1.41035.77546-1.79297,1.10392-.22861.23022-.342.41992-.342.57223,0,.30481.48258.31835,1.44925.04063,1.34769-.40971,2.12992-.61629,2.34488-.62983.21668-.01355.37586.00677.47743.05761.1524.12532.23538.28439.2472.47409.01354.19304-.06943.52816-.2472,1.01246-.1523.4842-.22851.76182-.22851.83974,0,.07448.0372.11177.11339.11177.10157-.02375.54008-.23365,1.31726-.62649.77536-.39617,1.52536-.76859,2.24998-1.12757.72463-.35554,1.10049-.52149,1.12596-.49441,0,.02375-.21678.17272-.64843.4368-.43346.26751-.98709.59941-1.65927.99214-.67551.39617-1.25288.72129-1.73708.97526-.38091.17605-.62811.27762-.74322.30471-.11339.02375-.23538-.01355-.36231-.11512"/><path class="cls-1" d="M41.58054,30.23601c-.27934.28106-.59769.47066-.95486.57222-.35554.10157-.57232-.03719-.64853-.41982,0-.37929.31835-1.56103.95495-3.54532.63488-2.01137,1.76073-5.1875,3.37593-9.53526,1.61348-4.3512,3.08305-8.15039,4.40537-11.40787.40627-.99214.67379-1.58811.80082-1.79125.17767-.33179.34362-.49774.49602-.49774.30471,0,.24043.54857-.19131,1.64229-.05083.07448-.11339.20314-.18959.37919-.10329.28106-.19131.49774-.26752.65014-1.19528,2.92559-3.10336,7.83214-5.72253,14.72287-.81266,2.08585-1.55083,4.13441-2.21118,6.14245-.66197,2.00794-.95485,3.05081-.87865,3.12873.0762.05084.28106-.07792.61113-.38263.33018-.30471.60952-.60952.83984-.91422.68562-.99214,1.40519-2.36691,2.15357-4.12098.75171-1.75396,1.31716-3.35562,1.69807-4.80487.33017-1.24611.48258-2.2518.45711-3.01362-.02537-.50795-.17777-.83974-.45711-.99214-.20314-.10157-.22851-.16594-.0762-.19303.10157-.02365.22861-.01011.38101.04063.10157.02375.40627.05761.91594.0948.50785.03729.9972.06438,1.46785.07448.47066.01364.69411.02042.66874.02042-.02536.02709-.70088.03719-2.02148.03719h-.91594c.27934.46055.36737,1.10725.26752,1.94699-.20486,1.75406-.82792,3.9719-1.86917,6.65717-1.04288,2.68173-2.07231,4.52048-3.08982,5.50919"/><path class="cls-1" d="M44.36562,30.69653c-.10157-.07792-.12694-.1998-.0762-.36231.05083-.16595.22861-.55534.53331-1.16486,1.19528-2.36348,2.59381-4.50007,4.19546-6.40987.17767-.20313.49602-.68399.95485-1.44925,1.6524-2.82069,2.68182-4.53746,3.08982-5.14687.0762-.10167.16423-.21678.2658-.34544.15241-.20313.21669-.3047.19132-.3047s-.20314.12865-.53331.38262c-.20485.1523-.38263.27762-.53503.37919-1.27148.94131-2.21279,1.54072-2.82231,1.79469-.43346.17605-.77536.2844-1.02933.32502-.25397.03729-.44529.00677-.57232-.09823-.23022-.22679-.23022-.59587,0-1.10382.2286-.45711.67389-1.05652,1.33414-1.79469.73817-.83974,1.23429-1.33414,1.48816-1.48645.20324-.12866.36747-.11511.49612.03719.10157.12876.12017.24387.05761.34544-.06437.10157-.27429.342-.62983.72463-.7128.684-1.24612,1.28331-1.60165,1.79125-.35726.45711-.53503.72463-.53503.80255,0,.02365.02536.03042.0762.01688.05083-.01011.12866-.03729.22861-.07448.10328-.04063.20314-.08469.30642-.13543.60952-.25397,1.53728-.82619,2.7834-1.71677,1.67947-1.24268,2.61917-1.72698,2.82402-1.44926.04901.05074.0762.12866.0762.23022,0,.17949-.48431.96506-1.45098,2.36348-.15241.20657-.52149.7789-1.10564,1.71678-.58576.9414-.87692,1.4256-.87692,1.44925.10156-.07448.19131-.1523.26751-.22679.0761-.07792.16423-.16594.2658-.26751.53493-.50795,1.18345-1.07006,1.94527-1.67958.43347-.35554.94808-.7415,1.54577-1.16143.59768-.41982.921-.61628.97183-.59253-2.33983,1.85553-3.9533,3.25405-4.84388,4.19536-.45711.50794-.76859.87026-.93454,1.08693-.16594.21678-.43851.64337-.81942,1.27998-1.98429,3.30488-3.39625,5.59388-4.23437,6.86364-.40628.58587-.69239.95495-.85833,1.10725-.16595.15241-.31158.17949-.43851.07792"/><path class="cls-1" d="M60.34638,18.79432c-.12695-.1524-.15241-.43346-.0762-.83973.0762-.40638.16594-.73817.26751-.99214s.10157-.41992,0-.4944c-.12865,0-.5604.12532-1.29685.37929-.02546.02709-.08974.05073-.19131.07781-.30481.10157-.54686.17949-.72463.22689-.17777.05417-.40638.11512-.68744.19304-.27934.07448-.50107.11511-.66702.11511s-.33694-.02031-.51472-.05761c-.17777-.04063-.30471-.13542-.38091-.28773-.07619-.1524-.1151-.342-.1151-.57232,0-.25397.10157-.50785.30471-.76182.33017-.45711.99213-.94818,1.98428-1.46957.99214-.52149,1.81835-.83307,2.47859-.93464.61123-.07448.90241.10157.87876.53503-.02709.20314-.12189.34877-.28612.4368-.16594.09146-.29975.0474-.40132-.13199-.02538-.07458-.0762-.10167-.15231-.07458-.50966.07458-1.16991.31835-1.98428.72463-.81438.40638-1.41035.77546-1.79298,1.10392-.2286.23022-.34199.41992-.34199.57223,0,.30481.48257.31835,1.44925.04063,1.34768-.40971,2.12991-.61629,2.34488-.62983.21667-.01355.37586.00677.47743.05761.1524.12532.23538.28439.24719.47409.01355.19304-.06943.52816-.24719,1.01246-.15231.4842-.22852.76182-.22852.83974,0,.07448.0372.11177.1134.11177.10157-.02375.54008-.23365,1.31726-.62649.77536-.39617,1.52536-.76859,2.24999-1.12757.72463-.35554,1.10049-.52149,1.12595-.49441,0,.02375-.21678.17272-.64843.4368-.43346.26751-.98709.59941-1.65926.99214-.67551.39617-1.25288.72129-1.73708.97526-.38091.17605-.62811.27762-.74322.30471-.1134.02375-.23538-.01355-.36231-.11512"/><path class="cls-1" d="M55.74128,22.20647c-.09793.01253-.02768.1423-.03769.22467-.11117.0566-.06752-.09308-.11663-.15726-.0677.04811-.10652.18191-.16139.18495-.00708-.02183-.0187-.0283-.01021-.05832-.06205.11987-.22718.04114-.29823.18919-.00829-.01091-.01325-.02163-.01627-.03163.02365.06508.03527.1332.03901.18222-.04336.00869-.06943.09612-.09793.01112.02708-.00131.02445-.03689.03325-.06609l-.04053.04467c-.05851-.11946.05649-.05265.04376-.14573-.08368.05457-.17342.17312-.2468.14785-.03113-.11956.15432-.06498.048-.15978l.11229.03063c-.10754-.18101.06619.00353-.03669-.19192-.14412-.01314-.14715.08692-.29087.07388-.02192.07226.02416.09783.00223.17009-.1806.15008-.19759-.27782-.32038-.0948-.02638.0856-.0197.23811-.13431.17444l.01637-.13947c-.13664.00859-.04983.20395-.20364.13664.01769-.05619.09965-.06084.07701-.07347-.10632-.09035-.05396.0858-.12421.09682l-.03122-.11491c-.14078.04214-.28672.15119-.44256.19698.00385-.03547.02587-.0758-.01637-.10481-.19202.08914-.42952.05569-.63225.02295l-.05962.10814c-.01728.00181-.03821-.0379-.02234-.05943-.08055-.02355.00506.06114-.02556.1046-.04185.01364-.06468-.04538-.04175-.07843-.12086.10329-.35271.23366-.50743.15786l.02305-.03214c-.1145-.0188-.09429.20991-.2083.14048l.01688-.0195c-.24225.0003-.49107.12441-.69178.02182-.01466.133-.24245-.01566-.23032.16282-.14836-.06397-.11471-.10187-.3135-.12603-.05195.00111-.05872.12097-.11865.14947l-.01556-.08934-.07034.10854-.06216-.09844-.05508.03335c.02425.00101.05609.03092.0565.0571-.0854.05609-.23356-.02203-.24296-.0663l-.20537.11289c-.0007-.03578.03376-.05427.05892-.08176-.10177.10955-.03567-.08752-.12885.01294.01738.01708.00051.05276.00091.07064-.06135-.04275-.18191-.02102-.26751.01668l.00757-.06165c-.16341.01445-.33462.09126-.51542.1236.06913.01425.07044.11612.019.13492l-.03547-.08328c-.02536.06003.06074.02294.00131.10137-.06912.00202-.06154-.09035-.02749-.12593l-.07711.04528c-.0091-.02486.00788-.04204.00748-.076-.02476.05973-.15573-.05953-.18899.04224l-.00879-.02456c-.1806.03386-.25761.07762-.40385.11026.0093.07257-.05083.06751-.08489.13351-.11188-.00293-.24114-.03558-.3702-.00465-.0855.05195-.01657.06397-.05063.11299-.01759-.06215-.14654-.03163-.08691-.08964-.15433.04002-.19718.05053-.38597.13815.02577.02092.05185.02739.04295.05073-.03406.01678-.0859-.01041-.0859-.04063l.00828-.00819c-.20566.13169-.5417-.07459-.69602.08409l.00879-.00798-.17161.09853c-.0859.00627.04275-.05316-.02597-.07661-.1799.13431-.3136.04962-.46459.14462-.15523-.13684-.44347.10137-.63154.03487l.01657.03477c-.03709.04487-.0568-.01001-.09066-.01142.00991.02739.05367.02274.03022.04841-.36241.12118-.77485.10733-1.1597.16312-.14038.02264-.04528.18818-.23558.14776l.0377-.07135c-.2655.13391-.57273.1239-.83449.24417.01364-.01657.01071-.03355.03739-.03952-.066-.02739-.21395.0474-.20819.07994-.04336.00596-.01597-.02718-.04558-.0378-.06276-.0099-.13502.08388-.17393.05174-.00646-.00515.01364-.01647.02365-.02193-.03386.02769-.17686.03577-.13138.07226-.10703.00222-.19223.06407-.27954.0568-.04315.06044-.18061.01688-.18313.08874-.00748-.07155-.19141-.01273-.24933.03426.01719-.02567-.06094-.00788-.04164-.04214-.07368.0189-.13866.0475-.11834.07852-.15332-.04598-.26004.12694-.35847.04629-.21203.08611-.40962.15877-.60356.22042-.00637-.06094.21648-.05922.19374-.12057-.18111.07236-.27762.14846-.4662.17959-.04982.00394.02153-.03143.03547-.04528-.18111.07014-.36241.08338-.52088.15695-.00071-.00515.01587-.01526.03184-.02375-.03234.01021-.07782.01203-.06842.03527l.03032-.01486c.06054.02223-.11238.10632-.1139.12562.03911-.08227-.16787.02405-.10035-.08368-.02042.01001-.04467.02809-.03598.04245-.03295.00364-.04528-.00273-.01728-.029-.1138.04315-.06629.0569-.17241.08348-.00232-.01112.01799-.02092.02577-.03679-.04831.03557-.09712.07044-.18899.08409.00384-.00788-.00859-.01364.01809-.02032-.15281.04346-.24892.12037-.42184.14644.03861-.0572-.06084.00091-.07923-.03416l-.08762.03588.04093.00809c-.07934.02102-.1426.0662-.21375.07256l.05497-.03072-.14664.04679.08752-.00899c-.0755.03972.02021.04295-.08792.06064.02052-.0092-.07944.02011-.12603.01071l.0002-.0002c-.03639.02143-.07378.04326-.13462.05023-.01799-.00677.00242-.04053-.0093-.04497-.03143.0377-.18323.05872-.22416.10177.01445-.01132.01071-.0286.00445-.03052l-.02638.03103c-.03851.00344-.04477.00162-.04235-.01344-.11097.02749.04578.03032-.08944.04993.0098-.00455.00404-.00637.02446-.01566-.1334.0286-.24963.08479-.37283.10874-.04366-.0191.10319-.03719.05559-.05053-.17181.05639-.35009.13603-.51866.18171l.03204-.00657c-.01244.04417-.12977.0195-.2092.06266.01991-.00889.02132-.0282.01688-.02243-.11602.02961-.23113.08095-.40153.14351l.019-.01486c-.06973.01314-.17888.04972-.25205.07105-.0191.01496-.06084.02729-.03224.03022-.23608.03214-.41871.16039-.6269.19333.02355-.00788.05447-.02436.03568-.01809-.05549.02082-.11117.04063-.16605.06326.01667.00546.02405-.00172.06185-.00626-.0191.01374-.06478.03497-.10622.04952.07297-.03315-.00616-.01597-.04042-.0096.00646.00111-.00354.00839.0003.01041-.09318.01405-.00798.02466-.13118.05528l.00465-.00707c-.04376.01839-.08267.03911-.13128.05467-.02354-.00313.04578-.02152.04589-.03123-.06731.02506-.12663.0663-.19131.07812.0287-.01192.06801-.0284.09671-.04042-.07064.01213-.07732.01809-.12734.03416l.00495-.00152-.11592.03649.03011-.00768c-.0764.05235-.16989.06761-.27701.12623.1046-.05569.01526-.01455.02031-.02668-.02961.00899-.07418.02385-.06266.01637-.05053.0282-.09055.03073-.16171.07044-.00434-.00121-.05679.02254-.04729.01162-.06812.02991.01799-.00243.01344.00313-.10268.05164-.25489.08792-.40082.16635-.12815.06165-.14988.07752-.26954.1325-.04174.01576.03103-.01971.03103-.01971-.0665.02709-.11552.04962-.17676.07822.01213-.00647-.00122-.00162-.02061.00556-.04932.02244-.03133.0186-.09743.04619.01173-.00637.0277-.01516.0476-.02618-.05842.02608-.11349.0572-.17211.08803-.01627.00677.03457-.02021.05488-.03193-.06408.03406-.15978.08499-.1906.10137l.04285-.02102c-.02415.01233-.01314.00506.00455-.00444.05598-.03052.08216-.04134.0857-.04215l-.04174.02183c.04528-.01758.16797-.08742.25579-.1237l-.03416.02041.08732-.04295c.0195-.00708.03385-.0098-.0088.0096.06357-.02456.05437-.02587.10925-.04619.00617-.00202.00364-.00061-.00182.00192l.06023-.02809c-.01142.00647.01203-.0001-.02587.01516.11127-.04315.17444-.08105.21789-.09348l-.00889.00435c.15079-.06802.01243-.01162.1233-.06832.02728-.00667.05579-.01071.08378-.01557l.01263-.01223c.01597-.00586.0477-.01748.04295-.01263.05751-.02729-.01122.00101.02143-.01657.07923-.02314.20991-.0853.23204-.07933.02517-.01668-.07509.02354.00505-.01223.02881.00505.09369-.03901.16625-.05932-.0186.01607-.08661.03709-.01374.01738.03729-.02941.13765-.04902.19596-.07347-.00151-.01263.12835-.04952.22729-.08823-.00485.00647.19152-.05771.28692-.08398l-.00192.00344c.01303-.02102.11036-.05134.17938-.07873.00041.01041-.01091.01859-.0475.03568l.066-.02244c.01395-.01021.03335-.02052.0758-.03628l-.01263.01758c.08853-.02769.17362-.07024.29056-.09672.00222-.01506-.10198-.00617.01556-.05356.00677.00546.01506.01607-.01556.0288.01001-.00414.03497-.01738.05669-.02112l-.04436.02698c.05356-.01112.02395-.01829.06579-.03042.00242.01041.03304-.00243.02971.00758-.01031.00424-.03759.00708-.05215.01597.0474-.01283.10592-.02425.12714-.02213-.00596-.00465-.00444-.01395.02941-.02607.08833-.0283.03436.00344.08783-.00697.0191-.01415.07822-.02355.07448-.04053.02598-.00799.03325-.00172.04467-.0002.04325-.02234.21405-.06691.15654-.06984l-.01223.00212c.00212-.00091.00465-.00182.00728-.00293l-.00041.0001.00041-.0001c.14583-.06175.31744-.08045.4653-.13128l.00162.00667c.08742-.03335.19819-.06165.25791-.0954.02647-.00768.06619-.00515.0573.00657.06691-.02507.07236-.03527.17535-.04962-.06569.03123.02709.00515-.06832.0282.09126-.01738.11501-.01021.20536-.05629-.02728.028.07439.00718.11531-.0098l-.0667.00212c.0471-.01546.08944-.02476.13239-.03416l-.01566.03264c.19273-.01294.31501-.14371.47024-.12188.04306-.03305-.10339.01152-.0664-.02334.08509-.0193.18465.00192.21132-.00394.12057-.01071.09662-.07034.22103-.08853-.01839-.00738-.04073-.03315.0471-.0667.0857-.01748.11642.02173.06529.04396-.02012.00586-.03082.00465-.03103.00061-.02628.01081-.06094.02436-.02425.0284l.00808-.01395c.04508.00121.1614-.028.13886-.00253.06125-.02618.02254-.02557-.02648-.01991.11299-.0095.16999-.04063.2848-.05609-.01951-.00233-.03942-.01243-.02163-.01657.16787-.02496.0664-.04063.17616-.07357.06801.00374-.01142.05023.09682.00849.07186-.00263.02284.03012-.00192.04629.09642-.0471.19536-.02638.25508-.03436l-.05144.02223c.03073-.01324.0572-.0188.08419-.02456l-.03719-.0193c.03274-.00243.05962-.00829.06165.00273.0285-.02446-.03557-.0379.02345-.0762.04548.00384.12492-.04406.14805-.01172-.13563.01789.02335.03254-.08762.06316.02061-.00899.04709-.01475.08004-.01698.00576.00293-.00273.00829-.01092.01233.13492.00424.04871-.05326.1805-.08217-.01182.02436.03992.03244.06033.02335-.05316.01112-.03355-.0288.01122-.05589.08833-.00273.08883-.03295.1335-.04113l-.05225.00384c.01202-.02507.05487-.03214.11207-.05256.00889.01557-.05073.02385-.02799.02638.05639-.05306.15715.00687.24235-.03851.04578.00586.01374.04053.05336.04295.0957-.05043.11804.00758.22011-.03881-.038-.02416-.04174-.01526.02718-.06135l-.17201.05902.10339-.06842c-.05347.01122-.10824.04346-.14139.04517.04841-.03608.04457-.02759.01324-.04689.08348.02941.13856-.05862.23002-.04639l.01495.07721c.13482.00799.21648-.08772.38576-.10339l-.05609-.00253c.01496-.03648.10066-.02668.15119-.05073.00111.0282.03678.03123.06336.04376-.00727-.01981.12138-.02213.12421-.08075l.08176.02173c.13684-.01132.13461-.11178.26479-.12906-.03174.03931.03092.04801-.05012.08783.04295-.00839.08256-.01071.07893-.03103.02901.01334.11016-.06357.15554-.04376.01526-.01667.01445-.04891.06297-.05649.00657.00495.00303.01475.00303.01475-.00303-.01465.07084-.03578.02183-.06003.1516.06559.36696-.08368.49956-.02294.09136-.0288.20192-.06125.28641-.08045-.00344.01081.00303.01627-.01374.01607.1235.00738.05276-.10773.19304-.10076.07903.03982-.06489.04295-.0183.05467.04083.10501.15786-.04649.26075.0002l-.02042.01071c.0762.02446.15908-.07347.27287-.08681,0,0-.00344.01112.00283.01738.06508-.07216.20647-.11966.31107-.15705-.02446.05225-.04426.03355-.01445.0762.0471-.01566-.029-.07186.06488-.10369.03639.0191.11046.02789.12967.07671l-.09065.01961c.05962.05639.11764-.02385.16786-.02153l-.0005.02982c.13795-.03466.12552-.10844.27661-.13169l-.01981-.0194c.06782-.08894.07691.029.14816-.04113l.03942.07115c.05074-.02769.17575-.10773.27004-.14048-.04406.06761-.1522.11703-.21617.16282.05386-.00889.18161-.0376.20223-.08075-.02021.01132-.04386.03507-.06751.02698.05437-.07206.13532-.11834.24255-.13684.01001.15604.28631-.01243.38677.0952.17858-.09116.38111-.03749.60052-.08287-.10187-.11471.06387-.01425.02618-.14371.04993-.01738.06994-.0187.0761-.01081l.1705.05296c.04406.03295-.04356.0377-.03345.0668.11471-.00799.05761.04912.13876.07317-.02405-.04578.02678-.07539.0944-.06721l-.10187-.0478c.14462-.09854.15675.09176.30288-.00475l-.04254.05104c.07711-.0382.30147-.04427.3614-.17039.01728.01395.04315.04972.0091.06549.19819-.01203.41244-.19151.57656-.14381l-.00859.0382c.03456-.01597.05164-.07742.10349-.04801.0003.01526-.00839.0383.00889.0379.01707-.01526.0857-.07832.13765-.06448l-.03416.0473c.19869.01991.27489-.14482.43003-.19647.01839.11036.17433.12401.25215.13128l.0001.01627c.22406-.0187.36121-.14796.55889-.22527.14856.10804.44074-.01092.65772.03325-.03497-.01759-.01011-.0948.02435-.11228.05215.01779.11936-.10389.12977.0092l-.01748.0003c.05397.1047.14826.06205.22598.05437l-.01102-.15008c.23679.18919.51634-.15837.65802.02527.04275-.04507.10328-.05286.14553-.09833l.01041.08358c.13856.00303.20769.00485.37172-.0377l-.02466.06519c.0951-.00667.08105-.26115.16716-.27904l.04589.12431c.16392-.02537.34806.06852.49258-.07196.0002.01961.00111.05831-.02466.06711.07793-.00697.3131.05124.25751-.12795.01981.11875.1714-.01061.25225-.0762l-.00051.09076c.05801-.1237.05579-.15524.15574-.20132.02657.00829.03243.06892-.00395.05043.08975.03598.05185-.09399.15918-.05973l-.02881.06276c.08611-.00445.07479-.03446.11167-.10854.04811-.04396.16473.00051.1894.08186.00415-.05195.04084-.12613.09439-.10915.01142.03052-.00403.05255-.01182.06337.1515.04396.19586-.13674.30703-.05831.00646.03073.01516.04538.02456.05367-.1134.01223-.20516.0194-.19759.01152.01244.0852.10592.08873.05043.21597.06398-.07307.16898-.23012.26389-.20112.00555.00788.01091.01557.01606.0285l-.00778.01092c.02184.00606.03901-.00424.05427-.02112.03052.01071.05003.0191.07752.01698.02091.07075.11035.02598.15644.02385-.01748-.09561.04436-.08783-.02284-.16009.00818.00606-.00698.01263-.03669.02062-.00646.00374-.01435.00617-.0181.01243.00062-.00263.00132-.00566.00192-.00879-.02951.00657-.06811.01385-.11228.02102.029-.05306.06073-.09904.11874-.05255.01456-.06468.03114-.13169.04134-.16362.08156.12552.21203.18313.24073.26468.13129-.07206.3227-.0758.38405-.27338.03618-.02921.05295.0474.07185.07489-.02021.02162-.04779.02223-.05639.05053.07237-.05781.23174-.04821.23224-.18222.10795.04629-.03911.12835.09481.08924l-.01284.04265c.29895.1809.39121-.39728.72777-.15937-.02305-.01456-.03447-.02113-.04175-.04336.35747.08277.68644-.20799,1.04935-.04599.10106.02982.09945-.06255.14877-.13936l.03597.11501.08226-.14776c.12855-.11814.28228.26216.43711.05124l-.03336-.07812c.0663.00768.19778-.07226.1988.02264.00475-.01556.01051-.08732.04093-.0477l.00991.06316.14442-.12744c.12825.03203.01232.25539.19232.24872.06337-.03153.16584-.20809.13594-.24872-.02709-.0002-.07317-.03254-.08298-.09682l.0567-.04083c-.01162-.19142.01242-.39405-.15412-.50573l-.09026.13027-.04487-.08691.08712-.01809c-.06044-.07933-.08267.00172-.11148.05882-.01435-.0475-.03325-.07934-.0561-.0944l-.08004.19374c-.02153-.07145.02779-.152-.04598-.18262-.03749.08974.0665.15786-.00607.22325-.06043-.07793-.05447-.14897-.10389-.06832-.01415-.04669-.00566-.07903.01485-.10349-.04477.06508-.13462.04436-.14897.14654-.06508-.09631-.17221.05174-.18928-.123-.01102.04417-.07408.14988-.12088.16383.06064-.21982-.18019.01374-.18576-.21042-.04063.19445-.22245.11743-.3234.23599.00454-.01537.01324-.04659.02455-.03881-.0663-.00556-.09227-.0575-.13805-.0855.01152.15129-.08419.20041-.12592.29986-.09783-.13199.02466-.18191-.01839-.31643.02001.12017-.12098.14129-.08076.2375-.07205-.07954-.0577-.03527-.1051-.15311.01415.18636-.05185.04013-.08672.16079-.09925-.07741-.04547-.16857-.13381-.09813-.05306-.04881.02344-.12714.02344-.12714M53.50788,22.86884c-.0001-.00091-.0003-.00182-.0003-.00182.01929-.00535.03568-.0098.04618-.01273-.0095.00303-.02274.00727-.04588.01455M53.31698,22.90017c.02385.0001.05285-.00384.08347-.0092.01142.03143.00899.06609-.01051.06731.00728-.02335-.04043-.03517-.07296-.05811M53.81643,23.50038c-.0283.01728-.04124-.0002-.04821-.0193.01415-.00344.03032-.00869.05133-.01809.00062-.00333.00142-.00849.00192-.01213-.0002.01859-.00111.03618-.00505.04952"/><path class="cls-1" d="M10.97211,36.21927c0,.82346-.31188,1.25481-.93554,1.29414h-2.24148c-.01748.00434-.036.00655-.05555.00655-.39457,0-.70526-.1507-.93214-.45215-.22688-.30141-.34028-.64379-.34028-1.02712s.07467-.66397.22397-.84202c.1493-.17799.33153-.26702.54674-.26702h.22726c-.20044.13326-.34204.34074-.42476.6225-.03488.11582-.05176.24138-.05064.37678.00109.13547.02073.27521.05894.41937.03818.14419.1189.28015.24218.40791.12328.1278.27553.19168.45663.19168h2.14068c.32074,0,.48983-.16818.50731-.50458v-1.2188h.18247c.14762,0,.25027.03334.30782.09996.05754.06665.08637.18296.08637.34893v.54387ZM8.72521,34.77653c-.06287.06196-.13957.09288-.22996.09288-.09046,0-.16878-.03093-.23497-.09288-.06619-.06192-.09926-.13743-.09926-.22656,0-.0891.03306-.16517.09926-.22818s.14451-.09456.23497-.09456c.09039,0,.16709.03156.22996.09456s.09435.13908.09435.22818c0,.08913-.03149.16464-.09435.22656ZM9.4912,34.77653c-.06553.06196-.14307.09288-.23262.09288-.08959,0-.16657-.03093-.23098-.09288-.06444-.06192-.09666-.13743-.09666-.22656,0-.0891.03222-.16517.09666-.22818.06441-.06301.14139-.09456.23098-.09456.08955,0,.16709.03156.23262.09456s.09831.13908.09831.22818c0,.08913-.03278.16464-.09831.22656Z"/><path class="cls-1" d="M14.33688,33.46712c.14853,0,.25119.03334.30799.09992.05677.06668.08518.18296.08518.34893v2.30329c0,.82346-.31206,1.25481-.93617,1.29414h-1.8786c-.26842,0-.40259-.12121-.40259-.36368v-.19984h.69458v-3.48276h.27332c.07779,0,.14776.02679.21.08027.0622.05355.09334.11852.09334.19494v3.20755h.8629c.31594,0,.48479-.16818.50661-.50458v-2.97819h.18345Z"/><path class="cls-1" d="M16.53532,34.67283c.25045,0,.46504.05415.64379.16244.17872.10826.31199.25658.39979.44497.16268.34862.24404.75012.24404,1.20441,0,.45432-.04486.8311-.13445,1.13033s-.27307.55256-.55042.76011c-.27735.20748-.60716.31125-.98937.31125-.38224,0-.57333-.10146-.57333-.30435v-.21693c.107.02641.22933.03968.36694.03968.31668,0,.58044-.06231.79124-.18688.21077-.12465.35874-.29276.44395-.50444-1.27999-.03058-1.91996-.49144-1.91996-1.38261,0-.45341.11575-.80977.34732-1.06908.23147-.25924.54167-.3889.93046-.3889ZM15.97999,35.41164c-.12342.1562-.18513.33965-.18513.55042,0,.2108.02567.37349.07702.48819.05127.11467.11631.20474.19494.27027.18783.15291.58096.22937,1.17947.22937v-.49803c0-.26208-.0104-.43901-.03114-.53074-.02077-.09176-.04206-.18237-.06388-.27195-.01965-.08952-.04914-.15613-.08847-.19984-.0393-.04802-.08518-.0961-.13761-.14415-.09393-.08521-.24408-.1278-.45047-.1278-.20643,0-.37138.07814-.49474.23427Z"/><path class="cls-1" d="M18.90743,33.91598v2.50313c0,.35384.16923.53077.50783.53077h.08843v.56352h-.23588c-.29927-.0131-.53025-.11467-.69297-.3047s-.24408-.44444-.24408-.7634v-2.97819h.18019c.14853,0,.25171.03334.30964.09992.05782.06668.08682.18296.08682.34893Z"/><path class="cls-1" d="M19.36938,37.51341v-.56352h.85271c-.17967-.20531-.2695-.47834-.2695-.81908,0-.45341.11558-.80977.34676-1.06908.23119-.25924.53634-.3889.91547-.3889.37916,0,.68291.12563.91133.37678.22842.25119.34263.57904.34263.98355v.91673h.71097v.56352h-3.81037ZM21.94459,36.94989v-.49803c0-.26208-.01044-.43901-.03128-.53074-.02091-.09176-.04224-.18237-.06416-.27195-.01975-.08952-.04938-.15613-.08885-.19984-.03954-.04802-.0856-.0961-.13824-.14415-.09439-.08735-.24527-.1305-.4526-.12945-.2073.00116-.3724.08027-.49526.23756-.1229.15725-.18433.34074-.18433.55042,0,.21189.02634.37461.07901.48815.04823.11361.11186.20313.19088.26866.18433.15291.57921.22937,1.18483.22937ZM21.06019,34.11092c-.06318.06227-.14023.09337-.23115.09337s-.16909-.0311-.23451-.09337c-.06542-.06224-.09806-.1381-.09806-.22768,0-.08955.03264-.16545.09806-.22772.06542-.06224.14359-.09337.23451-.09337s.16797.03114.23115.09337c.06315.06227.09481.13817.09481.22772,0,.08959-.03166.16545-.09481.22768ZM21.89353,34.11092c-.06458.06227-.14195.09337-.23203.09337-.09011,0-.16755-.0311-.23238-.09337-.06479-.06224-.09722-.1381-.09722-.22768,0-.08955.03243-.16545.09722-.22772.06483-.06224.14226-.09337.23238-.09337.09008,0,.16745.03114.23203.09337.06462.06227.09691.13817.09691.22772,0,.08959-.03229.16545-.09691.22768Z"/><path class="cls-1" d="M26.87545,36.94989h.08847v.56352c-.2818,0-.50783-.02893-.67822-.08682-.17035-.05786-.31125-.16104-.42266-.3096-.21844.27304-.52041.40952-.90591.40952-.38553,0-.70169-.14086-.94849-.42266-.20534.27742-.54279.41611-1.01238.41611-.01748,0-.03492-.00221-.05243-.00655h-.0393v-.56352h.08518c.28176,0,.46738-.05677.55697-.17039.08952-.11354.13431-.32323.13431-.62905,0-.46258.11519-.82616.34568-1.09065.23042-.26453.53456-.39681.91246-.39681.37786,0,.67983.1334.90591.40014.22607.2667.33909.62915.33909,1.08733,0,.30361.04476.51274.13435.6274.08952.1147.27521.17203.55697.17203ZM24.43294,36.73527c.13431.16496.3123.24737.53403.24737.22166,0,.38823-.07698.49964-.23098s.16709-.36858.16709-.64379-.06388-.49088-.19165-.64709c-.1278-.15613-.30092-.23427-.51932-.23427-.21844,0-.38823.07484-.50948.22446-.12121.14962-.1818.35986-.1818.6307s.06714.48871.20149.6536Z"/><path class="cls-1" d="M27.93371,33.91598v2.56537c.0131.31241.18349.46854.51113.46854h.15396v.56352h-.30141c-.27742-.0131-.49474-.09827-.65199-.25556-.16601.15729-.38224.24246-.64873.25556h-.30141v-.56352h.154c.32109,0,.49032-.16818.50783-.50458v-2.97819h.18345c.14853,0,.25115.03334.30799.09992.05677.06668.08518.18296.08518.34893Z"/><path class="cls-1" d="M29.77175,36.21927c0,.82346-.31346,1.25481-.94033,1.29414h-.36694v-.56352h.21952c.32106,0,.49144-.16818.51109-.50458v-2.97164h.18019c.14853,0,.25175.0339.30964.10157.05782.06773.08682.18349.08682.34729v2.29674Z"/><path class="cls-1" d="M36.65494,34.69577h.577v2.25412h.67819v.56352h-1.25481v-2.25412c-.3454,0-.62082.05898-.82633.17694-.20548.11792-.34323.27192-.41317.46195-.06998.19004-.11698.39919-.14104.6274-.02406.22828-.04644.45656-.06721.68477-.02077.22825-.06231.43737-.12461.6274s-.18961.34452-.382.4636c-.19238.11904-.4547.17858-.78693.17858-.61627,0-1.06589-.15235-1.34891-.45705-.28313-.3047-.42462-.72025-.42462-1.24665,0-.31234.06392-.57172.19168-.77814.12776-.20639.31945-.3096.57501-.3096l.30141.0262v.01965c-.15035.06714-.27857.2003-.38473.39944-.10612.19911-.15914.39289-.15914.58117-.00221.18839.00984.34316.03611.46437.0262.11694.08083.23816.16391.36368.15736.23809.52027.36256,1.08866.37338.18797,0,.33496-.04648.44105-.13943.10601-.09299.17322-.21567.20163-.36809.0284-.15246.05299-.32487.07376-.51729.0208-.19245.03555-.39082.0443-.59518.00869-.20429.04858-.40122.11964-.59087.07106-.18961.16832-.35944.29178-.50966.12349-.15021.31524-.27108.57536-.3627.26008-.09159.57809-.1374.95403-.1374Z"/><path class="cls-1" d="M37.77911,37.51341v-.56352h.69787v-3.48276h.18019c.1485,0,.25171.03334.3096.09992.05786.06668.08682.18296.08682.34893v1.95926c.14415-.35069.34239-.64369.59466-.87897s.54062-.35293.86496-.35293.606.0628.84497.18839c.239.12556.4255.2985.55956.5188.25949.42294.38925.95606.38925,1.59936h.57665v.56352h-5.10454ZM40.51486,35.28549c-.33205,0-.62635.1644-.883.49309-.25665.32876-.43632.71916-.53893,1.17131h2.63745c-.06339-1.10957-.4685-1.6644-1.21551-1.6644Z"/><path class="cls-1" d="M42.78208,37.51341v-.56352h.75026v-2.06738h.18019c.14853,0,.25171.0339.3096.10157.05786.06773.08682.18349.08682.34729v1.61852h.60614c.32109,0,.49032-.16818.50783-.50458v-1.5628h.18142c.14682,0,.24835.0339.30449.10157.05611.06773.08423.18349.08423.34729,0,.78196.00214,1.17842.00648,1.18931-.00865.10269-.02161.19441-.03884.27521.19679.11579.39485.17364.5942.17364.19932,0,.33846-.04472.4173-.13431.07884-.08955.12269-.21952.13148-.38991v-1.5628h.18349c.1485,0,.25115.0339.30796.10157.05677.06773.08518.18349.08518.34729v.8879c0,.41499-.09295.73443-.27882.9583-.18594.22394-.43085.33584-.73482.33584-.43404,0-.75793-.08518-.97161-.25556-.1652.16604-.37604.25122-.63252.25556h-2.08047Z"/><path class="cls-1" d="M51.17276,36.94989v.56352h-.67493c-.06241.33198-.23879.61049-.52923.83547-.29045.22492-.63416.33745-1.03111.33745-.39699,0-.59546-.10489-.59546-.31468v-.27448c.09428.01709.20618.02564.33563.02564.3116,0,.59227-.05352.84199-.16034.24971-.10696.3945-.25665.43432-.44907-1.29088-.03933-1.93632-.50016-1.93632-1.38261,0-.45341.11551-.80977.34659-1.06908.23105-.25924.5383-.3889.92174-.3889s.68568.12528.90671.37569c.221.25048.33153.57743.33153.98072,0,.60285.0021.90972.00641.92065h.64215ZM48.7423,35.41164c-.12493.1562-.18734.33965-.18734.55042,0,.2108.02567.37349.07702.48819.05127.11467.11631.20474.19494.27027.18783.15291.58096.22937,1.17947.22937v-.49803c0-.26208-.01012-.43901-.03036-.53074-.02021-.09176-.04094-.18237-.06224-.27195-.01916-.08952-.04791-.15613-.08623-.19984-.03832-.04802-.083-.0961-.1341-.14415-.09155-.08521-.24173-.1278-.45061-.1278s-.37569.07814-.50055.23427Z"/><path class="cls-1" d="M52.34572,36.21927c0,.82346-.31346,1.25481-.94033,1.29414h-.36694v-.56352h.21952c.32106,0,.49144-.16818.51109-.50458v-2.97164h.18019c.14853,0,.25175.0339.30964.10157.05782.06773.08682.18349.08682.34729v2.29674Z"/><path class="cls-1" d="M53.59072,37.51341h-.20786c-.24807,0-.37096-.13431-.36879-.40298v-3.64331h.27493c.07821,0,.14804.02679.20951.08027.06143.05355.09222.11852.09222.19494v3.77107Z"/><path class="cls-1" d="M57.93515,37.51341h-1.91338c-.08087,0-.14696-.02672-.19823-.08027-.05134-.05348-.07702-.11845-.07702-.19494v-.20643h.58975l-.07863-.14086c-.07208-.12885-.10812-.29486-.10812-.49799,0-.36112.09607-.65451.28831-.88023.19217-.22569.44886-.33857.76995-.33857.50454,0,.79828.2017.88132.60509,0,.17634-.03166.33398-.09502.47281-.16167-.39751-.43467-.5963-.81908-.5963-.14853,0-.26702.05789-.35548.17364-.08843.11582-.13267.27637-.13267.48164,0,.38879.07533.62579.22607.71097l1.30398.00981v.20643c0,.06773-.0235.13053-.07047.18839-.04697.05789-.11743.08682-.21129.08682Z"/><path class="cls-1" d="M59.27517,33.91598v2.50313c0,.35384.16923.53077.50783.53077h.08843v.56352h-.23588c-.29927-.0131-.53025-.11467-.69297-.3047s-.24408-.44444-.24408-.7634v-2.97819h.18019c.14853,0,.25171.03334.30964.09992.05782.06668.08682.18296.08682.34893Z"/><path class="cls-1" d="M60.97558,35.6754v.80595c.0131.31241.18349.46854.51113.46854h.15396v.56352h-.30141c-.27742-.0131-.49474-.09827-.65199-.25556-.1678.15729-.38634.24246-.65567.25556h-.29447v-.56352h.154c.32109,0,.49032-.16818.50783-.50458v-1.2188h.18345c.14853,0,.25115.03334.30799.09996.05677.06665.08518.18296.08518.34893ZM60.44599,38.47388c-.06255.06297-.13946.09449-.23073.09449-.09131,0-.16979-.03152-.2355-.09449-.06567-.06308-.09848-.13915-.09848-.22821,0-.08913.03282-.16464.09848-.22653.0657-.06199.14419-.09292.2355-.09292.09127,0,.16818.03093.23073.09292.06255.06189.09383.1374.09383.22653,0,.08906-.03128.16513-.09383.22821ZM61.21475,38.47388c-.06553.06297-.14307.09449-.23262.09449-.08959,0-.16657-.03152-.23098-.09449-.06444-.06308-.09666-.13915-.09666-.22821,0-.08913.03222-.16464.09666-.22653.06441-.06199.14139-.09292.23098-.09292.08955,0,.16709.03093.23262.09292.06553.06189.09831.1374.09831.22653,0,.08906-.03278.16513-.09831.22821Z"/><path class="cls-1" d="M61.50635,37.51341v-.56352h.91736c-.17911-.20531-.26863-.47834-.26863-.81908,0-.45341.11516-.80977.34564-1.06908.23042-.25924.53536-.3889.9148-.3889s.68302.12573.91084.37713c.22775.2514.34165.57956.34165.98439v1.47906h-3.16167ZM64.1438,36.45186c0-.2577-.00988-.43355-.02959-.52748-.01968-.0939-.04105-.18562-.06402-.27521-.02301-.08952-.05309-.15613-.09025-.19984-.03944-.04802-.08539-.0961-.13792-.14415-.09414-.08735-.24408-.1305-.44987-.12945-.2058.00116-.37054.08027-.49421.23756-.1237.15725-.18555.34074-.18555.55042s.02571.37184.07716.48654c.05145.11467.11656.20474.19539.27027.18825.15291.58121.22937,1.17888.22937v-.49803ZM63.6776,34.1119c-.06402.06164-.14226.09239-.23493.09239s-.17049-.03075-.23332-.09239c-.06287-.06164-.09432-.13673-.09432-.22541,0-.08864.03145-.16489.09432-.22867.06283-.06378.14065-.09568.23332-.09568s.17091.03082.23493.09246c.06399.06164.09596.13782.09596.22863s-.03198.16702-.09596.22867Z"/><path class="cls-1" d="M65.72628,33.91598v2.50313c0,.35384.16923.53077.50783.53077h.0884v.56352h-.23585c-.29931-.0131-.53025-.11467-.69297-.3047s-.24411-.44444-.24411-.7634v-2.97819h.18023c.1485,0,.25168.03334.3096.09992.05786.06668.08686.18296.08686.34893Z"/><path class="cls-1" d="M66.22101,37.51341v-.56352h.75026v-2.06738h.18016c.14857,0,.25175.0339.3096.10157.05786.06773.08686.18349.08686.34729v1.61852h.60611c.32109,0,.49032-.16818.50783-.50458v-1.5628h.18142c.14682,0,.24838.0339.30449.10157.05611.06773.08427.18349.08427.34729,0,.78196.0021,1.17842.00644,1.18931-.00862.10269-.02157.19441-.03881.27521.19676.11579.39485.17364.5942.17364.19928,0,.33846-.04472.41726-.13431.07887-.08955.12272-.21952.13148-.38991v-1.5628h.18352c.1485,0,.25112.0339.30792.10157.05681.06773.08518.18349.08518.34729v.8879c0,.41499-.09295.73443-.27878.9583-.18597.22394-.43085.33584-.73485.33584-.43401,0-.7579-.08518-.97161-.25556-.16517.16604-.37601.25122-.63252.25556h-2.08044Z"/><path class="cls-1" d="M76.51849,36.94989v.56352h-1.31512c-1.36212,0-2.0431-.46083-2.0431-1.38261,0-.45341.11537-.80977.34624-1.06908.23087-.25924.53557-.3889.9141-.3889s.68197.12563.91018.37678c.22828.25119.34239.57904.34239.98355v.91673h.84532ZM75.14902,36.94989v-.49803c0-.2577-.00995-.43355-.02963-.52748-.01968-.0939-.04049-.18562-.06234-.27521-.02192-.08952-.0526-.15613-.09197-.19984-.03937-.04802-.08539-.0961-.13792-.14415-.09414-.08735-.24404-.1305-.44984-.12945-.2058.00116-.37054.08027-.49425.23756-.12363.15725-.18548.34074-.18548.55042s.02571.37184.07712.48654c.05148.11467.11656.20425.19543.26866.07873.06444.20138.11904.36774.1638.16636.04479.43674.06717.81113.06717ZM74.28633,34.11092c-.06395.06227-.14121.09337-.23164.09337s-.16825-.0311-.23325-.09337c-.06514-.06224-.09764-.1381-.09764-.22768,0-.08955.0325-.16545.09764-.22772.065-.06224.14282-.09337.23325-.09337s.16769.03114.23164.09337c.06402.06227.09596.13817.09596.22772,0,.08959-.03194.16545-.09596.22768ZM75.11953,34.11092c-.06556.06227-.1431.09337-.23262.09337-.08959,0-.16664-.0311-.23101-.09337-.06444-.06224-.09666-.1381-.09666-.22768,0-.08955.03222-.16545.09666-.22772.06437-.06224.14142-.09337.23101-.09337.08952,0,.16706.03114.23262.09337.06549.06227.09827.13817.09827.22772,0,.08959-.03278.16545-.09827.22768Z"/><path class="cls-1" d="M76.34814,37.51341v-.56352h2.1591c-.05898-1.05059-.48605-1.57593-1.28107-1.57593-.12237,0-.24355.01751-.36368.05243l-.11467-.154c-.05898-.07208-.08791-.15613-.08679-.25227.00105-.0961.06388-.19112.18835-.28505l2.4769-1.86424.16055.21298c.0393.05464.05947.12237.06059.20313.00112.08083-.03222.14745-.09989.19984l-1.76593,1.34331c.27738.05464.51379.15564.70922.30305.19543.14745.33958.32494.4326.53242.17357.38662.26043.81474.26043,1.28433l-.00623.56352h-2.72949Z"/><path class="cls-1" d="M81.68628,37.51341c-.06808,0-.12952-.00655-.18429-.01965-.0089.0262-.01331.04367-.01331.05239v.28018c0,.23108-.08195.43327-.24586.6066-.16391.17329-.37356.25994-.62887.25994-.13764,0-.24901-.02987-.33419-.08962-.08518-.05978-.12783-.14006-.12783-.24082v-.16426c.07208.00869.13652.0131.19333.0131s.11684-.0042.18023-.0125c.06332-.00841.1174-.02665.16216-.05478.04476-.02819.083-.05169.11467-.07043.03166-.01881.05737-.05688.07698-.11421.01968-.0574.03495-.10223.04588-.13456.01093-.0324.01856-.09232.02298-.17991.00434-.0877.00756-.15386.00974-.19865.00217-.04472.00217-.12885,0-.25227-.00217-.12339-.00322-.21347-.00322-.27031v-1.7037h.18247c.14766,0,.25027.03334.30778.09996.05758.06665.08637.18296.08637.3489v1.22209c.08118.0393.18219.05898.30295.05898h.35562v.56352h-.50356Z"/><path class="cls-1" d="M82.08821,37.51341v-.56352h.75033v-2.06738h.18016c.1485,0,.25175.0339.3096.10157.05786.06773.08686.18349.08686.34729v1.61852h.60611c.32109,0,.49032-.16818.50783-.50458v-1.5628h.18142c.14682,0,.24831.0339.30449.10157.05611.06773.0842.18349.0842.34729,0,.78196.00217,1.17842.00651,1.18931-.00855.10269-.02136.19441-.03832.27521.19809.11579.39653.17364.59532.17364.19872,0,.33741-.04472.41607-.13431.07866-.08955.1223-.21952.13106-.38991v-1.5628h.18345c.1485,0,.25119.0339.30799.10157.05681.06773.08518.18349.08518.34729v.8879c0,.41499-.09288.73443-.2785.9583-.18562.22394-.43029.33584-.73387.33584-.43281,0-.75573-.08518-.96888-.25556-.16853.16604-.38364.25122-.64533.25556h-2.07168ZM84.62626,34.09782c-.05968.06227-.13603.09337-.22891.09337-.09302,0-.17287-.0311-.23977-.09337-.06682-.06224-.10031-.1381-.10031-.22768,0-.08955.03348-.16548.10031-.22772.06689-.06224.14675-.09337.23977-.09337.09288,0,.16923.03114.22891.09337s.08959.13817.08959.22772c0,.08959-.02991.16545-.08959.22768ZM84.99106,33.40653c-.06339.06224-.13995.09337-.22982.09337-.0898,0-.16461-.03114-.22443-.09337-.05975-.06227-.08959-.13813-.08959-.22772,0-.08955.02984-.16545.08959-.22772.05982-.06224.13463-.09337.22443-.09337.08987,0,.16643.03114.22982.09337.06332.06227.09498.13817.09498.22772,0,.08959-.03166.16545-.09498.22772ZM85.38885,34.09782c-.06458.06227-.14177.09337-.23157.09337s-.16727-.0311-.23234-.09337c-.06514-.06224-.09771-.1381-.09771-.22768,0-.08955.03257-.16548.09771-.22772.06507-.06224.14254-.09337.23234-.09337s.16699.03114.23157.09337c.06465.06224.09694.13817.09694.22772,0,.08959-.03229.16545-.09694.22768Z"/><path class="cls-1" d="M8.48285,42.10871h-.03937c-.16864-.25861-.44598-.38792-.83201-.38792s-.69426.11831-.92475.35492-.3448.54174-.34291.91536c0,.46195.11806.81786.35415,1.06757.23613.24971.53687.37461.90226.37461.36543,0,.64649-.11432.84325-.34295h.02812v.14338c0,.17238-.08623.32137-.25861.44689-.17242.12552-.40291.18737-.69146.18548-.46476,0-.85638-.1686-1.17492-.50594-.31857-.33727-.47691-.75888-.47502-1.26482,0-.50594.1555-.93322.46658-1.28177.31104-.35037.72704-.52563,1.24801-.52563.26796-.00182.48437.06465.64929.19963.16489.13491.24737.28292.24737.44409v.17708Z"/><path class="cls-1" d="M10.05286,42.134c.26905,0,.50468.08812.70691.26428.20222.1761.30239.38925.30057.63924,0,.24999-.07814.42427-.23434.52275-.15617.09848-.45428.14871-.89424.1506h-.64786c.01874.22303.10377.40192.25507.53683.15126.13491.34701.20334.5872.20517.34414,0,.61175-.08994.80276-.26982h.02336v.19396c0,.14619-.07712.26421-.23133.35415s-.37503.13491-.66246.13491c-.35573,0-.6487-.12363-.87897-.37103-.23024-.24733-.34536-.56961-.34536-.96692,0-.39723.11603-.72792.3482-.99213.23213-.268.5223-.40199.8705-.40199ZM10.61061,43.08403c0-.1499-.05166-.27731-.15494-.38224-.10332-.10493-.25633-.15648-.45915-.15459-.20464,0-.37272.07124-.50419.21357-.13144.14247-.20093.30547-.20842.48913l-.00564.10962.59431-.01128c.30796-.00371.50797-.02431.59998-.06185.09201-.0374.13806-.10493.13806-.20236Z"/><path class="cls-1" d="M13.9414,44.8155h-.16538c-.18958,0-.28435-.09554-.28435-.2867v-1.20304c0-.26982-.05236-.46279-.15704-.579-.10472-.11621-.2749-.17519-.51046-.17708-.40952,0-.6142.25203-.6142.75608v1.48974h-.16797c-.08539,0-.15372-.0262-.20492-.07852-.05124-.05232-.07684-.12804-.07684-.22723v-1.19485c0-.36088.10206-.64421.30617-.84987.20415-.20573.47355-.30855.80826-.30855.33465,0,.59616.09631.78438.28887.18825.19263.28236.48066.28236.86395v1.5062Z"/><path class="cls-1" d="M15.17253,41.67022v.53403h.89946v.14801c0,.17491-.11453.26337-.34358.26519h-.54745v1.29536c0,.34701.14244.52044.42728.52044.19732,0,.3351-.02059.41327-.06185h.02234v.15739c0,.22485-.15175.33727-.45533.33727-.30172,0-.51999-.07481-.65493-.22457-.13491-.14976-.20236-.3772-.20236-.68232v-1.70156c0-.14612.0408-.28102.12241-.40473.0816-.12363.17084-.18457.26765-.18268h.05124Z"/><path class="cls-1" d="M17.97214,42.74956h-.02248c-.10307-.08805-.24082-.13211-.4132-.13211-.17242,0-.29328.05246-.36259.15739-.07124.105-.10682.29608-.10682.5734v1.46726h-.19193c-.08213,0-.14612-.02809-.19193-.08427-.04581-.05611-.06777-.12727-.06588-.21336v-1.20451c0-.35191.07915-.62425.23753-.81709.15834-.19277.36774-.29013.62821-.29202.16867,0,.29234.03173.37103.09512s.11806.14261.11806.23767v.21252Z"/><path class="cls-1" d="M20.26573,43.95071c0,.27976-.08304.5023-.24915.66754s-.40767.24782-.7247.24782c-.31069,0-.56429-.07383-.76077-.22163-.19466-.14773-.29199-.35205-.29199-.61297.00186-.26092.10773-.46812.31762-.62166.20986-.1534.5106-.22926.90226-.22737h.35135v-.11375c0-.17974-.04886-.31016-.14654-.39135s-.25455-.12076-.47053-.11894c-.38011,0-.65619.11712-.82847.35135h-.02791v-.21357c0-.13498.08213-.2605.24642-.37671.16426-.11614.39667-.17427.69724-.17427.3006,0,.53992.08455.71804.2535.17617.16902.26519.41313.26712.73233v.81968ZM19.816,43.91884v-.32326h-.35787c-.51099,0-.76743.14997-.76928.44977,0,.11432.05257.21084.15781.2895.10517.07873.24985.11803.43397.11803.18215,0,.31745-.04119.40574-.12363.0864-.08244.12962-.21924.12962-.4104Z"/><path class="cls-1" d="M22.25297,44.5702c0,.17484-.11904.26218-.35699.26218-.53032,0-.79453-.25861-.79264-.77583v-2.88947h.13775c.09176,0,.16674.02998.22485.0898.05807.05989.08714.14408.08714.25252v2.48888c0,.15347.03558.2619.10682.3255.07117.0636.17329.0954.30638.0954h.2867v.15102Z"/><path class="cls-1" d="M24.63254,44.86608c-.26145,0-.50223-.06745-.72225-.20236-.22008-.13491-.33009-.297-.33009-.48626v-.22485h.0284c.1071.14324.25469.25917.44266.34778s.40977.13288.6654.13288c.49375,0,.73965-.19102.7378-.57298,0-.18065-.06266-.31612-.18797-.40641-.12535-.09036-.36473-.17406-.71825-.25126-.35349-.07712-.6108-.18156-.77191-.31332-.16111-.13169-.24166-.31892-.24166-.5617,0-.30176.12051-.55056.36165-.7462.2411-.19564.56226-.29349.96348-.29349.30516-.00182.54811.06283.72897.19396.18082.1312.27125.2811.27125.44977v.21357h-.02879c-.21994-.28102-.5527-.42245-.99823-.42441-.25752,0-.45586.04707-.59497.14114s-.20867.22583-.20867.39513c0,.16937.05331.29167.15992.3669.10843.07719.32351.15249.64523.22583.32165.07152.58737.18429.79712.33818s.31559.37258.31752.65605c0,.28341-.11326.52472-.33979.72365s-.55214.2984-.97683.2984Z"/><path class="cls-1" d="M28.57729,43.95071c0,.27976-.08304.5023-.24915.66754s-.40767.24782-.7247.24782c-.31069,0-.56429-.07383-.76077-.22163-.19466-.14773-.29199-.35205-.29199-.61297.00186-.26092.10773-.46812.31762-.62166.20986-.1534.5106-.22926.90226-.22737h.35135v-.11375c0-.17974-.04886-.31016-.14654-.39135s-.25455-.12076-.47053-.11894c-.38011,0-.65619.11712-.82847.35135h-.02791v-.21357c0-.13498.08213-.2605.24642-.37671.16426-.11614.39667-.17427.69724-.17427.3006,0,.53992.08455.71804.2535.17617.16902.26519.41313.26712.73233v.81968ZM28.12756,43.91884v-.32326h-.35787c-.51099,0-.76743.14997-.76928.44977,0,.11432.05257.21084.15781.2895.10517.07873.24985.11803.43397.11803.18215,0,.31745-.04119.40574-.12363.0864-.08244.12962-.21924.12962-.4104Z"/><path class="cls-1" d="M30.7697,41.8445h-.02248c-.10307-.09183-.23707-.13778-.40192-.13778-.16492,0-.28488.04091-.35979.12251-.07498.08167-.11242.21805-.11242.40914v.31724h.76172v.16881c0,.06787-.02578.1251-.0773.17168-.05155.04651-.12149.07075-.20979.07271h-.48307v1.8467h-.16541c-.18954,0-.28432-.10584-.28432-.31759v-2.30207c0-.24173.08104-.45257.24313-.63245.16205-.17988.37335-.26982.63385-.26982.14615-.00189.26232.03089.34855.09834.08616.06745.12927.1396.12927.21644v.23613Z"/><path class="cls-1" d="M31.45174,45.6784c-.09649-.00203-.17781-.02676-.24404-.07432s-.09831-.10206-.09628-.16349v-.1754h.21644c.11733,0,.22029-.03719.30883-.11158.08654-.07439.20292-.24278.34918-.50503-.22635-.33482-.43628-.72547-.62978-1.17194s-.33086-.8734-.41208-1.28079h.26905c.1514,0,.25006.08742.29591.26225.14212.63994.37779,1.23057.70698,1.77189.14584-.24733.29451-.57844.44602-.99332.15337-.41488.25154-.76175.29458-1.04082h.17708c.13866,0,.208.06745.208.20236-.00193.05996-.02178.15179-.05961.27549-.11918.45348-.38214,1.08494-.78886,1.89447-.21185.42161-.39159.71202-.53914.8713-.14759.15928-.315.23893-.50227.23893Z"/><path class="cls-1" d="M35.67738,43.95071c0,.27976-.08304.5023-.24915.66754s-.40767.24782-.7247.24782c-.31069,0-.56429-.07383-.76077-.22163-.19466-.14773-.29199-.35205-.29199-.61297.00186-.26092.10773-.46812.31762-.62166.20986-.1534.5106-.22926.90226-.22737h.35135v-.11375c0-.17974-.04886-.31016-.14654-.39135s-.25455-.12076-.47053-.11894c-.38011,0-.65619.11712-.82847.35135h-.02791v-.21357c0-.13498.08213-.2605.24642-.37671.16426-.11614.39667-.17427.69724-.17427.3006,0,.53992.08455.71804.2535.17617.16902.26519.41313.26712.73233v.81968ZM35.22764,43.91884v-.32326h-.35787c-.51099,0-.76743.14997-.76928.44977,0,.11432.05257.21084.15781.2895.10517.07873.24985.11803.43397.11803.18215,0,.31745-.04119.40574-.12363.0864-.08244.12962-.21924.12962-.4104Z"/><path class="cls-1" d="M39.90203,42.10871h-.03937c-.16864-.25861-.44598-.38792-.83201-.38792s-.69426.11831-.92475.35492-.3448.54174-.34291.91536c0,.46195.11806.81786.35415,1.06757.23613.24971.53687.37461.90226.37461.36543,0,.64649-.11432.84325-.34295h.02812v.14338c0,.17238-.08623.32137-.25861.44689-.17242.12552-.40291.18737-.69146.18548-.46476,0-.85638-.1686-1.17492-.50594-.31857-.33727-.47691-.75888-.47502-1.26482,0-.50594.1555-.93322.46658-1.28177.31104-.35037.72704-.52563,1.24801-.52563.26796-.00182.48437.06465.64929.19963.16489.13491.24737.28292.24737.44409v.17708Z"/><path class="cls-1" d="M42.63131,43.48743c0,.41159-.10584.74431-.31745.99809-.21164.25378-.4933.38056-.8449.38056-.35163,0-.64306-.12307-.87435-.36935-.23129-.24621-.34687-.57424-.34687-.98401s.10906-.73829.32722-.98548c.22005-.24719.50966-.37075.86878-.37075.35906,0,.64635.11894.86171.35674.21725.23788.32585.56261.32585.9742ZM42.18158,43.55474c0-.65479-.26281-.98317-.78833-.98506-.20951,0-.37779.0795-.505.23858-.12717.15907-.19077.38266-.19077.67076,0,.28817.07106.51918.21319.69318.14212.17406.33009.26106.56391.26106.23378,0,.41051-.08041.53025-.24138.11971-.1609.17862-.37328.17676-.63714Z"/><path class="cls-1" d="M45.5405,44.8155h-.16538c-.18958,0-.28435-.09554-.28435-.2867v-1.20304c0-.26982-.05236-.46279-.15704-.579-.10472-.11621-.2749-.17519-.51046-.17708-.40952,0-.6142.25203-.6142.75608v1.48974h-.16797c-.08539,0-.15372-.0262-.20492-.07852-.05124-.05232-.07684-.12804-.07684-.22723v-1.19485c0-.36088.10206-.64421.30617-.84987.20415-.20573.47355-.30855.80826-.30855.33465,0,.59616.09631.78438.28887.18825.19263.28236.48066.28236.86395v1.5062Z"/><path class="cls-1" d="M46.77163,41.67022v.53403h.89946v.14801c0,.17491-.11453.26337-.34358.26519h-.54745v1.29536c0,.34701.14244.52044.42728.52044.19732,0,.3351-.02059.41327-.06185h.02234v.15739c0,.22485-.15175.33727-.45533.33727-.30172,0-.51999-.07481-.65493-.22457-.13491-.14976-.20236-.3772-.20236-.68232v-1.70156c0-.14612.0408-.28102.12241-.40473.0816-.12363.17084-.18457.26765-.18268h.05124Z"/><path class="cls-1" d="M49.57119,42.74956h-.02248c-.10307-.08805-.24082-.13211-.4132-.13211-.17242,0-.29328.05246-.36259.15739-.07124.105-.10682.29608-.10682.5734v1.46726h-.19193c-.08213,0-.14612-.02809-.19193-.08427-.04581-.05611-.06777-.12727-.06588-.21336v-1.20451c0-.35191.07915-.62425.23753-.81709.15834-.19277.36774-.29013.62821-.29202.16867,0,.29234.03173.37103.09512s.11806.14261.11806.23767v.21252Z"/><path class="cls-1" d="M51.86482,43.95071c0,.27976-.08304.5023-.24915.66754s-.40767.24782-.7247.24782c-.31069,0-.56429-.07383-.76077-.22163-.19466-.14773-.29199-.35205-.29199-.61297.00186-.26092.10773-.46812.31762-.62166.20986-.1534.5106-.22926.90226-.22737h.35135v-.11375c0-.17974-.04886-.31016-.14654-.39135s-.25455-.12076-.47053-.11894c-.38011,0-.65619.11712-.82847.35135h-.02791v-.21357c0-.13498.08213-.2605.24642-.37671.16426-.11614.39667-.17427.69724-.17427.3006,0,.53992.08455.71804.2535.17617.16902.26519.41313.26712.73233v.81968ZM51.41509,43.91884v-.32326h-.35787c-.51099,0-.76743.14997-.76928.44977,0,.11432.05257.21084.15781.2895.10517.07873.24985.11803.43397.11803.18215,0,.31745-.04119.40574-.12363.0864-.08244.12962-.21924.12962-.4104Z"/><path class="cls-1" d="M54.56317,42.90976h-.02248c-.04686-.09554-.13771-.17708-.27265-.24453-.13491-.06745-.26607-.10115-.39348-.10115-.25486,0-.46286.08455-.62401.25371-.16118.16916-.24173.40031-.24173.69353,0,.29314.08805.52345.26421.69065.1761.16734.38039.25091.61276.25091.31104,0,.52934-.07866.6549-.23606h.02248v.19109c.00186.10682-.06091.20993-.18832.30925-.12745.09926-.32981.14892-.60712.14892-.27735,0-.54895-.12195-.81478-.36585-.2626-.24397-.39387-.56135-.39387-.95228s.11946-.72147.35839-.99171c.23889-.27024.54951-.40536.93175-.40536.20422,0,.37478.04966.51158.14892.13677.0994.20422.23991.20236.42168v.18828Z"/><path class="cls-1" d="M55.83086,41.67022v.53403h.89946v.14801c0,.17491-.11453.26337-.34358.26519h-.54745v1.29536c0,.34701.14244.52044.42728.52044.19732,0,.3351-.02059.41327-.06185h.02234v.15739c0,.22485-.15175.33727-.45533.33727-.30172,0-.51999-.07481-.65493-.22457-.13491-.14976-.20236-.3772-.20236-.68232v-1.70156c0-.14612.0408-.28102.12241-.40473.0816-.12363.17084-.18457.26765-.18268h.05124Z"/><path class="cls-1" d="M57.77254,41.36608c.04535.0559.06805.12188.06805.19809,0,.07614-.02742.1396-.08223.19039-.05481.05071-.12111.07698-.19893.07866-.07782,0-.14503-.0262-.20159-.07866-.05481-.05415-.08223-.11845-.08223-.19298,0-.07446.02928-.1396.08784-.1955.06045-.05583.13239-.08378.21588-.08378s.1479.02795.19322.08378ZM58.38587,44.57013c0,.08553-.02343.152-.07026.19949-.04686.04742-.10962.07019-.18832.06836-.52282,0-.7842-.25861-.7842-.77576v-1.86638h.13375c.08539,0,.15939.0318.22201.09533s.09393.14857.09393.25511v1.44673c0,.28789.13459.43176.40375.43176h.18933v.14535Z"/><path class="cls-1" d="M61.05333,44.8155h-.16538c-.18958,0-.28435-.09554-.28435-.2867v-1.20304c0-.26982-.05236-.46279-.15704-.579-.10472-.11621-.2749-.17519-.51046-.17708-.40952,0-.6142.25203-.6142.75608v1.48974h-.16797c-.08539,0-.15372-.0262-.20492-.07852-.05124-.05232-.07684-.12804-.07684-.22723v-1.19485c0-.36088.10206-.64421.30617-.84987.20415-.20573.47355-.30855.80826-.30855.33465,0,.59616.09631.78438.28887.18825.19263.28236.48066.28236.86395v1.5062Z"/><path class="cls-1" d="M62.86066,44.46976c-.32981,0-.59777-.09449-.80388-.28362-.20615-.18716-.30918-.44879-.30918-.7848,0-.33608.10773-.62845.32326-.87726.21546-.2488.52465-.37321.92755-.37321.30957,0,.55519.09463.73674.2839s.27234.46476.27234.82633v.71958l.02248.46097c-.00189.38792-.11824.68302-.34897.88538-.23077.20236-.53063.3026-.89957.30078-.22135,0-.41432-.04875-.57893-.14619s-.24691-.22394-.24691-.37944v-.17708h.03653c.19862.19298.47687.2895.83481.2895.2211.00189.40287-.06164.54531-.19046.1424-.12888.21361-.31549.21361-.56002l-.02809-.344v-.13358c-.13491.32214-.36729.48318-.6971.48318ZM63.55776,43.36772c0-.53578-.20989-.80364-.62961-.80364-.21742,0-.39352.07558-.52843.22681-.13494.15123-.2024.33041-.2024.5376,0,.48542.23049.72806.69146.72806.20611,0,.36914-.06346.4891-.19039.11988-.12692.17988-.29307.17988-.49845Z"/><path class="cls-1" d="M68.2209,42.10871h-.03937c-.16867-.25861-.44598-.38792-.83201-.38792s-.6943.11831-.92475.35492c-.23052.23662-.34484.54174-.34295.91536,0,.46195.1181.81786.35415,1.06757.23613.24971.5369.37461.90226.37461.36543,0,.64653-.11432.84329-.34295h.02809v.14338c0,.17238-.08623.32137-.25861.44689s-.40291.18737-.69143.18548c-.46476,0-.85638-.1686-1.17495-.50594-.31857-.33727-.47687-.75888-.47498-1.26482,0-.50594.1555-.93322.46658-1.28177.311-.35037.72701-.52563,1.24801-.52563.26793-.00182.48437.06465.64926.19963.16489.13491.2474.28292.2474.44409v.17708Z"/><path class="cls-1" d="M70.95011,43.48743c0,.41159-.10577.74431-.31745.99809s-.49326.38056-.8449.38056-.64302-.12307-.87432-.36935c-.23129-.24621-.34687-.57424-.34687-.98401s.10906-.73829.32726-.98548c.21994-.24719.50966-.37075.86871-.37075s.64639.11894.86171.35674c.21728.23788.32585.56261.32585.9742ZM70.50041,43.55474c0-.65479-.26281-.98317-.7883-.98506-.20958,0-.37783.0795-.50503.23858s-.19081.38266-.19081.67076c0,.28817.07103.51918.21322.69318.14205.17406.33006.26106.56387.26106s.41061-.08041.53025-.24138c.11978-.1609.17862-.37328.1768-.63714Z"/><path class="cls-1" d="M75.36868,44.8155h-.15459c-.08812,0-.15928-.029-.21357-.08714-.05443-.05807-.08153-.13862-.08153-.24173v-1.15527c0-.50594-.18744-.75979-.56219-.76168-.21546.00189-.37103.06087-.46658.17708s-.14338.30736-.14338.5734v1.49534h-.15172c-.19865,0-.29798-.10962-.29798-.32887v-1.15527c0-.23795-.05155-.42441-.15459-.55932-.10311-.13491-.24733-.20236-.43288-.20236-.39163,0-.58741.25392-.58741.76168v1.48414h-.14338c-.20425,0-.30638-.10934-.30638-.32817v-1.21173c-.00189-.31409.09274-.57963.2839-.79656.19116-.21504.46279-.32256.81513-.32256.35226,0,.61178.15557.77863.46658.08805-.14072.20517-.25364.35128-.33881.14619-.08518.30358-.12776.47225-.12776.66334,0,.995.38897.995,1.16683v1.49219Z"/><path class="cls-1" d="M77.41935,42.15648c.29868,0,.55995.12251.78396.36746s.33692.5694.33881.97336c0,.40389-.11109.73303-.33328.9873-.22219.25434-.50125.38147-.83733.38147-.15214,0-.29952-.04259-.4422-.12769-.14268-.08518-.24684-.19347-.31255-.32494v1.23687h-.15823c-.19249,0-.28964-.11319-.29153-.33958v-1.72867c0-.45271.10647-.8035.31941-1.0523.21294-.24887.52387-.37328.93294-.37328ZM77.3912,44.45288c.46749,0,.70123-.3082.70123-.92468,0-.31388-.06858-.55252-.20559-.71608-.13897-.16167-.3248-.24243-.55757-.24243-.23283,0-.41117.07985-.53508.23963-.12398.15978-.18681.39002-.1887.69065,0,.30078.0732.5348.21966.702.1464.16734.33517.25091.56604.25091Z"/><path class="cls-1" d="M81.21522,43.95071c0,.27976-.08307.5023-.24915.66754s-.40767.24782-.7247.24782c-.31072,0-.56429-.07383-.76077-.22163-.19466-.14773-.29195-.35205-.29195-.61297.00182-.26092.10773-.46812.31759-.62166.20986-.1534.51064-.22926.90226-.22737h.35135v-.11375c0-.17974-.04889-.31016-.14654-.39135-.09771-.08118-.25455-.12076-.47057-.11894-.38007,0-.65619.11712-.82844.35135h-.02795v-.21357c0-.13498.08216-.2605.24649-.37671.16419-.11614.39667-.17427.69724-.17427s.53985.08455.71804.2535c.1761.16902.26512.41313.26709.73233v.81968ZM80.76546,43.91884v-.32326h-.3578c-.51099,0-.76743.14997-.76932.44977,0,.11432.0526.21084.15781.2895.10521.07873.24985.11803.43394.11803.18219,0,.31745-.04119.40578-.12363.08644-.08244.12959-.21924.12959-.4104Z"/><path class="cls-1" d="M84.17502,44.8155h-.16545c-.18954,0-.28432-.09554-.28432-.2867v-1.20304c0-.26982-.05232-.46279-.15704-.579s-.27486-.17519-.5105-.17708c-.40949,0-.61416.25203-.61416.75608v1.48974h-.16797c-.08539,0-.15368-.0262-.20488-.07852-.05127-.05232-.07691-.12804-.07691-.22723v-1.19485c0-.36088.10206-.64421.30624-.84987.20411-.20573.47351-.30855.80819-.30855s.59616.09631.78445.28887c.18821.19263.28236.48066.28236.86395v1.5062Z"/><path class="cls-1" d="M85.16064,45.6784c-.09652-.00203-.17785-.02676-.24411-.07432-.06619-.04756-.09827-.10206-.09624-.16349v-.1754h.21644c.11733,0,.22029-.03719.30883-.11158.08658-.07439.20292-.24278.34918-.50503-.22632-.33482-.43632-.72547-.62978-1.17194-.19354-.44647-.33083-.8734-.41208-1.28079h.26905c.15144,0,.25006.08742.29587.26225.14212.63994.37783,1.23057.70698,1.77189.14591-.24733.29454-.57844.44605-.99332.1534-.41488.25154-.76175.29454-1.04082h.17708c.13869,0,.20804.06745.20804.20236-.00196.05996-.02178.15179-.05961.27549-.11922.45348-.3821,1.08494-.78886,1.89447-.21189.42161-.39156.71202-.53914.8713s-.315.23893-.50223.23893Z"/></svg>