<?xml version="1.0" encoding="UTF-8"?><svg id="Layer_1" xmlns="http://www.w3.org/2000/svg" viewBox="0 0 92.92207 48.28543"><defs><style>.cls-1{fill:#403f3f;}</style></defs><path class="cls-1" d="M57.73237,36.65878v2.99557l1.29338-1.12951c.64971-.56692,2.84756-.21392,2.84756.73304v1.45373h1.27752c.66172,0,.29513-1.64089.39496-2.05232.02302-.09487.58021-.33988.70636-.41462v1.98236c0,.64429,1.53542.61686,1.80321.30543.32788-.38132.03488-2.74583.13138-3.37438l.70856-.4112v3.48015c0,.64429,1.53542.61686,1.80321.30543.32788-.38132.03488-2.74583.13138-3.37438l.70856-.4112v3.92067c0,.02561-.21633.38697-.26887.43597-.34547.32223-1.73849.25778-2.24459.22783-.54832-.03244-.49558-.02736-1.05027.00171-.79677.04176-1.34386-.09672-2.0459-.16215-.11532-.01075-.35084.14922-.59726.16215-2.57102.13492-5.26276-.10972-7.84687-.00573-.28036.03898-.23367.38934-.35988.60928-.18289.3187-1.24126,1.27719-1.53294.97715-.21858-.22484.41856-.40974.52313-.48955.33895-.25871.49885-.67446.44602-1.09621-1.36863.27041-2.40784-.6325-1.89232-2.02363.1565-.42231.76554-1.05971,1.2311-1.05971h1.45373v2.46694h1.674v-3.56825c0-.03753.51763-.35071.57385-.48384l.13099-.00074ZM54.56059,38.68519c-1.64032-.33434-1.77487,2.44627,0,2.02642v-2.02642ZM57.82048,40.71161h3.21583c.19741,0,.31825-1.34648-.33529-1.6912-1.10943-.58518-2.50108.70504-2.88054,1.6912Z"/><path class="cls-1" d="M33.41537,40.71161c-1.46956-3.18181,3.97678-3.16501,2.46694,0h2.73126c-.57538-.74943-1.82914-1.05856-.66291-2.02854.91181-.75837,3.18926-.45312,3.20084.76859.00182.19235-.81893.88464-1.01554,1.05844-.05971.05278-.16782-.00625-.11271.20151h2.6872c.0972,0,.28283-.36043.3033-.48965.14444-.91179-.1088-2.11849.01916-3.06452l.69076-.41056v3.92067c0,.3892-.82818.77336-1.19046.74783-3.36013-.21457-7.08125.28933-10.39847.00417-.60489-.052-1.13598-.19353-1.25425-.86054-.10061-.56743-.09707-2.64756-.02523-3.24453.04806-.39934.41652-.37363.70991-.56761v3.56825c0,.04604.27214.39647.30837.39647h1.54184ZM35.23739,39.06538c-.18002-.19686-.55265-.25191-.80673-.20194-.79213.15577-.87906,2.10159.43611,1.84648.6036-.11709.75078-1.22881.37061-1.64453ZM39.12314,38.88208c-.2167.02322-.90385.26269-.8553.5398.02449.13981.87148.82598,1.00654,1.02402.14961-.20024,1.06465-.83438,1.07942-1.01052.0367-.4378-.91108-.58755-1.23066-.5533Z"/><path class="cls-1" d="M46.79584,31.58439c.09786.53854,1.71875.49521,2.07008.28567.57875-.34518.08901-1.91494.28978-2.49834.07947-.23092.6699-.37026.87437-.51969v2.89965c0,.07345,1.03549.46667,1.34513-.04886.51907-.86419-.6533-3.01434.99689-3.18536v3.23423c0,.06488.92493.40564,1.23361.06222.49021-.54538.03718-2.50072.21181-3.22172.0191-.07885.73303-.39954.89661-.4093v3.40151c0,.11598.27436.39034.39034.39034h1.61711c-.47012-.94342-.26304-2.15367.61242-2.78909.10837-.07866.59047-.33361.67012-.33361h1.89593c.01183,0,.16729.15546.16729.16729v2.34203c0,.32184-.39022.92296-.67472,1.10968-.73744.48399-3.14638.47727-4.06323.394-.34175-.03104-.94703-.28916-1.11696-.28989-.17668-.00076-.52828.25293-.8734.25105-.64478-.0035-1.07012-.51235-1.1342-.51233-.04599.00002-.32389.38803-.77773.4435-.89446.10932-1.4449-.42904-1.56546-.42787-.06321.00062-.2635.27499-.4188.34101-.83026.35294-3.3444.43814-3.53282-.7579-.11785-.74811-.10658-3.45851-.01278-4.23801.06083-.5055.52724-.47295.89862-.71849v4.62829ZM59.06359,31.36134c.08391-.38784,0-1.31616,0-1.7844,0-.1506-.35823-.17664-.49707-.17248-1.75315.05257-1.46084,3.2009.04982,2.51233.10748-.04899.42507-.45291.44726-.55546Z"/><path class="cls-1" d="M20.02983,29.40965v2.06321c0,.11207.3898.50186.50186.50186h1.95169c-.73733-1.59461.02001-3.45097,2.01275-3.07156.42055.08007,1.36595.4171.98717.94271-.20067.14758-2.00905-.89882-2.30454.53707-.4618,2.24399,1.79577,1.29633,2.29805,1.61005.04121.02574.46797.87393.18503.87393h-5.13015c-.17692,0-.81473-.30972-.89379-.30412-.10617.00752-.78295.77878-1.67106.75894-.79327-.01772-1.00784-.60111-1.22203-.63325-.1879-.02819-.63544.16376-.89892.17633-.96407.04599-2.36401.04384-2.51063-1.16592-.15365-1.26771.11999-2.82744.00262-4.12988.06654-.35336.61469-.42048.89266-.61293v4.51676c0,.64262,2.02843.69926,2.20913.20168.15801-.43512.06922-1.00691.37265-1.52328.60273-1.02571,2.21155-1.08265,3.21752-.74162ZM19.13763,29.96728c-1.33039-.4878-1.92523.73104-1.62032,1.89934.31106,1.19185,1.62032.43787,1.62032.2754v-2.17474Z"/><path class="cls-1" d="M67.42797,29.6327c.6206-1.00273,1.66505-1.65119,2.34099-2.62188l1.00422.00051c-.35889.56879-1.01097,1.00495-1.39424,1.50537-.08608.1124-.21512.14069-.16657.33532h2.17474c.54268,0,1.61711.81995,1.61711,1.39406v2.45355c0,.01183-.15546.16729-.16729.16729h-6.57998c-.36208,0-.8303-.38083-1.0287-.42416-.52737-.11519-1.11631.49214-2.00547.00116-.90508-.49977-.95133-2.28536-.26-2.98269.8785-.88612,1.96388-.34889,2.90383-1.05531v2.95541c0,.08913.30232.61339.39034.61339h5.74354v-1.72864c0-.16234-.74585-.61339-.94796-.61339h-3.62456ZM64.97442,29.52117c-1.73047-.57225-2.15377,2.29197-.72333,2.3496.08278.00334.72333-.08245.72333-.1191v-2.2305Z"/><path class="cls-1" d="M82.92995,28.18287v3.84761c0,.43594-.91394.79285-1.30153.79585-.52591.00407-1.14272-.49746-1.20895-.49686-.06342.00058-.26738.2769-.41764.34227-.28434.1237-.92508.13001-1.2307.06006-.2822-.06459-.51821-.44282-.67683-.41439-.09604.01721-.26784.27696-.43533.35299-.50785.23053-1.46924.22183-2.03321.19625-.14882-.00675-.55653-.16231-.61256-.11085-.06935.0637-.23336,1.00517-.8912,1.50771-.521.398-1.92938.77052-1.11121.11554.76081-.60906,1.01005-.47964,1.11266-1.67545.06713-.78229-.17711-2.77696.01385-3.3319.07946-.23091.66989-.37025.87437-.51969v2.73236c0,.49777,1.94579.51062,2.20406.25237.34303-.34302-.01803-1.95955.15579-2.46504.06676-.19415.9859-.65958.9859-.3524v2.6766c0,.24514,1.05487.4446,1.28377.05707.24601-.41649-.11706-2.16503.07235-2.71584.06676-.19415.9859-.65958.9859-.3524v3.01118c0,.22954,1.01318.44385,1.23565.09309.3267-.51512-.06814-2.50982.09824-3.19683.0191-.07885.73304-.39955.89661-.4093Z"/><path class="cls-1" d="M36.64649,29.52176c.0954.08897-.89792,1.87865.2519,2.36892.35021.14933,3.62006.14831,4.14341.07355.23856-.03408.66292-.11513.62332-.43502-.81249.0654-1.85716.0339-1.99939-.95576-.20612-1.43422.88597-2.37691,2.22383-1.77807.93292.41758.86915,1.44944.77859,2.34163-.12926,1.27345-.87812,1.6276-2.06365,1.72823-.93785.0796-3.80111.14629-4.46027-.44345-.73978-.66188-.95737-3.17616.50225-2.90003ZM41.76153,30.84339c.16275-.25918.06795-1.45823-.42774-1.61274-.79308-.24721-.98812,1.07012-.68075,1.55461.15835.24959,1.00543.22227,1.10849.05814Z"/><path class="cls-1" d="M26.0586,39.83056c-.2539-.07889-.04439-.85738.0176-1.03962.33535-.98597,1.28458-1.18065,2.22905-1.07402-.1871.61664-.28024.35724-.72849.45989-.4826.11052-.82535.54834-.85737,1.03701h1.58589c.15424,1.73546-.91632,2.32106-2.5096,2.20131-1.14094-.08575-1.88567-.55003-2.04913-1.73954-.10887-.79222-.14489-1.17343.6821-1.43093v1.36563c0,.03405.20939.56815.24612.63494.53785.97804,2.86541.99306,2.92567-.41467-.39591-.07581-1.21003.1031-1.54184,0Z"/><path class="cls-1" d="M48.83376,40.71161h1.71805c.71793,0,.22857-1.80998.41077-2.1006.02285-.03645.65749-.30613.77865-.36634v2.15857c0,.08107-.18684.53316-.26125.6198-.4841.56364-2.02932.19568-2.72571.31418.21722.57314-1.35083,1.91723-1.68217,1.57656-.20364-.20938.53195-.48093.69149-.6732.57945-.69831.12565-2.67322.29131-3.58535.06033-.14193.77886-.52952.77886-.2784v2.33478Z"/><path class="cls-1" d="M27.05591,32.86693c-.03332-.03169.17707-.8922.22305-.8922h2.00745l-2.11895-3.67921c.24945.0462.79764-.08419.98105.02247.30653.17826,1.37869,2.84787,1.91857,3.21064v-4.07066c0-.10746.75157-.41409.8922-.50186v4.85134c0,.40506-.87543,1.05949-1.28254,1.05949h-2.62084Z"/><path class="cls-1" d="M44.78839,28.85202v3.73609c0,.93417-1.19795,2.27931-2.17369,2.1759-.09509-.00011-.07602-.22772-.05914-.28026.02495-.07763.98126-.3057,1.17668-1.05587.27638-1.06093-.20607-3.02205.07346-3.94144.06583-.21651.71958-.61355.98269-.63442Z"/><path class="cls-1" d="M45.30956,41.41645c-.20316-.01854-.61578.08964-.69252-.14447.09052-1.23971-.16249-2.75201-.01739-3.95749.04807-.39937.41659-.37365.70991-.56761v4.66957Z"/><path class="cls-1" d="M32.96674,32.86693c-.25716-.02347-.77947.11347-.8766-.18287.11868-.75922-.21576-4.9148.0025-5.26424.02621-.04196.7536-.29161.8741-.46372v5.91083Z"/><path class="cls-1" d="M29.97928,41.3724c-.08967.6363-.76441,1.36706-1.38593,1.52156-1.01262.25173.24026-.53005.3336-.63558.19132-.2163.31718-.59708.34806-.88541.06993-.65281-.14824-2.24769.01351-2.71775.06277-.18242.52921-.2925.69076-.41056-.098.97025.13221,2.18962,0,3.12773Z"/><path class="cls-1" d="M12.11156,33.03421c-.12803.76813-1.25076,1.81615-2.06217,1.7298-.25833-.40157.42441-.45697.71267-.73732.89335-.86884.25607-3.45833.47513-4.65498l.87437-.51969c-.14887,1.2614.20045,2.9796,0,4.18219Z"/><path class="cls-1" d="M63.17362,36.85661c.58834.59298-.69851,1.24254-.76851.36816-.03712-.46361.51519-.62348.76851-.36816Z"/><path class="cls-1" d="M63.65702,37.5185c-.45395-.45211.4275-1.10085.72781-.59648.30723.51598-.36347.95934-.72781.59648Z"/><path class="cls-1" d="M34.01022,36.76066c.60952-.11337.75204.78203.14881.86997-.58362.08508-.69031-.76924-.14881-.86997Z"/><path class="cls-1" d="M52.56484,26.97283c.99592-.26663.92535,1.4957-.07877,1.04087-.4931-.22335-.39417-.91426.07877-1.04087Z"/><path class="cls-1" d="M51.11501,26.97283c.99592-.26663.92535,1.4957-.07877,1.04087-.4931-.22335-.39417-.91426.07877-1.04087Z"/><path class="cls-1" d="M65.05351,26.7479c.98918-.27685.93321,1.50343-.07648,1.04287-.49545-.226-.33381-.92803.07648-1.04287Z"/><path class="cls-1" d="M49.86081,42.05173c.47526-.04297.70941.77248.15766.86274-.77838.12734-.70096-.81362-.15766-.86274Z"/><path class="cls-1" d="M51.00618,42.05173c.47526-.04297.70941.77248.15766.86274-.77838.12734-.70096-.81362-.15766-.86274Z"/><path class="cls-1" d="M35.06378,36.75861c.60374-.17053.76292.72197.31546.85421-.63274.187-.81638-.71273-.31546-.85421Z"/><path class="cls-1" d="M81.22956,27.09504c.32956.32812.12944.99251-.46681.96948-1.05482-.04075-.22828-1.66153.46681-.96948Z"/><path class="cls-1" d="M79.77973,27.09504c.32956.32812.12944.99251-.46681.96948-1.05482-.04075-.22828-1.66153.46681-.96948Z"/><path class="cls-1" d="M63.71712,26.7515c.74336-.11226.81004,1.01326.19095,1.09983-.76268.10665-.94064-.98662-.19095-1.09983Z"/><path class="cls-1" d="M40.96503,26.97187c.93781-.25497.97212,1.36797-.00077,1.08045-.43366-.12816-.41947-.96619.00077-1.08045Z"/><path class="cls-1" d="M79.88558,25.63997c.97347-.29356,1.00085,1.0409.20043,1.041-.70752.0001-.63943-.90862-.20043-1.041Z"/><path class="cls-1" d="M25.44382,42.06886c.42633.02054.56904.70335.15631.82792-.80843.24399-.80182-.85902-.15631-.82792Z"/><path class="cls-1" d="M26.58918,42.06886c.42633.02054.56904.70335.15631.82792-.80843.24399-.80182-.85902-.15631-.82792Z"/><path class="cls-1" d="M51.78143,25.6399c1.0013-.30346,1.09908,1.15008.09413.98115-.52365-.08803-.53744-.8468-.09413-.98115Z"/><path class="cls-1" d="M29.50891,33.20209c.09963.45847-.66772-.01622-.66616.50155.00097.3212.92181-.04063.77765.38948h-1.33714s.44329-.83841.44329-.83841l.78236-.05262Z"/><path class="cls-1" d="M52.89813,6.28443h.11553l7.7874,6.07464c.03688,3.4172.02122,6.83085-.04697,10.24095h-5.19879c-.0748-2.64875-.09732-5.30286-.06756-7.96233-.06031-.14165-2.40643-1.88851-2.56733-1.92528-.16197-.03701-2.31874,1.66764-2.56517,1.95393-.00356,2.64828-.04165,5.29284-.11425,7.93368h-5.19879c-.07907-2.64922-.10624-5.30386-.08149-7.96391-.76627-.71437-1.61168-1.3601-2.46014-1.99496h-.11553l-2.46112,2.00972c.02495,2.65342-.00189,5.30313-.08051,7.94915h-5.19879c-.07833-2.64715-.10468-5.29965-.07904-7.95749-.89521-.6792-1.75459-1.38164-2.57812-2.10733v-6.25078l5.26416,3.96337,5.18438-3.98313,5.21172,3.96157,5.25044-3.9418Z"/></svg>