<?xml version="1.0" encoding="UTF-8"?><svg id="Layer_1" xmlns="http://www.w3.org/2000/svg" viewBox="0 0 92.92207 48.28543"><defs><style>.cls-1{fill:#403f3f;}</style></defs><path class="cls-1" d="M45.51393,19.09924c.41135.38913.96603.6978,1.66351.92575.69761.22801,1.45752.34211,2.28049.34211h.72453c.59032,0,1.22283-.08053,1.89807-.24153.67524-.16087,1.26556-.41122,1.77082-.75117.50538-.33983.79378-.75574.86543-1.24762h-4.49413v-.38901h4.88313v4.77572h-.38899v-2.77687c-.25035.58141-.60598,1.09785-1.06663,1.54949-.46064.45158-.99497.80264-1.60311,1.05299-.60826.25023-1.24318.37574-1.9049.37574h-.63063c-.88528,0-1.70813-.21246-2.46842-.63732-.76017-.42468-1.36615-1.01294-1.81757-1.76411-.45167-.75123-.67764-1.58732-.67764-2.50862,0-.91223.22357-1.73937.67107-2.48184.44687-.74223,1.05071-1.3258,1.81088-1.7506.76004-.42474,1.58743-.63732,2.48169-.63732h.63063c.74223,0,1.45095.1589,2.12645.47633.67499.31749,1.2519.76018,1.7305,1.32802.47821.56802.80262,1.20979.97261,1.92511l-.6171.1207c-.367-.44701-.9256-.80924-1.67691-1.08662-.75132-.27701-1.58301-.41579-2.49522-.41579h-.72453c-.82297,0-1.58288.11397-2.28049.34199-.69748.22807-1.25216.53661-1.66351.92568-.41162.38901-.61711.81628-.61711,1.28125,0,.45596.2055.8786.61711,1.26755"/><polygon class="cls-1" points="57.30599 22.51349 56.91699 22.51349 56.91699 13.12287 59.26459 13.12287 66.34797 21.37319 66.34797 13.12287 66.73697 13.12287 66.73697 22.51349 64.38911 22.51349 57.30599 14.26317 57.30599 22.51349"/><path class="cls-1" d="M75.18833,13.12293l4.40011,9.39056h-.4293l-1.56962-3.35384h-5.32571l-1.60969,3.35384h-2.46842l4.53421-9.39056h2.46842ZM72.45174,18.77065h4.9501l-2.44162-5.19169-2.50848,5.19169Z"/><path class="cls-1" d="M32.93768,29.61758c-.69875.07029-1.32534.24202-1.8795.51539-.41781.20678-.69092.40406-.81982.59135-.01163.01956.28093.0859.87845.19913.63227.12477.95618.28299.97185.47423.01946.28102-.07027.63442-.26932,1.05978-.68307.88619-2.18811,1.6025-4.51461,2.14905-1.90869.4488-3.7202.67336-5.43376.67336-1.18682,0-2.2173-.07812-3.09172-.23418-1.04615-.18741-2.10407-.51736-3.17348-.98968-.97602-.73383-1.66503-1.39559-2.06705-1.9849-.13674-.19913-.20511-.32792-.20511-.38654,0-.02734.01378-.04097.04107-.04097.07026,0,.23417.08781.49174.26349,2.3227,1.56936,4.92256,2.35392,7.79943,2.35392,2.20189,0,4.23165-.21468,6.08979-.64399,1.74882-.40215,3.05848-.92334,3.9291-1.56344-.08215-.17568-.30862-.30268-.67928-.38068-.54267-.10941-.82387-.16785-.84333-.17568-.30053-.1913-.45066-.35914-.45066-.5036,0-.03511.02919-.12687.0877-.27522.14053-.34353.5797-.76703,1.31762-1.27063.29635-.20283.64983-.39024,1.05968-.56216.36321-.1481.61685-.22832.76118-.23998v.97196Z"/><rect class="cls-1" x="32.93767" y="28.64561" width="1.38182" height=".97196"/><rect class="cls-1" x="34.31949" y="28.64561" width="1.38182" height=".97196"/><rect class="cls-1" x="35.70156" y="28.64561" width="1.38182" height=".97196"/><rect class="cls-1" x="37.08339" y="28.64561" width="1.38182" height=".97196"/><rect class="cls-1" x="38.46521" y="28.64561" width="1.38182" height=".97196"/><rect class="cls-1" x="39.84702" y="28.64561" width="1.38182" height=".97196"/><rect class="cls-1" x="41.2291" y="28.64561" width="1.38182" height=".97196"/><rect class="cls-1" x="42.61092" y="28.64561" width="1.38182" height=".97196"/><rect class="cls-1" x="43.99274" y="28.64561" width="1.38182" height=".97196"/><rect class="cls-1" x="45.37456" y="28.64561" width="1.38182" height=".97196"/><rect class="cls-1" x="46.75663" y="28.64561" width="1.38182" height=".97196"/><path class="cls-1" d="M50.77917,29.61764c-.08189,0-.21257-.03314-.39228-.0996-.22647-.08571-.41377-.1892-.56201-.31027-.05864-.05066-.17187-.24591-.3397-.58567-.24985.36704-.38849.56432-.41553.59147-.25781.26942-.56794.40406-.93115.40406v-.97203c.27727,0,.53875-.0527.78468-.1581.15595-.06634.31216-.24591.46823-.53871.14079-.26152.25377-.39228.3397-.39228.0273,0,.05864.00969.09377.02931,0,.01956-.0038.07226-.01162.1581-.00784.08584-.01188.1581-.01188.21672.01188.09355.13484.22826.36902.40394.24593.18741.4489.28102.60877.28102v.97203ZM49.61409,26.32101c-.08189.25381-.13081.40203-.14648.44504-.03892.08985-.08189.15427-.1289.19321-.01163.00784-.0292.01172-.05258.01172-.12486,0-.28486-.039-.48024-.11712-.22635-.08972-.33933-.18352-.33933-.28096,0-.0274.01162-.05764.03514-.09083.02325-.03314.0896-.17655.19879-.43048.0743-.16772.15026-.25171.22861-.25171.02704,0,.0546.00592.08189.01765.14053.06634.28283.13261.42741.19895.12486.07029.18729.14847.18729.23431,0,.01956-.0038.04295-.01162.07022"/><rect class="cls-1" x="50.77925" y="28.64561" width="1.38182" height=".97196"/><rect class="cls-1" x="52.16107" y="28.64561" width="1.38182" height=".97196"/><rect class="cls-1" x="53.54315" y="28.64561" width="1.38182" height=".97196"/><rect class="cls-1" x="54.92497" y="28.64561" width="1.38182" height=".97196"/><rect class="cls-1" x="56.30678" y="28.64561" width="1.38182" height=".97196"/><rect class="cls-1" x="57.68861" y="28.64561" width="1.38182" height=".97196"/><rect class="cls-1" x="59.07068" y="28.64561" width="1.38182" height=".97196"/><rect class="cls-1" x="60.4525" y="28.64561" width="1.38182" height=".97196"/><rect class="cls-1" x="61.83433" y="28.64561" width="1.38182" height=".97196"/><path class="cls-1" d="M66.75279,29.61758c-.42932,0-.77092-.07405-1.02456-.2224-.1016-.0585-.33591-.25566-.70279-.59135-.4489.32002-.72604.50934-.83144.56796-.30458.1639-.63038.24578-.97792.24578v-.97196c.6324,0,1.10873-.09552,1.42884-.28688-.242-.24973-.42171-.37469-.53874-.37469-.08999,0-.25567.04091-.49768.12286.11323-.45676.22635-.77672.33958-.96024.20296-.23029.53078-.3455.9836-.3455.21484,0,.47821.05659.79062.16982.42147.1523.63228.34353.63228.57376,0,.14847-.05839.29281-.17567.43338-.11703.12095-.23431.24011-.35121.35711.28474.19136.59335.29879.9251.32205v.9603ZM64.85573,24.75757c-.10541.36309-.19728.5758-.27539.63825-.01163.00784-.02729.01172-.04676.01172-.12499,0-.28309-.039-.47417-.11712-.22269-.08972-.3339-.1834-.3339-.28096,0-.02727.00973-.05474.02945-.08201.03109-.04295.09744-.18741.19879-.43325.07052-.17574.14458-.26362.22269-.26362.02729,0,.05458.00796.08189.02351.14052.07029.28309.13866.42741.20499.12107.07016.18161.14625.18161.22826,0,.02339-.0038.0469-.01162.07022"/><rect class="cls-1" x="66.75284" y="28.64561" width="1.38182" height=".97196"/><rect class="cls-1" x="68.13467" y="28.64561" width="1.38182" height=".97196"/><rect class="cls-1" x="69.51673" y="28.64561" width="1.38182" height=".97196"/><rect class="cls-1" x="70.89856" y="28.64561" width="1.38182" height=".97196"/><rect class="cls-1" x="72.28038" y="28.64561" width="1.38182" height=".97196"/><rect class="cls-1" x="73.66219" y="28.64561" width="1.38182" height=".97196"/><path class="cls-1" d="M78.01891,27.96065c0,.17562-.05574.36877-.16681.57956-.11135.21092-.23141.34155-.36031.39228-.17945-.01166-.34754-.03301-.50335-.06436-.36726-.07405-.6482-.19117-.84333-.3513-.05864.05079-.18728.25769-.38646.62066-.1404.25387-.37875.41375-.71441.48009v-.97196c.32403-.04289.56023-.14828.70847-.31619.35134-.40203.53888-.61282.56213-.63245.03122.00784.06837.00784.11121,0,.08594-.26535.2089-.49262.36891-.68206.16024-.18926.32011-.28583.4801-.28978.26943-.00389.47051.14828.60334.45664.09352.22647.14052.48589.14052.77888M77.42153,28.03668c-.04677-.22252-.07811-.34736-.09378-.37482-.06243-.12866-.17567-.1834-.33932-.1639-.08594.00784-.16026.04677-.22269.11712-.03513.04677-.07027.09176-.1054.13459.23026.16013.4839.25584.76119.287"/><polygon class="cls-1" points="22.62761 14.38394 17.66397 22.51349 15.04794 22.51349 20.80308 13.12287 23.01659 13.12287 23.01659 21.21231 27.98022 13.12287 30.19374 13.12287 30.19374 22.51349 29.80475 22.51349 29.80475 14.38394 24.84112 22.51349 22.62761 22.51349 22.62761 14.38394"/><path class="cls-1" d="M38.80629,13.12293l4.40011,9.39056h-.4293l-1.56962-3.35384h-5.32571l-1.60968,3.35384h-2.46842l4.5342-9.39056h2.46843ZM36.0697,18.77065h4.9501l-2.44162-5.19169-2.50848,5.19169Z"/></svg>