<?xml version="1.0" encoding="UTF-8"?><svg id="Layer_1" xmlns="http://www.w3.org/2000/svg" viewBox="0 0 92.92207 48.28543"><defs><style>.cls-1{fill:#4f1e27;}</style></defs><path class="cls-1" d="M60.43504,19.55445v12.83403c-.24596,1.26614-1.18853,2.13241-2.48575,2.23827l-22.93902.00332c-1.10268.04154-2.53704-1.15063-2.53704-2.26889v-12.80673l11.52794,7.6685c1.4932,1.03374,3.4109,1.03491,4.90593,0l11.52794-7.6685Z"/><path class="cls-1" d="M60.43504,15.89538c.02007.16462.02083.54627,0,.70997-.09108.71581-.64624,1.41457-1.2389,1.79212-3.75659,2.29406-7.33851,5.16778-11.10824,7.40554-1.07818.64002-1.8482.80495-2.99473.1641-3.96807-2.67969-8.00021-5.27355-11.93155-8.00216-1.49853-1.66376-.39966-4.13858,1.79454-4.31064l23.04773.00282c1.17245.09375,2.28633,1.05065,2.43114,2.23826Z"/></svg>