<?xml version="1.0" encoding="UTF-8"?><svg id="Layer_1" xmlns="http://www.w3.org/2000/svg" viewBox="0 0 92.92207 48.28543"><defs><style>.cls-1{fill:#403f3f;}</style></defs><rect class="cls-1" x="6.76792" y="18.42009" width="1.29048" height="1.17866"/><rect class="cls-1" x="8.44062" y="18.42009" width="1.29008" height="1.17866"/><rect class="cls-1" x="9.69266" y="24.63216" width="1.29009" height="1.17862"/><rect class="cls-1" x="11.42112" y="24.63216" width="1.29013" height="1.17862"/><path class="cls-1" d="M11.67578,22.62511h-1.44336v-2.3575h-1.17861v.14341c-.25466-.10072-.52566-.15137-.81231-.15137-.62678,0-1.16263.22289-1.60882.66908-.44609.4461-.66885.98247-.66885,1.60872v.08766c0,.3982.1272.78836.38222,1.17084h6.61983v-3.5363h-1.29009v2.36545ZM9.0538,22.62511h-1.90341l-.00796-.08766c0-.7327.36626-1.09891,1.09905-1.09891.32921,0,.59999.12231.81231.36622v.82035Z"/><path class="cls-1" d="M14.94107,23.54093c0,.2181-.15665.40638-.46999.56556-.31322.15932-.65287.23373-1.01922.22303l.46974,1.1628.16727.00791c.67966.03185,1.21198-.12204,1.59699-.46169.38497-.33987.57755-.80485.57755-1.39396v-3.38493h-1.32233v3.28128Z"/><rect class="cls-1" x="21.27274" y="18.42009" width="1.29008" height="1.17866"/><rect class="cls-1" x="19.60008" y="18.42009" width="1.29044" height="1.17866"/><path class="cls-1" d="M28.32129,22.62511h-3.01858c-.01071-.07442-.01586-.13524-.01586-.183,0-.62665.31597-.94009.94768-.94009.23911,0,.44868.07997.62906.23902l.62158-1.07523c-.37705-.2655-.79387-.3982-1.25063-.3982-.59986,0-1.11229.21245-1.53697.63722-.42498.42517-.63722.93684-.63722,1.53728v.183h-.82853l.00831-.183c.02092-.57902-.19117-1.09123-.63722-1.53728-.42478-.42477-.93733-.63722-1.53719-.63722-.60537,0-1.12033.21245-1.54497.63722-.44597.44605-.65828.95826-.63728,1.53728l.00831.183h-.83684v-4.20524h-1.15458v5.37608h12.5756v-5.37608h-1.15467v4.20524ZM21.98984,22.62511h-1.85605c-.01056-.08477-.01612-.14595-.01612-.183,0-.6318.31597-.94804.94804-.94804.62655,0,.9395.31623.9395.94804,0,.04776-.00519.10858-.01537.183Z"/><rect class="cls-1" x="30.12113" y="18.41987" width="1.15498" height="5.37608"/><rect class="cls-1" x="35.40921" y="18.89764" width="1.29048" height="1.17839"/><path class="cls-1" d="M37.26498,22.68886c0,.3715-.10475.65459-.31446.84817-.20965.19419-.50576.29078-.8881.29078-.80698,0-1.21012-.40362-1.21012-1.21052,0-.25524.07673-.49128.23062-.70889l-.80435-.81227c-.37705.44037-.56547.94742-.56547,1.52115,0,.64744.22831,1.19981.68472,1.65621.46195.46244,1.01667.69302,1.66461.69302.7646,0,1.34602-.1909,1.74422-.57316.3982-.38234.59733-.95053.59733-1.70451v-2.42125h-1.139v2.42125Z"/><path class="cls-1" d="M41.05607,20.26761h-.44583c-.48847,0-.87232.15274-1.15067.458-.27896.30553-.41837.76344-.41837,1.3741,0,.24417.03981.49079.1195.74052.07975.24959.21224.47111.39799.66508.18602.19379.40123.29065.64518.29065h.76482c-.11161.15945-.30163.28913-.56953.39052-.26825.1005-.54565.14834-.8323.14306l.4696,1.1628.1674.00791c.67978.03185,1.21198-.12204,1.59698-.46191.38497-.33965.57765-.80463.57765-1.39373v-3.38493h-1.32243v.00795ZM41.05607,22.62511c-.38212,0-.6346-.04758-.75637-.14319-.12219-.09556-.18327-.24177-.18327-.43837,0-.19117.06237-.33312.18731-.42579.12453-.09308.37528-.13941.75233-.13941v1.14676Z"/><rect class="cls-1" x="51.80019" y="18.42009" width="1.29022" height="1.17866"/><rect class="cls-1" x="53.52843" y="18.42009" width="1.29008" height="1.17866"/><rect class="cls-1" x="55.60697" y="24.63216" width="1.29013" height="1.17862"/><path class="cls-1" d="M61.36516,20.9047c-.42476-.42477-.93724-.637-1.53719-.637-.60536,0-1.12033.21223-1.54483.637-.42481.42531-.6374.93698-.6374,1.53719,0,.08486.00267.14594.00835.18322h-.82857v-2.35741h-1.16263v2.35741h-1.75226v-2.35741h-1.28999v2.35741h-1.82428v-.17504c0-1.15734-.56258-1.8636-1.68829-2.11861l1.64862-.85221-.62918-1.23455-3.46463,2.01496h-.02369v1.23442l1.98298.00809c.62655,0,.93977.31597.93977.9479,0,.03172-.00556.09041-.01565.17504h-3.87078v-2.36545h-1.32229v3.28115c0,.21809-.15643.40638-.46964.56583-.3133.15932-.65296.2336-1.01958.22276l.47001,1.16267.16735.00831c.64744.03185,1.16267-.10756,1.54487-.41811.38248-.31081.58951-.73936.62163-1.28618h12.44787c.43526.54681,1.00602.82022,1.71224.82022.59995,0,1.11242-.21272,1.53719-.63727.42456-.42451.637-.93706.637-1.53715,0-.60022-.21244-1.11189-.637-1.53719M59.82797,23.38966c-.63193,0-.94803-.3161-.94803-.94777,0-.63185.3161-.94782.94803-.94782.63172,0,.94781.31597.94781.94782,0,.63167-.3161.94777-.94781.94777Z"/><polygon class="cls-1" points="9.36777 27.29595 11.03376 27.29595 11.03376 31.55121 9.92235 31.55121 9.92235 28.42471 9.06766 31.55121 7.92743 31.55121 7.067 28.39033 7.067 31.55121 5.95578 31.55121 5.95578 27.29595 7.62164 27.29595 8.49326 30.37357 9.36777 27.29595"/><path class="cls-1" d="M11.73674,29.73621c0-.45485.08916-.77464.26735-.95861.17807-.18389.48711-.27567.92738-.27567h.40287c.44006,0,.74936.09179.92716.27567.17806.18397.26749.50376.26749.95861v.62039c0,.45716-.08943.77739-.26749.96039-.1778.18286-.48711.27416-.92716.27416h-.40287c-.44028,0-.74931-.0913-.92738-.27416-.1782-.183-.26735-.50323-.26735-.96039v-.62039ZM12.71413,29.80774v.48035c0,.26092.02431.42339.0729.48737.04861.06371.14519.09556.29016.09556h.11698c.14297,0,.23831-.03137.28589-.09432.04763-.06282.07153-.22591.07153-.48861v-.48035c0-.26443-.0239-.42855-.07153-.49163-.04758-.06273-.14292-.0941-.28589-.0941h-.11698c-.14496,0-.24155.03239-.29016.09712-.04859.06473-.0729.22796-.0729.48861Z"/><path class="cls-1" d="M15.21749,27.29595h.9547v1.62058c.06473-.13541.16385-.23831.29709-.30881.13324-.07077.29633-.10578.4888-.10578.34289,0,.59515.09934.75721.2986.16199.19908.2428.51118.2428.93569v.62039c0,.42477-.08006.73683-.23999.93609-.15985.19886-.41131.2986-.75426.2986-.20401,0-.37278-.03719-.50602-.1116-.13347-.07415-.24178-.19317-.32565-.35715l.01146.42868h-.92613v-4.25527ZM16.52357,29.2564c-.13349,0-.22515.03514-.27567.10569-.05052.07064-.07571.22276-.07571.45738v.46267c0,.23262.02519.38399.07571.4544.05052.07051.14217.10591.27567.10591h.11156c.13329,0,.22508-.03541.27572-.10591.05048-.07042.07567-.22178.07567-.4544v-.46267c0-.23462-.02519-.38674-.07567-.45738-.05064-.07055-.14243-.10569-.27572-.10569h-.11156Z"/><path class="cls-1" d="M19.60697,31.59128c-.17731,0-.32969-.02497-.45725-.07446-.12768-.04963-.23049-.12577-.30868-.22867-.05704-.07446-.09774-.1591-.12129-.2543-.02416-.0953-.03589-.23547-.03589-.41997v-1.37459h-.34579v-.69756h.34579v-.57694h.95448v.57694h1.27475v.69756h-1.27475v1.22864c0,.18295.02039.29909.06149.34884.04092.04936.1235.07388.24733.07388.11599,0,.19521-.02128.23711-.06509.04172-.04421.06299-.12986.06299-.25741v-.25164h.79401v.34018c0,.32001-.07468.55574-.22405.70724-.14971.1515-.38345.22734-.70168.22734h-.50857Z"/><path class="cls-1" d="M21.6449,29.3078c.00365-.28767.08361-.49381.23978-.61861.15603-.12506.41633-.18726.78015-.18726h.45427c.42326,0,.72337.07517.90032.22556.17731.15074.26573.40513.26573.76304v2.06068h-.95991v-.27452c-.08018.10667-.1758.18588-.2861.23711-.11032.0514-.23902.07748-.38572.07748h-.34573c-.25716,0-.45539-.07255-.5944-.21738-.13915-.1447-.20867-.35147-.20867-.61985v-.28007c0-.25932.07895-.45854.23738-.59773.15794-.13875.38349-.20841.6773-.20841h.26296c.13675,0,.26079.02341.37151.07015.11031.0466.20072.11458.27149.20428v-.586c0-.09308-.02065-.16029-.0618-.20148-.04082-.0407-.10809-.06149-.20126-.06149h-.16296c-.11613,0-.19556.01577-.23742.04736-.04154.03137-.06269.08814-.06269.17016l-.95421-.00302ZM22.77065,30.93678h.26292c.09499,0,.16664-.0219.2145-.06598.04722-.04345.07113-.10934.07113-.19686v-.15718c0-.08965-.0239-.15616-.07113-.20023-.04786-.04381-.11952-.06571-.2145-.06571h-.26292c-.09739,0-.17056.02239-.22013.06749-.0495.04434-.07446.1108-.07446.19846v.15718c0,.08752.02496.15341.07446.19686.04957.04407.12274.06598.22013.06598Z"/><polygon class="cls-1" points="25.07942 31.55108 25.07942 27.29595 26.03416 27.29595 26.03416 29.67375 26.1057 29.67375 26.69129 28.54174 27.77434 28.54174 26.95399 29.98798 27.93744 31.55108 26.81986 31.55108 26.1057 30.34514 26.03416 30.34514 26.03416 31.55108 25.07942 31.55108"/><path class="cls-1" d="M31.01493,30.63089c-.02266.34089-.12684.58649-.31131.73607-.18503.14937-.47542.22418-.87162.22418h-.40314c-.44,0-.74905-.09143-.92701-.27416-.17829-.18286-.26723-.50336-.26723-.96052v-.62039c0-.45485.08894-.77459.26723-.95834.17796-.18411.48701-.27594.92701-.27594h.40314c.44014,0,.74905.09183.92715.27594.17807.18375.26723.5035.26723.95834v.47466h-1.83187v.36888c0,.13524.02821.23058.08451.28562.05602.05527.15464.08286.29557.08286h.12303c.1315,0,.22391-.02279.27731-.06877.05305-.04545.0858-.12844.09686-.24844h.94315ZM29.19451,29.708h.89477v-.10591c0-.2001-.02644-.33307-.07895-.39834-.05229-.06598-.15466-.09885-.30704-.09885h-.1228c-.14883,0-.25022.03185-.30425.09583-.05454.06389-.08174.18802-.08174.37279v.13448Z"/><path class="cls-1" d="M31.70932,31.55108v-3.00934h.92601l-.01106.42881c.07593-.16563.171-.2854.28536-.35857.11421-.07353.26296-.11005.4457-.11005.30312,0,.51367.07695.63166.23147.11813.15452.17708.44205.17708.86291v.26874h-.89716v-.1913c0-.14492-.02142-.24608-.06425-.303-.04305-.05731-.12026-.08601-.23283-.08601-.11827,0-.19872.03363-.24155.10014-.04283.06673-.0642.22694-.0642.48017v1.68602h-.95475Z"/><path class="cls-1" d="M34.51847,29.73621c0-.45485.08917-.77464.26723-.95861.17807-.18389.48697-.27567.92726-.27567h.40326c.44028,0,.74932.09179.92724.27567.17807.18397.26723.50376.26723.95861v.62039c0,.45716-.08916.77739-.26723.96039-.17792.18286-.48697.27416-.92724.27416h-.40326c-.44029,0-.74919-.0913-.92726-.27416-.17806-.183-.26723-.50323-.26723-.96039v-.62039ZM35.49584,29.80774v.48035c0,.26092.02443.42339.07304.48737.04851.06371.14537.09556.29006.09556h.11712c.14292,0,.23826-.03137.28575-.09432.04759-.06282.07153-.22591.07153-.48861v-.48035c0-.26443-.02394-.42855-.07153-.49163-.04749-.06273-.14284-.0941-.28575-.0941h-.11712c-.14469,0-.24155.03239-.29006.09712-.04861.06473-.07304.22796-.07304.48861Z"/><path class="cls-1" d="M37.9992,31.55108v-3.00934h.92613l-.01147.42881c.08593-.16563.19575-.2854.32997-.35857.13452-.07353.31096-.11005.53033-.11005.35791,0,.60586.07668.74265.22996.13737.15341.20615.4413.20615.86443v1.95477h-.9547v-1.74333c0-.21898-.02519-.3608-.07571-.42566s-.16812-.09734-.35289-.09734c-.14684,0-.24759.0359-.303.10729-.05526.07153-.08272.2292-.08272.47302v1.68602h-.95474Z"/><path class="cls-1" d="M43.57516,31.55108v-4.25513h1.7145c.65513,0,1.10495.08601,1.34865.2587.24407.17229.36585.47462.36585.90712v.34316c0,.28762-.06953.51296-.20867.67565-.1388.16283-.34468.26159-.6171.29593.28762.04749.4971.14283.62856.28554.13146.14314.19722.3468.19722.61177v.87727h-1.16591v-.76566c0-.18135-.03487-.30553-.10405-.37306-.06976-.06775-.19872-.10161-.38751-.10161h-.63158v1.24033h-1.13996ZM44.71512,29.35049h.63728c.19028,0,.32023-.03328.38851-.09974.06874-.06686.10312-.18953.10312-.36862v-.16309c0-.18109-.03487-.30526-.10441-.37279-.06949-.06775-.19872-.10138-.38722-.10138h-.63728v1.10562Z"/><path class="cls-1" d="M50.39068,30.63089c-.02293.34089-.1268.58649-.31157.73607-.18499.14937-.47524.22418-.87157.22418h-.40314c-.44,0-.74905-.09143-.92703-.27416-.17828-.18286-.26722-.50336-.26722-.96052v-.62039c0-.45485.08894-.77459.26722-.95834.17798-.18411.48702-.27594.92703-.27594h.40314c.44014,0,.74919.09183.92715.27594.17807.18375.26723.5035.26723.95834v.47466h-1.8316v.36888c0,.13524.02794.23058.08449.28562.05576.05527.15439.08286.29531.08286h.12303c.13172,0,.22391-.02279.27731-.06877.05341-.04545.0858-.12844.09686-.24844h.94337ZM48.57032,29.708h.8945v-.10591c0-.2001-.02644-.33307-.07895-.39834-.05229-.06598-.15466-.09885-.30704-.09885h-.1228c-.14861,0-.25.03185-.30425.09583-.05456.06389-.08147.18802-.08147.37279v.13448Z"/><path class="cls-1" d="M51.0738,29.3078c.00378-.28767.08361-.49381.23978-.61861.15639-.12506.41647-.18726.78015-.18726h.45427c.4234,0,.72337.07517.90045.22556.17731.15074.26573.40513.26573.76304v2.06068h-.96003v-.27452c-.0802.10667-.17554.18588-.28612.23711-.11031.0514-.23902.07748-.38577.07748h-.34542c-.2574,0-.45564-.07255-.59453-.21738-.13932-.1447-.20867-.35147-.20867-.61985v-.28007c0-.25932.07922-.45854.23724-.59773.15794-.13875.38372-.20841.6773-.20841h.26306c.13692,0,.2607.02341.37155.07015.11031.0466.20059.11458.27137.20428v-.586c0-.09308-.02066-.16029-.06145-.20148-.04105-.0407-.10845-.06149-.20153-.06149h-.16305c-.11613,0-.19548.01577-.23742.04736-.04154.03137-.06246.08814-.06246.17016l-.95444-.00302ZM52.19965,30.93678h.26283c.09522,0,.16701-.0219.2145-.06598.04732-.04345.07152-.10934.07152-.19686v-.15718c0-.08965-.0242-.15616-.07152-.20023-.04749-.04381-.11928-.06571-.2145-.06571h-.26283c-.09735,0-.17064.02239-.22028.06749-.04949.04434-.07415.1108-.07415.19846v.15718c0,.08752.02466.15341.07415.19686.04964.04407.12293.06598.22028.06598Z"/><rect class="cls-1" x="54.52307" y="27.29595" width=".97131" height="4.25513"/><path class="cls-1" d="M57.24363,31.59128c-.17731,0-.32969-.02497-.45711-.07446-.12795-.04963-.23086-.12577-.30881-.22867-.05731-.07446-.09761-.1591-.12129-.2543-.02417-.0953-.03585-.23547-.03585-.41997v-1.37459h-.34596v-.69756h.34596v-.57694h.95443v.57694h1.27463v.69756h-1.27463v1.22864c0,.18295.02053.29909.06158.34884.04057.04936.12319.07388.24698.07388.11613,0,.19521-.02128.23715-.06509.04181-.04421.06295-.12986.06295-.25741v-.25164h.79455v.34018c0,.32001-.07483.55574-.22432.70724-.14959.1515-.38372.22734-.70169.22734h-.50855Z"/><path class="cls-1" d="M59.74387,31.51682l-.83696-2.97509h.99396l.58036,2.23772.5027-2.23772h1.02655l-.94328,3.40088c-.08197.29535-.19531.49732-.34.60612-.1451.10831-.35729.16261-.63728.16261-.08588,0-.23449-.00946-.4457-.02861-.03434-.00378-.0593-.0068-.07441-.0088v-.67126h.20844c.09331,0,.1778-.02519.25275-.07566.07544-.05065.12276-.1112.1419-.18162l.05682-.22858h-.48586Z"/><path class="cls-1" d="M75.60912,17.82364c0-1.19954-.24622-1.70077-1.33314-1.70077-.49257,0-.85461.18197-1.18808.36435v6.16547h-2.07192v-4.82905c0-1.19954-.15959-1.70077-1.40569-1.70077-.42002,0-.76798.09121-1.11558.22783v6.30199h-2.08676v-7.36501h1.99963v.69844c.44921-.50123,1.24638-.81995,2.13009-.81995,1.20283,0,1.89824.41015,2.20262,1.06301.62274-.6832,1.53568-1.06301,2.46332-1.06301,1.52116,0,2.47764.74376,2.47764,2.67258v8.60094h-2.07214v-8.61605Z"/><path class="cls-1" d="M69.06535,26.44763c-1.19941,0-1.70078.24622-1.70078,1.33314,0,.4927.18237.85474.36462,1.18812h6.16543v2.07214h-4.82927c-1.19941,0-1.70078.15941-1.70078,1.40542,0,.42015.09121.76798.22782,1.11557h6.30223v2.08689h-7.36524v-1.99964h.69872c-.50123-.44921-.82027-1.24615-.82027-2.13021,0-1.2027.4102-1.89826,1.06329-2.20249-.68321-.62287-1.06329-1.53581-1.06329-2.46332,0-1.52129.74417-2.47777,2.67302-2.47777h8.60054v2.07214h-8.61604Z"/><path class="cls-1" d="M77.76501,32.9914c0,1.19954.24622,1.70077,1.33331,1.70077.49251,0,.8546-.18224,1.18808-.36448v-6.1652h2.072v4.82891c0,1.19954.15932,1.70077,1.40547,1.70077.4201,0,.76798-.09117,1.11566-.22782v-6.30186h2.08662v7.36488h-1.99959v-.69845c-.44921.50123-1.24601.82-2.13007.82-1.20269,0-1.89826-.41007-2.20249-1.06306-.6228.68334-1.53568,1.06306-2.46333,1.06306-1.5212,0-2.47781-.74403-2.47781-2.67276v-8.60081h2.07215v8.61604Z"/><path class="cls-1" d="M84.30881,24.3674c1.19955,0,1.70073-.2463,1.70073-1.33327,0-.49243-.18219-.85487-.36457-1.18808h-6.16521v-2.07205h4.82905c1.19955,0,1.70073-.15927,1.70073-1.40569,0-.42011-.09103-.76797-.22778-1.11553h-6.302v-2.08653h7.36501v1.99964h-.69857c.50135.44921.82008,1.24601.82008,2.12994,0,1.20256-.41015,1.89839-1.06302,2.20263.68308.62287,1.06302,1.53568,1.06302,2.46306,0,1.52155-.74402,2.47803-2.67271,2.47803h-8.60084v-2.07214h8.61608Z"/></svg>