<?xml version="1.0" encoding="UTF-8"?><svg id="Layer_1" xmlns="http://www.w3.org/2000/svg" viewBox="0 0 92.92207 48.28543"><defs><style>.cls-1{fill:#403f3f;}</style></defs><path class="cls-1" d="M14.84865,23.03509h24.90388v-1.21169c0-.81463-.0616-1.40336-.18481-1.75249-.29437-.80779-.86257-1.26645-1.71827-1.40336-.1027-.01369-.46551-.05476-1.08847-.05476h-1.02685c-.61612,0-.97893.04107-1.08161.05476-.85571.13691-1.42391.59557-1.71827,1.40336-.13007.34914-.19169.93786-.19169,1.75249v.20537h-.80093v-2.3412h-1.23908v2.3412h-3.89494v-3.42284h-1.23908v3.42284h-4.75067v-5.91465h-1.23906v5.91465h-7.50925v-3.42284l-2.14955-.01368c-.59557-.00686-1.09531.21906-1.5129.65033-.41759.43129-.64349.97209-.63665,1.60873.00686,1.45814.7325,2.18378,2.14955,2.18378h4.92865ZM33.82419,20.84447c.13691-.54081.4518-.88308.95154-1.02685.13691-.04107.30805-.06162.51344-.06846.19851-.00684.52025-.01369.95838-.01369h.00686c.43812,0,.75303.00686.95154.01369.20539.00684.37653.02739.51344.06846.49972.14377.82149.48605.9584,1.02685.03423.13691.05476.53397.0616,1.1843h-4.9768c.00684-.65033.02739-1.04739.06162-1.1843ZM9.9063,22.02877c-.71195,0-1.06792-.3902-1.06792-1.15007v-.05476c0-.78726.36281-1.1706,1.08161-1.1843l.45182-.00686h.62296l.00684,2.39598h-1.09531Z"/><rect class="cls-1" x="40.54117" y="16.09357" width="1.22538" height="6.94152"/><path class="cls-1" d="M41.835,15.03934c-.08215-.00686-.12322-.00686-.13007-.00686h-.42443c-.11638,0-.18483-.0616-.19853-.17798-.00684-.04108-.00684-.08901,0-.13691.02055-.13691.10268-.21222.23276-.22592.01369,0,.10268,0,.26015.01369l.08899.00684v-.34228c-.17114-.07529-.33544-.09585-.49974-.05476-.42443.10268-.56134.36281-.48605.80093l.02055.11638-.10954-.00684h-.11638v.43812h1.36229v-.42443Z"/><path class="cls-1" d="M44.59849,23.79496c0,.65719-.9447,1.21169-1.54027,1.38283l.60926.87625c.20537-.00684.42443-.04792.65719-.13007,1.00632-.35597,1.4992-1.09531,1.4992-2.22485v-5.07263h-1.22538v5.16847Z"/><path class="cls-1" d="M50.86225,23.03509h3.34055c1.13639,0,1.70459-.56134,1.70459-1.69088v-2.71089h-1.24591v2.83411c0,.35597-.21222.56134-.56136.56134h-6.1677v-5.91465h-1.23908v6.92097h4.16891Z"/><path class="cls-1" d="M60.26792,20.52956c0-.36967-.05478-.67088-.13007-.90362-.20537-.60926-.60242-.9447-1.19799-.99946-.07531-.00686-.58189-.00686-1.50606,0v.97893h.90364c.45182,0,.68458.26013.68458.71195v1.71141h-2.56714v1.00632h3.81306v-2.50552Z"/><path class="cls-1" d="M10.36496,27.03047c-1.01316,0-1.82779.04108-2.59451.09585v6.94152c.76673.04792,1.58819.08899,2.59451.08899,2.08793,0,2.84096-.84202,2.84096-3.55975s-.75303-3.56661-2.84096-3.56661ZM10.36496,33.1026c-.49288,0-.9447-.01369-1.3349-.02055v-4.9905c.4039,0,.82149-.01368,1.3349-.01368,1.15007,0,1.5129.60926,1.5129,2.5192s-.36283,2.50552-1.5129,2.50552Z"/><path class="cls-1" d="M17.03921,29.82352c-.12322.26015-.20537.5682-.28066.83518h-.08215c-.08215-.26698-.1643-.57503-.28068-.83518l-1.27329-2.6972h-1.32807l2.28646,4.57976v2.36176h1.25959v-2.34806l2.27277-4.59346h-1.30751l-1.26647,2.6972Z"/><path class="cls-1" d="M23.48759,27.12632h-1.22536c-.21222,0-.38336.11638-.45182.3286l-2.08793,6.61292h1.29384l.56818-1.96472h2.58084l.56818,1.96472h1.29384l-2.08793-6.61292c-.06846-.21222-.23959-.3286-.45182-.3286ZM21.8857,31.06943l.69827-2.39598.15744-.59557h.27382c.02739.19167.10268.4039.15061.59557l.69827,2.39598h-1.97841Z"/><path class="cls-1" d="M30.49046,30.8709v-.05476c.9584-.11638,1.30068-.71195,1.30068-1.75249,0-1.5745-.70511-2.03317-2.41652-2.03317-1.1843,0-1.73196.01369-2.52606.09585v6.94152h1.24591v-2.78618l1.25275.00684c.41759,0,.68458.1643.80095.62296l.5545,2.15639h1.34174l-.62296-2.17692c-.19167-.65035-.58873-.9447-.93101-1.02002ZM29.34722,30.2548h-1.25275v-2.18378h1.25275c.8831,0,1.16376.21906,1.16376,1.07478s-.28066,1.109-1.16376,1.109Z"/><path class="cls-1" d="M37.76707,27.12632h-1.22536c-.21222,0-.38336.11638-.45182.3286l-2.08793,6.61292h1.29384l.56818-1.96472h2.58084l.56818,1.96472h1.29384l-2.08793-6.61292c-.06846-.21222-.23959-.3286-.45182-.3286ZM36.16518,31.06943l.69827-2.39598.15744-.59557h.27382c.02739.19167.10268.4039.15061.59557l.69827,2.39598h-1.97841Z"/><path class="cls-1" d="M44.21543,30.22057l-1.3349-.41075c-.54081-.17114-.77356-.30805-.77356-.92417,0-.74617.30805-.7941,1.15693-.7941.68456,0,1.48551.02055,2.06054.04108l.08215-.89678c-.74617-.19169-1.51974-.23276-2.18378-.23276-1.66349,0-2.38229.27382-2.38229,1.86202,0,1.03371.36967,1.6909,1.39652,2.01264l1.39652.44496c.50658.15744.73932.28068.73932.91047,0,.7188-.25329.84886-1.16376.84886-.47919,0-.88308-.01368-2.19746-.04107l-.08215.92417c1.00632.20537,1.82781.2259,2.25224.2259,1.77986,0,2.46444-.36281,2.46444-1.94417,0-1.02002-.32858-1.68404-1.43075-2.02632Z"/><rect class="cls-1" x="46.86447" y="27.12632" width="1.25961" height="6.94152"/><path class="cls-1" d="M51.50572,33.02045c-.44498,0-.59559-.15061-.59559-.57503v-5.3191h-1.25959v5.52447c0,.83516.4039,1.43759,1.5608,1.43759.93786,0,1.88257-.01369,2.75881-.08899l-.04792-.97893h-2.41652Z"/><path class="cls-1" d="M58.40594,27.45492c-.06846-.21222-.23959-.3286-.45182-.3286h-1.22536c-.21222,0-.38336.11638-.45182.3286l-2.08793,6.61292h1.29384l.56818-1.96472h2.58082l.5682,1.96472h1.29384l-2.08793-6.61292ZM56.35224,31.06943l.69827-2.39598.15744-.59557h.27382c.02739.19167.10268.4039.15061.59557l.69827,2.39598h-1.97841Z"/><rect class="cls-1" x="8.98884" y="16.8516" width="3.08071" height="1.02352"/><rect class="cls-1" x="24.68837" y="23.58764" width="3.08071" height="1.02352"/><rect class="cls-1" x="52.42979" y="23.58764" width="3.08071" height="1.02352"/><polygon class="cls-1" points="75.42701 16.66559 76.31754 14.27559 85.15177 14.27559 85.15177 22.80852 82.76177 24.28196 82.76177 16.66559 75.42701 16.66559"/><polygon class="cls-1" points="82.76177 24.28196 85.15177 25.17168 85.15177 34.00984 76.61806 34.00984 75.14463 31.6183 82.76177 31.6183 82.76177 24.28196"/><polygon class="cls-1" points="67.80983 23.99958 67.80983 31.61676 75.14463 31.61676 74.25568 34.0083 65.41829 34.0083 65.41829 25.47382 67.80983 23.99958"/><polygon class="cls-1" points="67.81063 23.99958 65.4191 23.10982 65.4191 14.27559 73.95438 14.27559 75.42701 16.66559 67.81063 16.66559 67.81063 23.99958"/></svg>