<?xml version="1.0" encoding="UTF-8"?><svg id="Layer_1" xmlns="http://www.w3.org/2000/svg" viewBox="0 0 92.92207 48.28543"><defs><style>.cls-1{fill:#4f1e27;}</style></defs><path class="cls-1" d="M46.01678,11.26503c10.21458-.41244,16.83322,10.98155,11.4026,19.69555-4.86102,7.80002-16.13224,8.15264-21.46315.65768-5.96283-8.38339-.14008-19.94135,10.06055-20.35323ZM46.17855,15.98517c-.43153.07434-.8194.51424-.86458.94779.15796,2.374-.2097,5.01983-.0021,7.36169.03097.34936.1702.51189.38524.76808.76441.91068,2.49387,2.65216,3.4058,3.40431,1.30411,1.0756,2.73447-.45617,1.67644-1.67644l-3.14735-3.16847-.02445-6.78565c-.19909-.65691-.74716-.96877-1.42901-.8513Z"/></svg>