<?xml version="1.0" encoding="UTF-8"?><svg id="Layer_1" xmlns="http://www.w3.org/2000/svg" viewBox="0 0 92.92207 48.28543"><defs><style>.cls-1{fill:#4f1e27;}</style></defs><path class="cls-1" d="M49.17139,38.77954h-1.4759l-1.48695-.17344c-1.86963-.31203-3.64984-1.01926-5.23625-2.04016l-5.18915,1.63351,1.66596-4.98179c-1.19353-1.72835-2.04744-3.67444-2.38968-5.75906l-.17263-1.54047c.02025-.47147-.02753-.95262,0-1.42319.70958-12.12728,16.04212-17.22339,23.87665-7.82624,7.07276,8.48344,1.34418,21.47976-9.59205,22.11084ZM43.04517,17.9734c-1.70108.19556-2.55517,2.39717-2.51833,3.91126.06659,2.73697,3.54888,6.6745,5.64549,8.27124,1.75802,1.33888,5.56893,3.18076,7.76615,2.50597,1.41934-.43589,2.41113-1.34273,2.55292-2.87628.05392-.58323.11765-.77415-.37963-1.0827-.47751-.29628-2.7175-1.3975-3.1945-1.4963-.78579-.16277-1.13818.76741-1.56384,1.28891-.65212.79896-.83359.7872-1.79586.3836-1.1895-.49891-2.55658-1.52886-3.41779-2.48581-.31524-.35029-1.53907-1.91416-1.55231-2.29901-.01812-.52666,1.37128-1.40059,1.36979-2.10323-.00025-.1185-.07825-.29025-.11907-.40908-.29484-.85822-.83687-2.16424-1.24346-2.97344-.06256-.1245-.15671-.34294-.25051-.43473-.25598-.25053-.95745-.23967-1.29906-.2004Z"/></svg>