<?xml version="1.0" encoding="UTF-8"?><svg id="Layer_1" xmlns="http://www.w3.org/2000/svg" viewBox="0 0 92.92207 48.28543"><defs><style>.cls-1{fill:#403f3f;}</style></defs><path class="cls-1" d="M61.3524,36.99717l5.90779-9.67597h3.11354l-6.84989,11.1769h-2.63456v-9.62806l-5.90779,9.62806h-2.63456v-4.54735h.46312v3.04642l5.90779-9.67597h2.63456v9.67597Z"/><rect class="cls-1" x="54.06991" y="23.48037" width="2.32863" height="2.32863" transform="translate(-1.2487 46.27476) rotate(-45)"/><path class="cls-1" d="M47.78998,27.32116c.45751,0,.97922.07926,1.5647.23758.58526.15863,1.14172.43693,1.66861.83562.52689.39859.97123.93789,1.33325,1.61747.36169.6799.54286,1.5409.54286,2.58344v.62861c0,.69523-.08535,1.3085-.25551,1.83982-.17038.53163-.39395.99156-.67062,1.37989-.27688.38854-.59347.71554-.94998.9812-.35683.26597-.72403.47796-1.1018.63628-.37788.15863-.75316.27074-1.12564.33736-.3727.06631-.70806.09967-1.00587.09967-.29814,0-.6335-.03336-1.00598-.09967-.3727-.06662-.74798-.17873-1.12564-.33736-.37798-.15832-.74518-.37031-1.10169-.63628-.35683-.26566-.67342-.59266-.95008-.9812-.27688-.38833-.50045-.84826-.67062-1.37989-.17038-.53132-.25541-1.14459-.25541-1.83982v-.62861c0-.69492.08503-1.30819.25541-1.83982.17016-.53132.39374-.99135.67062-1.37989.27666-.38833.59325-.71533.95008-.9812.35651-.26566.7237-.47775,1.10169-.63628.37766-.15832.75295-.27074,1.12564-.33736.37248-.06631.70784-.09957,1.00598-.09957ZM47.78998,35.83032c.54286,0,1.09618-.07139,1.66052-.21468.56412-.14298,1.07504-.34233,1.53287-.59794.45751-.2553.8302-.56458,1.11766-.92753.28745-.36274.43107-.75895.43107-1.18821,0-.42936-.14362-.82267-.43107-1.18065-.28745-.35767-.66015-.66425-1.11766-.91986-.45783-.2554-.96875-.45465-1.53287-.59794-.56433-.14298-1.11766-.21468-1.66052-.21468-.54297,0-1.09651.0717-1.66062.21468-.56433.14329-1.07525.34254-1.53276.59794-.45783.25561-.83031.56219-1.11777.91986-.28735.35798-.43107.75128-.43107,1.18065,0,.42926.14373.82288.43107,1.18054.28745.35787.65993.66694,1.11777.92753.45751.26069.96843.46262,1.53276.60561.56412.14329,1.11766.21468,1.66062.21468Z"/><path class="cls-1" d="M35.59373,38.4981l-5.25314-11.1769h.51092l4.99763,10.65001,5.14135-10.65001h2.93798l-5.39687,11.1769h-2.93787Z"/><rect class="cls-1" x="26.32396" y="23.48037" width="2.32863" height="2.32863" transform="translate(-9.37529 26.65541) rotate(-45)"/><rect class="cls-1" x="30.03198" y="23.48037" width="2.32863" height="2.32863" transform="translate(-8.28924 29.27738) rotate(-45)"/><rect class="cls-1" x="34.1162" y="40.01025" width="2.32863" height="2.32863" transform="translate(-18.78139 37.00684) rotate(-45)"/><rect class="cls-1" x="37.82422" y="40.01025" width="2.32863" height="2.32863" transform="translate(-17.69534 39.62881) rotate(-45)"/><path class="cls-1" d="M30.88309,27.32123l5.25314,11.1769h-.51092l-4.99763-10.65001-5.14135,10.65001h-2.93798l5.39687-11.1769h2.93787Z"/><rect class="cls-1" x="61.62929" y="23.48037" width="2.32863" height="2.32863" transform="translate(.9654 51.62004) rotate(-45)"/><rect class="cls-1" x="65.33731" y="23.48037" width="2.32863" height="2.32863" transform="translate(2.05145 54.24201) rotate(-45)"/><path class="cls-1" d="M47.2864,27.78417h-5.75281v-.46301h6.19478l-.44197.46301Z"/><path class="cls-1" d="M17.42812,22.41314v-8.40946h-5.34999v-2.80319h11.18055v2.80319h-5.36601v8.40946h-.46455Z"/><path class="cls-1" d="M29.15056,11.20049l5.41408,11.21265h-2.94732s-1.92216-4.00453-1.92216-4.00453h-6.35914s-1.87415,4.00453-1.87415,4.00453h-.51255s5.25392-11.21265,5.25392-11.21265h2.94732ZM26.47554,11.74519l-2.91528,6.19893h5.91066s-2.99538-6.19893-2.99538-6.19893Z"/><path class="cls-1" d="M34.64128,22.41314h-.46455v-11.21265h2.80314l8.45758,9.85111v-9.85111h.46449v11.21265h-2.80314l-8.45752-9.85111v9.85111Z"/><path class="cls-1" d="M54.49774,22.41314h-2.64298s-5.92668-9.70692-5.92668-9.70692v9.70692h-.46455v-11.21265h2.64298s5.92668,9.65897,5.92668,9.65897v-9.65897h2.64298s6.87174,11.21265,6.87174,11.21265h-3.1235s-5.92668-9.70692-5.92668-9.70692v9.70692Z"/><path class="cls-1" d="M67.93513,11.20049h3.26768l-5.57423,7.68875v3.5239h-.4646v-3.5239l-5.59025-7.68875h.57664l3.9084,5.36607,3.87636-5.36607Z"/><path class="cls-1" d="M75.59002,11.20049l5.25392,11.21265h-.51255l-1.8741-4.00453h-6.35924l-1.92216,4.00453h-2.94727l5.41413-11.21265h2.94727ZM72.32234,17.94412h5.91066l-2.91523-6.19893-2.99544,6.19893Z"/><path class="cls-1" d="M70.10009,37.62851c0-.68449.49724-1.15241,1.10564-1.15241.60255,0,1.0998.46792,1.0998,1.15241,0,.68439-.49724,1.15241-1.0998,1.15241-.6084,0-1.10564-.46801-1.10564-1.15241ZM72.07153,37.62851c0-.54994-.37439-.94187-.86579-.94187s-.87164.39193-.87164.94187c0,.5557.38024.93594.87164.93594s.86579-.38024.86579-.93594ZM70.77873,37.02011h.44454c.2457,0,.46217.09947.46217.38024,0,.14039-.08778.27493-.22232.32178l.26908.48546h-.26908l-.20478-.40947h-.23976v.40947h-.23985v-1.18748ZM71.17066,37.61098c.15792,0,.25154-.07024.25154-.19893,0-.11116-.06439-.193-.23985-.193h-.16377v.39193h.15208Z"/></svg>