<?xml version="1.0" encoding="UTF-8"?><svg id="Layer_1" xmlns="http://www.w3.org/2000/svg" viewBox="0 0 92.92207 48.28543"><defs><style>.cls-1{fill:#403f3f;}.cls-2{fill:#fff;}</style></defs><g id="Layer_1-2"><g id="surface1"><path class="cls-1" d="M8.21173,9.91273v29.84692h66.31494c6.27637,0,11.38037-5.08655,11.38037-11.38007V9.91273H8.21173ZM81.99298,28.3968c0,4.10376-3.34521,7.44879-7.44922,7.44879-.00293,0-.00537-.00043-.0083-.00043s-.00586.00043-.00879.00043c-4.10352,0-7.44873-3.34503-7.44873-7.44879v-13.24231c2.58643-.62073,5.104-1.50012,7.44873-2.62085.00293.00134.00586.0025.00879.00385.00293-.00134.00586-.0025.0083-.00385,2.34521,1.12073,4.86279,2.00012,7.44922,2.62085v13.24231Z"/><path class="cls-1" d="M71.16443,16.74084s1.13801-.32761,2.31051.1207c-1.72426.37934-2.29326,1.91393-2.29326,1.91393,0,0,1.0518-1.03456,2.43121-1.18974-.74143.6897-.79316,1.9829-.79316,1.9829,0,0,.53452-1.18974,1.44838-1.63805v1.0518c0,1.24147-.03449,2.36223-.08621,3.24161-.20691-.08621-.37934-.10346-.37934-.10346,0,0,.15518.1207.29313.34485-.34485-.08621-.63798-.01724-.63798-.01724h0c.34485.13794.6897.29312,1.0518.50004.32761-.18967.65522-.34485.96559-.46555h0s-.27588-.05173-.58625,0c.13794-.22415.31036-.36209.31036-.36209,0,0-.15518,0-.34485.08621-.05173-.87937-.08621-2.00014-.08621-3.22436s0-.74143,0-1.0518c.91386.44831,1.44838,1.63805,1.44838,1.63805,0,0-.05173-1.27595-.79316-1.9829,1.37941.17243,2.43121,1.18974,2.43121,1.18974,0,0-.58625-1.51735-2.29326-1.91393,1.17249-.44831,2.31051-.1207,2.31051-.1207,0,0-1.41389-.87937-2.7933-.53452.46555-.46555,1.06904-.60349,1.06904-.60349,0,0-.75867-.10346-1.36216.15518-.08621-.36209-.20691-.79316-.29313-.94834-.08621.15518-.20691.56901-.29313.94834-.60349-.2414-1.34492-.15518-1.34492-.15518,0,0,.60349.13794,1.06904.60349-1.37941-.34485-2.7933.53452-2.7933.53452"/><path class="cls-1" d="M76.94069,25.31041c-.1207,0-.22415.05173-.29313.13794-.08621-.05173-.2414-.17243-.60349-.41382.05173-.08621.08621-.17243.08621-.22415,0-.03448-.01724-.05173-.03449-.06897-.06897-.03448-.18967,0-.32761.10346-.20691-.13794-.46555-.31037-.75867-.51728.06897-.05173.13794-.10346.20691-.13794,1.94841-1.32768,3.12091-1.43114,3.82786-1.44838,0,0-1.96565-.46555-4.36237,1.18974-.05173.03448-.10346.06897-.13794.10346-.05173-.03448-.08621-.06897-.13794-.10346-2.39672-1.65529-4.36237-1.18974-4.36237-1.18974.70695.01724,1.89668.1207,3.82786,1.44838.06897.05173.13794.10346.20691.13794-.31036.20691-.55176.37934-.75867.51728-.13794-.10346-.25864-.13794-.32761-.10346-.01724,0-.03449.03448-.03449.06897,0,.05173.01724.13794.08621.22415-.3621.2414-.53452.36209-.60349.41382-.06897-.08621-.17243-.13794-.29313-.13794-.18967,0-.32761.1207-.32761.27588,0,.10346.06897.18967.15518.2414.05173.03448.13794.05173.22415.05173.3621,0,.8104-.25864,1.15526-.50004.1207.08621.22415.13794.31036.13794s.05173,0,.06897,0,.03449-.03448.03449-.06897c0-.06897-.03449-.15518-.10346-.25864.03449-.01724.06897-.03448.08621-.05173h0c.22415-.13794.48279-.29312.79316-.50004.31036.20691.569.37934.79316.51728h0c.03449,0,.05173.03448.08621.05173-.06897.10346-.10346.18967-.10346.25864,0,.03448.01724.05173.03449.06897h.06897c.06897,0,.18967-.05173.31036-.13794.3621.22415.79316.50004,1.15526.50004.08621,0,.15518-.01724.22415-.05173.08621-.05173.15518-.13794.15518-.22415,0-.15518-.13794-.27588-.32761-.27588"/><path class="cls-1" d="M73.71633,30.328c-.17243,0-.25864-.08621-.25864-.27588s.06897-.32761.27588-.32761.29313.13794.29313.50004c-.06897.05173-.18967.08621-.31036.08621M73.73357,29.48311c-.37934,0-.63798.2414-.63798.58625s.22415.51728.55176.51728.27588-.03448.37934-.10346c-.03449.29312-.1207.48279-.44831.48279s-.22415-.03448-.25864-.08621h-.13794v.27588c.10346.03448.22415.06897.37934.06897.55176,0,.84489-.32761.84489-.89661s-.29313-.82764-.67246-.82764"/><path class="cls-1" d="M72.14725,29.75899v.25864h.10346l.20691-.10346v1.29319h.37934v-1.68977h-.25864"/><path class="cls-1" d="M75.1647,30.12109c-.15518,0-.2414.05173-.31036.08621h0v-.39658h.74143v-.29312h-1.01731v.98283h.22415c.05173-.05173.1207-.1207.25864-.1207s.2414.08621.2414.27588-.13794.29312-.32761.29312-.25864-.05173-.32761-.1207h-.13794v.25864c.1207.06897.2414.1207.46555.1207.41382,0,.6897-.20691.6897-.56901s-.22415-.53452-.51728-.53452"/><path class="cls-1" d="M75.75096,29.81072h.86213l-.65522,1.24147v.15518h.3621l.58625-1.36216v-.32761h-1.13801"/><path class="cls-1" d="M73.73357,29.74175c-.18967,0-.27588.13794-.27588.32761s.10346.27588.25864.27588.2414-.03448.31036-.08621c0-.36209-.1207-.50004-.29313-.50004"/><path class="cls-1" d="M76.63019,28.03474c-.67236-.31036-1.22412-.25867-1.5-.13794-.27588.12067-.48291.58624-.60352,1.12073-.10352-.53448-.32764-1.00006-.60352-1.12073-.27588-.12073-.82764-.17242-1.5.13794-1,.46552-1.60352.39655-1.93115.36206l.87939,4.08649s.43115-.01721,1.25879-.29309c.7583-.25867,1.48291-.05176,1.89648.43103.41406-.48279,1.12061-.67242,1.89697-.43103.82715.27588,1.2583.29309,1.2583.29309l.87939-4.08649c-.32764.03448-.93066.10345-1.93115-.36206Z"/><path class="cls-2" d="M62.88799,21.81016h-1.22422v.46555h.22415c.10346,0,.22415.10346.22415.18967v4.15546h.9311v-4.60377c0-.1207-.05173-.18967-.15518-.18967"/><path class="cls-2" d="M45.973,22.96541h-.91386v-.39658c0-.10346,0-.17243.05173-.2414.03448-.06897.06897-.10346.1207-.13794.05173-.03448.1207-.05173.18967-.06897s.15518,0,.2414,0h.25864v-.41382h-.39658c-.27588,0-.51728.06897-.67246.20691-.17243.13794-.25864.36209-.25864.65522v.39658h-.55176v.39658h1.93117"/><path class="cls-2" d="M57.07723,24.89658c-.03449.84489-.32761,1.25871-1.25871,1.25871s-.87937-.22415-1.10352-.44831c.08621-.15518.15518-.32761.17243-.48279.08621-.39658.10346-.79316.10346-.79316,0-.56901.3621-1.0518.96559-1.0518s1.01731.34485,1.08628,1.0518c0,0,.03449.25864,0,.44831M52.47346,25.98287c-.15518,0-.29312-.01724-.39658-.06897s-.18967-.1207-.25864-.20691-.10346-.18967-.13794-.31037c-.01724-.1207-.03448-.2414-.03448-.36209v-1.7415h0v-1.34492c0-.1207-.05173-.18967-.15518-.18967h-1.22422v.44831h.22415c.10346,0,.22415.10346.22415.18967v1.9829h0v1.06904c0,.18967-.01724.32761-.08621.39658-.05173.06897-.17243.10346-.32761.10346h-1.20698c-.15518,0-.29312-.01724-.39658-.06897s-.18967-.1207-.25864-.20691-.10346-.18967-.13794-.31037c-.03448-.1207-.03448-.2414-.03448-.37934v-3.08642c0-.1207-.05173-.18967-.15518-.18967h-1.22422v.44831h.22415c.10346,0,.22415.10346.22415.18967v1.9829h0v1.08628c0,.18967-.03448.32761-.08621.39658s-.17243.10346-.34485.10346h-3.7244c-.87937-.03448-1.32768-.37934-1.32768-1.00007s.20691-.63798.41382-.75867v-.32761h-.53452c-.17243.20691-.34485.56901-.34485,1.10353,0,1.0518.6897,1.56908,1.79323,1.58632h3.77613s.39658-.01724.55176-.05173c.22415-.05173.39658-.15518.51728-.29312.10346-.13794.17243-.31037.20691-.51728.05173.25864.17243.46555.34485.62073s.41382.2414.70695.2414h1.13801c.20691,0,.37934-.01724.53452-.06897.13794-.03448.25864-.10346.34485-.17243s.17243-.17243.20691-.27588c.05173-.10346.08621-.22415.10346-.34485.05173.25864.17243.46555.34485.62073.15518.15518.3621.22415.62073.2414h.46555c.58625,0,1.00007-.17243,1.29319-.43106.31036.18967.75867.48279,1.51735.48279s1.56908-.32761,1.8622-.91386c.05173.2414.17243.44831.32761.60349s.3621.2414.62073.2414h2.12084v-4.60377c0-.1207-.05173-.18967-.15518-.18967h-1.22422v.44831h.22415c.10346,0,.22415.10346.22415.18967v3.53473h-1.31044c-.31036,0-.53452-.08621-.65522-.27588-.03449-.06897-.06897-.13794-.10346-.20691.06897-.20691.10346-.44831.10346-.70695,0-1.15525-.8104-1.8622-1.9829-1.8622s-1.79323.6897-1.79323,1.72426v.2414c0,1.10353-.89662,1.08628-1.41389,1.08628"/><path class="cls-2" d="M20.29879,22.98266c-.67246,0-1.10353.08621-1.36216.18967v.75867h.53452c.06897-.36209.36209-.46555.84489-.46555.75867,0,1.20698.46555,1.20698,1.39665v1.15525h-3.0347v.60349h3.91407v-1.75874c0-1.1725-.84489-1.87944-2.12084-1.87944"/><path class="cls-2" d="M28.62696,24.48276c.03448-.18967.18967-.34485.44831-.50004.31037-.17243.70695-.25864,1.15525-.25864s.86213.08621,1.1725.25864c.2414.13794.37934.31037.41382.50004l-1.58632,1.34492c-.72419-.58625-1.24147-1.03456-1.60356-1.34492M24.17837,25.56905c-.03448-.15518-.05173-.31037-.05173-.44831,0-.2414.03448-.43106.1207-.58625s.17243-.27588.29312-.37934c.10346-.10346.2414-.15518.36209-.20691.13794-.03448.25864-.05173.36209-.05173h.56901v2.1036h-1.46562c-.06897-.13794-.13794-.29312-.17243-.44831M33.88595,26.6036c.20691,0,.37934-.01724.53452-.06897.13794-.03448.25864-.10346.3621-.17243.08621-.06897.15518-.17243.20691-.27588s.08621-.22415.10346-.36209c.05173.25864.17243.46555.34485.62073.17243.17243.41382.2414.70695.2414h.06897c.41382,0,.70695-.08621.87937-.2414s.27588-.37934.31037-.63798c.05173.25864.17243.46555.34485.62073.17243.17243.41382.2414.70695.2414h1.34492v-3.29333h-1.36216v.46555h.31037c.10346,0,.20691.10346.20691.18967v.89661h0v1.15525h-.72419c-.15518,0-.27588-.01724-.37934-.06897-.10346-.05173-.18967-.1207-.25864-.20691s-.10346-.18967-.13794-.31037c-.01724-.10346-.03448-.20691-.03448-.34485v-1.31044h-1.36216v.46555h.31037c.10346,0,.20691.08621.20691.17243v1.08628c0,.18967-.03448.31037-.08621.39658-.05173.06897-.25864.10346-.41382.10346h-.17243c-.15518,0-.27588-.01724-.37934-.06897-.10346-.05173-.18967-.1207-.25864-.20691-.05173-.08621-.10346-.18967-.13794-.31037-.03448-.1207-.03448-.2414-.03448-.37934v-.8104h-1.36216v.48279h.31037c.10346,0,.20691.10346.20691.18967v.60349c0,.18967-.03448.31037-.08621.39658s-.17243.10346-.32761.10346h-2.41396c-.1207,0-.25864,0-.37934-.03448.96559-.79316,1.5001-1.24147,1.58632-1.31044,0-.39658-.22415-.75867-.6897-1.06904-.48279-.32761-1.06904-.48279-1.72426-.48279s-1.24147.15518-1.72426.48279c-.46555.31037-.70695.67246-.70695,1.06904.82764.70695,1.34492,1.13801,1.56908,1.31044-.1207.01724-.2414.03448-.36209.03448h-2.24154v-2.70709h-1.44838c-.27588,0-.55176.05173-.8104.13794s-.48279.22415-.67246.39658-.34485.37934-.46555.62073c-.10346.2414-.17243.51728-.17243.8104s.03448.44831.10346.6897c.06897.22415.15518.44831.25864.65522h2.12084c-.25864.34485-.50004.55176-.91386.65522v.41382h.70695c.32761-.17243.6897-.53452,1.03456-1.06904h2.62087s.58625,0,1.06904-.32761c.39658.25864.84489.32761,1.12077.32761"/><path class="cls-2" d="M21.5575,14.70621c.13794,0,.25864-.03449.34485-.1207s.13794-.18967.13794-.31037-.05173-.20691-.13794-.29312-.20691-.1207-.34485-.1207-.2414.03449-.34485.1207-.13794.18967-.13794.29312.05173.22415.13794.31037.20691.1207.34485.1207"/><path class="cls-2" d="M20.19534,14.70621c.13794,0,.2414-.03449.34485-.1207s.15518-.18967.15518-.31037-.05173-.20691-.15518-.29312-.20691-.1207-.34485-.1207-.2414.03449-.34485.1207c-.08621.08621-.13794.18967-.13794.29312s.05173.22415.13794.31037.20691.1207.34485.1207"/><path class="cls-2" d="M60.74991,19.70657c-.13794,0-.25864.03449-.34485.1207s-.13794.18967-.13794.31037.05173.22415.13794.29312c.08621.08621.20691.1207.34485.1207s.2414-.03449.34485-.1207c.08621-.08621.13794-.17243.13794-.29312s-.05173-.22415-.13794-.31037c-.10346-.08621-.20691-.1207-.34485-.1207"/><path class="cls-2" d="M44.92121,17.48227c-.03448.84489-.32761,1.25871-1.25871,1.25871s-.87937-.22415-1.08628-.44831c.08621-.15518.15518-.32761.18967-.48279.08621-.39658.10346-.79316.10346-.79316,0-.56901.3621-1.0518.96559-1.0518s1.01731.34485,1.08628,1.0518c0,0,.03448.25864,0,.44831M30.60986,17.06845c.03448-.17243.18967-.34485.43106-.50004.31037-.17243.6897-.25864,1.15525-.25864s.86213.08621,1.15525.25864c.2414.13794.37934.31037.41382.50004l-1.58632,1.32768c-.70695-.58625-1.24147-1.03456-1.58632-1.32768M20.57467,18.7065c-.51728,0-1.06904-.20691-1.06904-1.29319s.58625-1.32768,1.18974-1.32768.6897.13794.9311.29312v1.93117c-.25864.22415-.58625.41382-1.0518.41382M21.60923,19.06859v.03449c.01724.03449.06897.05173.15518.05173h9.34548s.56901,0,1.06904-.32761c.39658.25864.82764.32761,1.12077.32761h7.62122c.58625,0,1.00007-.17243,1.29319-.43106.31037.18967.75867.48279,1.51735.48279,1.37941,0,2.06911-.70695,2.06911-1.84496s-.79316-1.8622-1.9829-1.8622-1.79323.6897-1.79323,1.72426v.2414c0,1.00007-.72419,1.08628-1.24147,1.08628h-7.37983c-.1207,0-.25864,0-.37934-.03449.96559-.79316,1.48286-1.22422,1.56908-1.29319,0-.39658-.22415-.74143-.6897-1.0518-.48279-.32761-1.0518-.48279-1.70702-.48279s-1.24147.15518-1.72426.48279c-.46555.31037-.70695.67246-.70695,1.06904.82764.70695,1.34492,1.13801,1.55183,1.29319-.1207.01724-.2414.03449-.3621.03449h-8.51784v-2.96573h-.48279c-.10346,0-.27588.13794-.32761.41382-.27588-.25864-.65522-.44831-1.25871-.44831s-1.75874.50004-1.75874,1.87944.87937,1.7415,1.68977,1.7415,1.03456-.22415,1.29319-.46555"/><path class="cls-2" d="M63.14662,18.5858h-.34485c-.05173,0-.13794-.05173-.17243-.13794l-.31036-1.32768c-.27588-.87937-1.01731-1.34492-1.43113-1.43113-.22415-.06897-.65522-.10346-.70695-.10346h-.10346c-.77592,0-1.51735.17243-1.82772.32761l-.06897.03449v.53452h.41382l.03449-.03449c.17243-.13794.79316-.34485,1.39665-.34485h.08621c.70695,0,1.29319.43106,1.46562,1.08628l.27588,1.39665h-13.4837v-4.01752c0-.1207-.03448-.18967-.15518-.18967h-1.22422v.44831h.22415c.10346,0,.22415.10346.22415.18967v4.15546h15.708"/><path class="cls-2" d="M18.48832,33.50064h.18967c.06897,0,.13794-.08621.13794-.15518v-2.32775c0-.06897-.06897-.15518-.13794-.15518h-.18967v-.31037h1.24147v.31037h-.37934v1.43113l1.12077-1.1725c.13794-.15518.10346-.2414-.05173-.2414h-.08621v-.31037h1.12077v.31037h-.13794c-.08621,0-.15518.05173-.25864.15518l-.87937.87937.98283,1.44838c.05173.08621.1207.15518.20691.15518h.1207v.29312h-.84489v-.27588l-.84489-1.24147-.46555.46555v.75867h.37934v.29312h-1.24147"/><path class="cls-2" d="M22.10926,30.84528c0-.15518.1207-.27588.29312-.27588s.27588.1207.27588.27588-.1207.27588-.27588.27588-.29312-.1207-.29312-.27588M21.85062,33.50064h.17243c.05173,0,.1207-.06897.1207-.1207v-1.55183c0-.05173-.05173-.13794-.1207-.13794h-.20691v-.31037h.72419c.06897,0,.08621.05173.08621.20691v1.77599c0,.06897.06897.1207.1207.1207h.17243v.29312h-1.10353"/><path class="cls-2" d="M23.28176,33.50064h.17243c.06897,0,.1207-.06897.1207-.1207v-1.55183c0-.05173-.06897-.13794-.1207-.13794h-.18967v-.31037h.70695c.06897,0,.1207.06897.1207.29312v.06897c.2414-.22415.56901-.37934.94834-.37934s.63798.1207.63798.60349v1.43113c0,.06897.06897.1207.1207.1207h.15518v.29312h-1.10353v-.29312h.32761v-1.37941c0-.29312-.13794-.37934-.37934-.37934s-.50004.10346-.70695.22415v1.53459h.32761v.29312h-1.13801"/><path class="cls-2" d="M27.7131,32.12123c0-.29312-.17243-.46555-.46555-.46555s-.46555.17243-.46555.46555.17243.44831.46555.44831.46555-.17243.46555-.44831M27.90277,33.86273c0-.18967-.10346-.27588-.37934-.27588h-.79316c-.10346.08621-.15518.17243-.15518.31037,0,.22415.13794.3621.58625.3621s.72419-.17243.72419-.39658M26.12679,34.00067c0-.27588.18967-.43106.41382-.53452-.10346-.05173-.18967-.17243-.18967-.32761s.10346-.32761.2414-.44831c-.17243-.1207-.27588-.32761-.27588-.56901,0-.44831.34485-.77592.91386-.77592s.20691,0,.29312.03448h.82764v.31037h-.20691c-.05173,0-.10346.03448-.10346.08621.06897.10346.10346.20691.10346.34485,0,.44831-.36209.74143-.9311.74143s-.32761-.03448-.44831-.08621c-.03448.05173-.06897.1207-.06897.20691,0,.1207.08621.17243.22415.17243h.67246c.48279,0,.72419.18967.72419.60349s-.32761.82764-1.22422.82764-1.01731-.2414-1.01731-.56901"/><path class="cls-2" d="M30.14431,33.67306c-.03448,0-.05173.05173-.06897.1207h-.34485v-.94834h.36209l.05173.39658c.15518.15518.32761.2414.67246.2414s.62073-.17243.62073-.53452-.32761-.48279-.79316-.62073c-.56901-.15518-.84489-.39658-.84489-.94834s.43106-.87937,1.01731-.87937.48279.08621.58625.13794c.03448,0,.06897-.05173.06897-.10346h.34485v.84489h-.3621l-.05173-.32761c-.1207-.10346-.27588-.22415-.58625-.22415s-.56901.13794-.56901.48279.29312.44831.74143.56901c.62073.17243.9311.3621.9311.96559s-.37934.94834-1.08628.94834-.55176-.08621-.67246-.15518"/><path class="cls-2" d="M33.79974,33.22475v-.51728c-.13794-.03448-.29312-.05173-.44831-.05173-.34485,0-.56901.1207-.56901.43106s.17243.41382.44831.41382.41382-.10346.56901-.27588M32.28239,33.10406c0-.50003.39658-.74143.94834-.74143s.37934.01724.55176.06897v-.31037c0-.31037-.17243-.41382-.48279-.41382s-.50003.10346-.62073.22415h-.22415v-.37934c.20691-.10346.50003-.18967.94834-.18967s.89661.17243.89661.70695v1.29319c0,.08621.05173.15518.15518.15518h.1207v.2414c-.06897.03448-.17243.06897-.31037.06897-.25864,0-.39658-.10346-.43106-.32761-.17243.22415-.41382.32761-.74143.32761-.46555,0-.77592-.2414-.77592-.72419"/><path class="cls-2" d="M35.0412,33.22475v-1.41389c0-.05173-.06897-.1207-.1207-.1207h-.17243v-.31037h.79316v1.68977c0,.31037.15518.39658.37934.39658s.50003-.10346.6897-.2414v-1.53459h-.34485v-.31037h.84489v2.00014c0,.05173.06897.13794.13794.13794h.18967v.29312h-.6897c-.06897,0-.10346-.05173-.10346-.27588v-.05173c-.2414.22415-.53452.37934-.9311.37934s-.63798-.13794-.63798-.60349"/><path class="cls-2" d="M39.48979,33.19027v-1.29319c-.15518-.1207-.32761-.20691-.58625-.20691-.3621,0-.70695.18967-.70695.89661s.32761.91386.63798.91386.48279-.15518.65522-.32761M37.69656,32.60402c0-.91386.56901-1.25871,1.0518-1.25871s.58625.13794.74143.29312v-.75867h-.34485v-.31037h.75867c.06897,0,.08621.05173.08621.1207v2.6726c0,.05173.06897.13794.1207.13794h.17243v.29312h-.6897c-.05173,0-.08621-.06897-.10346-.32761-.17243.18967-.43106.3621-.79316.3621s-1.00007-.27588-1.00007-1.20698"/><path class="cls-2" d="M41.59339,32.63851v-1.60356c0-.06897-.06897-.15518-.15518-.15518h-.18967v-.31037h1.27595v.31037h-.41382v1.77599c0,.63798.31037.8104.77592.8104s.77592-.15518.77592-.8104v-1.77599h-.39658v-.31037h1.13801v.31037h-.18967c-.06897,0-.13794.08621-.13794.15518v1.60356c0,.82764-.41382,1.20698-1.22422,1.20698s-1.25871-.37934-1.25871-1.20698"/><path class="cls-2" d="M44.55911,33.51788h.18967c.05173,0,.1207-.06897.1207-.1207v-1.55183c0-.05173-.06897-.13794-.1207-.13794h-.20691v-.31037h.70695c.06897,0,.1207.06897.1207.29312v.06897c.2414-.22415.56901-.39658.94834-.39658s.63798.1207.63798.60349v1.43113c0,.06897.06897.1207.1207.1207h.15518v.29312h-1.10352v-.29312h.32761v-1.37941c0-.29312-.13794-.37934-.37934-.37934s-.50003.10346-.70695.22415v1.51735h.34485v.29312h-1.13801"/><path class="cls-2" d="M47.71451,30.86252c0-.15518.1207-.27588.29312-.27588s.29312.1207.29312.27588-.1207.27588-.29312.27588-.29312-.1207-.29312-.27588M47.47311,33.51788h.17243c.05173,0,.1207-.06897.1207-.1207v-1.55183c0-.05173-.06897-.13794-.1207-.13794h-.20691v-.31037h.72419c.06897,0,.08621.05173.08621.20691v1.77599c0,.06897.06897.1207.1207.1207h.17243v.29312h-1.10352"/><path class="cls-2" d="M48.86976,31.84535c-.03448-.08621-.10346-.15518-.17243-.15518h-.08621v-.31037h1.06904v.31037h-.34485l.60349,1.6208h0l.51728-1.34492c.05173-.15518.05173-.27588-.1207-.27588h-.1207v-.31037h.96559v.31037h-.08621c-.08621,0-.15518.05173-.18967.15518l-.79316,1.94841h-.46555"/><path class="cls-2" d="M52.93901,32.37987c0-.51728-.20691-.70695-.569-.70695s-.60349.22415-.63798.70695h1.20698,0ZM51.19751,32.60402c0-.75867.48279-1.24147,1.1725-1.24147s1.06904.36209,1.06904,1.15525,0,.13794,0,.15518h-1.72426c.01724.56901.25864.84489.74143.84489s.50003-.1207.62073-.27588h.27588v.34485c-.18967.1207-.46555.25864-.94834.25864-.8104,0-1.22422-.46555-1.22422-1.22422"/><path class="cls-2" d="M53.81838,33.51788h.17243c.06897,0,.1207-.06897.1207-.1207v-1.55183c0-.05173-.06897-.13794-.1207-.13794h-.18967v-.31037h.70695c.06897,0,.1207.05173.1207.32761v.08621c.17243-.22415.37934-.41382.72419-.41382s.10346,0,.13794.01724v.41382h-.10346c-.3621,0-.58625.08621-.75867.2414v1.46562h.37934v.29312h-1.18974"/><path class="cls-2" d="M55.66334,33.6903v-.50003h.29313c.05173.22415.20691.31037.53452.31037s.53452-.1207.53452-.3621-.17243-.29312-.569-.3621c-.50003-.06897-.75867-.22415-.75867-.70695s.34485-.72419.91386-.72419.62073.05173.79316.1207v.48279h-.29313c-.05173-.17243-.18967-.25864-.51728-.25864s-.46555.1207-.46555.31037.1207.29312.55176.34485c.55176.08621.8104.22415.8104.70695s-.32761.75867-.98283.75867-.67246-.06897-.84489-.13794"/><path class="cls-2" d="M58.02557,30.86252c0-.15518.1207-.27588.29313-.27588s.29313.1207.29313.27588-.13794.27588-.29313.27588-.29313-.1207-.29313-.27588M57.78418,33.51788h.17243c.06897,0,.1207-.06897.1207-.1207v-1.55183c0-.05173-.05173-.13794-.1207-.13794h-.20691v-.31037h.72419c.06897,0,.08621.05173.08621.20691v1.77599c0,.06897.06897.1207.1207.1207h.18967v.29312h-1.10352"/><path class="cls-2" d="M59.23255,33.242v-1.53459h-.31036v-.31037h.31036v-.65522h.50003v.65522h.55176v.31037h-.55176v1.48286c0,.27588.08621.32761.32761.32761h.2414v.27588c-.08621.03448-.22415.05173-.39658.05173-.43106,0-.67246-.15518-.67246-.60349"/><path class="cls-2" d="M60.93957,34.27655c.27588-.08621.48279-.25864.67246-.53452l-.8104-1.89668c-.03449-.08621-.10346-.15518-.17243-.15518h-.08621v-.31037h1.06904v.31037h-.3621l.62073,1.48286.50003-1.22422c.06897-.15518.05173-.27588-.1207-.27588h-.1207v-.31037h.98283v.31037h-.10346c-.06897,0-.13794.06897-.17243.15518l-.75867,1.75874c-.22415.51728-.46555.79316-.70695.9311h-.41382"/></g></g><polygon class="cls-2" points="72.80255 31.19014 72.44024 31.19014 72.44024 29.89693 72.23321 30.00038 72.13019 30.00038 72.13019 29.74171 72.54376 29.50032 72.80255 29.50032 72.80255 31.19014"/><path class="cls-2" d="M73.56134,31.19014v.01721c-.15527,0-.27588-.03448-.37939-.06897v-.27588h.1377c.03467.03448.12061.08624.25879.08624.31055,0,.41357-.17242.44824-.48285-.10352.06903-.24121.10352-.37939.10352-.32764,0-.55176-.1897-.55176-.51733,0-.32758.25879-.58624.63818-.58624s.67236.27588.67236.82764c0,.55182-.31055.89667-.84473.89667Z"/><path class="cls-2" d="M75.02667,31.22462l-.01709-.01727c-.22412,0-.34473-.0517-.46582-.12067v-.25867h.13818c.05176.05176.15527.12073.32764.12073s.32764-.10345.32764-.29315c0-.18964-.10352-.27588-.2417-.27588-.1377,0-.22412.06897-.2583.12073h-.22412v-.98285h1.01709v.29309h-.74121v.39661c.05176-.03448.15479-.08624.31006-.08624.29346,0,.51758.17242.51758.53455s-.29346.56903-.68994.56903Z"/><polygon class="cls-2" points="76.30255 31.19014 75.94073 31.19014 75.94073 31.03493 76.59601 29.79347 75.7337 29.79347 75.7337 29.50032 76.87188 29.50032 76.87188 29.82796 76.88897 29.82796 76.30255 31.19014"/></svg>