<?xml version="1.0" encoding="UTF-8"?><svg id="Layer_1" xmlns="http://www.w3.org/2000/svg" viewBox="0 0 92.92207 48.28543"><defs><style>.cls-1{fill:#403f3f;}</style></defs><path class="cls-1" d="M31.29532,44.36159c-.78196,0-1.05508-.32486-1.05508-.85096,0-.15524.03162-.33349.07475-.45135l.40536-.06612c-.06037.13224-.09775.32199-.09775.47435,0,.40536.17537.5951.71297.5951h.19549v-1.03495s.26736-.05462.57785-.05462c.50598,0,.6641.24149.6641.63535v.36223h-.36798v-.32199c0-.27599-.0805-.37661-.31911-.37661-.09487,0-.18974.01725-.18974.01725v1.07233h-.60085ZM30.98483,44.98831c-.10637,0-.18974-.08625-.18974-.19549,0-.10637.08337-.19549.18974-.19549.10925,0,.19262.08625.19262.19549,0,.10637-.08337.19549-.19262.19549ZM31.46206,44.98831c-.10637,0-.18974-.08625-.18974-.19549,0-.10637.08337-.19549.18974-.19549s.18974.08625.18974.19549c0,.10637-.08337.19549-.18974.19549ZM32.62292,45.06306l.03162-.30186c.06612.02012.14087.0345.23286.0345.19262,0,.30761-.092.30761-.40248v-1.38281h.37948v1.36269c0,.36798-.12362.71872-.71009.71872-.08912,0-.16962-.0115-.24149-.02875ZM34.03133,42.3348h.37948v1.7278h.28749v.29899h-.66697v-2.02678ZM34.65498,44.0626h.12074c.08912,0,.17537.01437.17537.01437-.08625-.08912-.13224-.22424-.13224-.38811,0-.41398.29611-.71584.73022-.71584.40823,0,.66984.21274.66984.66984,0,.16674-.0575.34211-.16674.43411,0,0,.12074-.01437.21849-.01437h.15237v.29899h-1.76805v-.29899ZM35.09771,42.59642c0-.10637.08337-.19549.18974-.19549.10925,0,.19262.08624.19262.19549,0,.10637-.08337.19549-.19262.19549-.10637,0-.18974-.08625-.18974-.19549ZM35.83655,43.663c0-.25299-.09775-.39098-.31336-.39098-.16387,0-.32486.11499-.32486.38523s.10637.40536.31911.40536c.18112,0,.31911-.13224.31911-.39961ZM35.57493,42.59642c0-.10637.08337-.19549.18974-.19549s.18974.08624.18974.19549c0,.10637-.08337.19549-.18974.19549s-.18974-.08625-.18974-.19549ZM36.37952,44.0626h.10062c.27311,0,.49448-.03162.66984-.08912-.18399-.17249-.35361-.35073-.60372-.41973l.03162-.27024c.22711-.16387.54623-.31911.83084-.31911.42836,0,.6066.22137.6066.47148,0,.19262-.10062.39098-.29324.55198.09487.046.19837.07475.31911.07475h.18974v.29899h-.23286c-.25011,0-.43698-.07475-.59222-.17824-.24436.10925-.56347.17824-.94871.17824h-.07762v-.29899ZM37.46047,43.81249c.12074-.09487.17824-.20987.17824-.32774,0-.13512-.08912-.24149-.27311-.24149-.15524,0-.33349.1035-.43698.17249.19837.0805.35648.25011.53185.39673ZM38.18738,44.0626h.35648v-1.7278h.37948v2.02678h-.73597v-.29899ZM39.41186,42.3348h.37948v2.02678h-.37948v-2.02678ZM40.71095,45.06306l.03162-.30186c.06612.02012.14087.0345.23286.0345.19262,0,.30761-.092.30761-.40248v-1.38281h.37948v1.0522h.28461v.29899h-.28461v.0115c0,.36798-.12362.71872-.71009.71872-.08912,0-.16962-.0115-.24149-.02875ZM41.90377,44.0626h.54047v-1.0522h.37948v1.35119h-.91996v-.29899ZM42.14813,44.98831c-.10637,0-.18974-.08625-.18974-.19549,0-.10637.08337-.19549.18974-.19549.10925,0,.19261.08625.19261.19549,0,.10637-.08337.19549-.19261.19549ZM42.62536,44.98831c-.10637,0-.18974-.08625-.18974-.19549,0-.10637.08337-.19549.18974-.19549s.18974.08625.18974.19549c0,.10637-.08337.19549-.18974.19549ZM43.17132,45.04868l.023-.31049s.22424.04887.44848.04887c.29899,0,.49735-.11212.49735-.38236v-.04312h-.22424c-.5606,0-.77047-.25874-.77047-.66697,0-.37661.23286-.72159.76184-.72159.33924,0,.60085.10062.60085.10062v.98896h.28461v.29899h-.28461v.00575c0,.39673-.25587.71872-.89984.71872-.21561,0-.43698-.03737-.43698-.03737ZM44.14015,43.32376s-.10925-.05175-.27311-.05175c-.21562,0-.34211.16387-.34211.38811,0,.26161.12937.40248.43123.40248h.18399v-.73884ZM44.74635,44.0626h.35073v-1.7278h.37948v.74747c0,.12649-.00862.28749-.03162.42548h.00287c.14087-.33923.43123-.53473.73884-.53473.39674,0,.5836.26449.5836.69572,0,.12937-.00287.26449-.0115.39386h.26449v.29899h-2.2769v-.29899ZM46.36778,44.0626c.00863-.11499.01437-.24724.01437-.35073,0-.27024-.069-.43411-.27311-.43411-.30761,0-.56347.38236-.63535.78484h.89409ZM46.97959,44.0626h.40248v-1.0522h.37948v1.0522h.25586v.29899h-1.03783v-.29899ZM47.08883,42.59642c0-.10637.08337-.19549.18974-.19549.10925,0,.19262.08624.19262.19549,0,.10637-.08337.19549-.19262.19549-.10637,0-.18974-.08625-.18974-.19549ZM47.56606,42.59642c0-.10637.08337-.19549.18974-.19549s.18974.08624.18974.19549c0,.10637-.08337.19549-.18974.19549s-.18974-.08625-.18974-.19549ZM47.97404,44.0626h.35648v-1.7278h.37948v2.02678h-.73597v-.29899ZM49.19852,42.3348h.37948v2.02678h-.37948v-2.02678ZM50.6586,45.04868l.023-.31049s.22424.04887.44848.04887c.29899,0,.49735-.11212.49735-.38236v-.04312h-.22424c-.5606,0-.77047-.25874-.77047-.66697,0-.37661.23287-.72159.76184-.72159.33923,0,.60085.10062.60085.10062v1.29369c0,.39673-.25586.71872-.89983.71872-.21562,0-.43698-.03737-.43698-.03737ZM51.62743,43.32376s-.10925-.05175-.27311-.05175c-.21561,0-.34211.16387-.34211.38811,0,.26161.12937.40248.43123.40248h.18399v-.73884ZM52.88321,45.06306l.03162-.30186c.06612.02012.14087.0345.23287.0345.19261,0,.30761-.092.30761-.40248v-1.38281h.37948v1.36269c0,.36798-.12362.71872-.71009.71872-.08912,0-.16962-.0115-.24149-.02875ZM54.29161,42.3348h.37948v1.7278h.28749v.29899h-.66697v-2.02678ZM55.33787,44.14022c-.07187.14949-.20699.22137-.37948.22137h-.04312v-.29899h.0575c.13799,0,.21562-.08337.21562-.34498,0-.41111.25011-.74459.73309-.74459.46286,0,.66409.26449.66409.68422v.40536h.24437v.29899h-.89984c-.33923,0-.50598-.0805-.59222-.22137ZM56.21471,43.70037c0-.30186-.10925-.42836-.31911-.42836s-.33349.16674-.33349.41111c0,.25299.10925.37948.40536.37948h.24724v-.36223ZM56.78348,44.0626h.40248v-1.0522h.37948v1.0522h.28174v.29899h-1.0637v-.29899ZM56.89273,42.59642c0-.10637.08337-.19549.18974-.19549s.18974.08624.18974.19549c0,.10637-.08337.19549-.18974.19549s-.18974-.08625-.18974-.19549ZM57.14284,42.20256c0-.10062.07762-.18112.17537-.18112.10062,0,.17824.0805.17824.18112s-.07762.18112-.17824.18112c-.09775,0-.17537-.0805-.17537-.18112ZM57.36708,42.59642c0-.10637.08337-.19549.19261-.19549.10637,0,.18974.08624.18974.19549,0,.10637-.08337.19549-.18974.19549-.10925,0-.19261-.08625-.19261-.19549ZM57.80381,44.0626h.40248v-1.0522h.37948v1.0522h.25586v.29899h-1.03783v-.29899ZM57.91306,42.59642c0-.10637.08337-.19549.18974-.19549.10925,0,.19262.08624.19262.19549,0,.10637-.08337.19549-.19262.19549-.10637,0-.18974-.08625-.18974-.19549ZM58.39029,42.59642c0-.10637.08337-.19549.18974-.19549s.18974.08624.18974.19549c0,.10637-.08337.19549-.18974.19549s-.18974-.08625-.18974-.19549ZM58.79827,44.0626h.092c.18686,0,.25874-.07475.25874-.35936v-.52035h.37948v.56922c0,.21562.04887.33349.21849.33349.16674,0,.21274-.12362.21274-.33061v-.68709h.36223v.67559c0,.23861.06325.31911.31624.31911h.10062c.0115-.11499.02012-.25586.02012-.34498,0-.28749-.0345-.55198-.08337-.77047l.37086-.05175c.05462.22999.092.51173.092.79634,0,.20987-.01725.46573-.04312.66984h-.53473c-.25011,0-.40248-.0575-.46573-.21274-.069.16099-.23574.23861-.41686.23861-.20987,0-.35936-.08912-.40823-.23861-.05175.13799-.16962.21274-.38236.21274h-.08912v-.29899ZM62.22163,43.84699h-.38523l-.4111-1.48056.37661-.05175.41973,1.53231ZM61.54316,44.36159v-.29899h.88833v-1.7278h.37948v1.7278h.28749v.29899h-1.5553ZM63.05207,44.0626h.35648v-1.7278h.37948v2.02678h-.73597v-.29899Z"/><polygon class="cls-1" points="43.7778 4.3418 45.97141 3.07105 45.97141 16.81734 43.7778 16.81734 43.7778 4.3418"/><polygon class="cls-1" points="50.47971 4.3418 48.2861 3.07105 48.2861 16.81734 50.47971 16.81734 50.47971 4.3418"/><rect class="cls-1" x="43.77771" y="19.02652" width="6.70196" height="2.19361"/><polygon class="cls-1" points="50.47967 16.81733 43.77771 16.81733 43.77771 14.62372 45.97144 14.62372 50.47967 14.62372 50.47967 16.81733"/><polygon class="cls-1" points="39.29978 9.06188 39.29978 29.26349 41.49339 29.26349 41.49339 7.79113 39.29978 9.06188"/><rect class="cls-1" x="43.77782" y="19.02652" width="2.19361" height="10.23688"/><rect class="cls-1" x="48.28605" y="19.02652" width="2.19361" height="10.23688"/><rect class="cls-1" x="52.81958" y="27.07747" width="3.45286" height="2.19361"/><rect class="cls-1" x="47.75549" y="27.07747" width="2.71165" height="2.19361"/><rect class="cls-1" x="43.78346" y="27.07747" width="2.73084" height="2.19361"/><rect class="cls-1" x="38.03099" y="27.06787" width="3.45286" height="2.19361"/><polygon class="cls-1" points="54.988 9.06188 52.79439 7.79113 52.79439 29.26349 54.988 29.26349 54.988 9.06188"/><path class="cls-1" d="M27.89375,37.33993c-1.3009,0-1.78791-.60042-1.78791-1.54774,0-.87394.54037-1.67449,1.76789-1.67449.78721,0,1.3943.23349,1.3943.23349v2.29492h.65379v.69381h-2.02807ZM26.79299,33.24376c0-.24684.19347-.45365.4403-.45365.25351,0,.44698.20014.44698.45365,0,.24684-.19347.45365-.44698.45365-.24684,0-.4403-.20014-.4403-.45365ZM28.41411,34.93159s-.25351-.12008-.63377-.12008c-.50035,0-.79388.38026-.79388.90062,0,.60709.30021.93398,1.00069.93398h.42696v-1.71452ZM27.90042,33.24376c0-.24684.19347-.45365.4403-.45365s.4403.20014.4403.45365c0,.24684-.19347.45365-.4403.45365s-.4403-.20014-.4403-.45365ZM29.82169,36.64611h1.2542v-2.44169h.88061v3.1355h-2.13481v-.69381ZM30.38875,38.79427c-.24684,0-.4403-.20014-.4403-.45365,0-.24684.19347-.45365.4403-.45365.25351,0,.44698.20014.44698.45365,0,.24684-.19347.45365-.44698.45365ZM31.49618,38.79427c-.24684,0-.4403-.20014-.4403-.45365,0-.24684.19347-.45365.4403-.45365s.4403.20014.4403.45365c0,.24684-.19347.45365-.4403.45365ZM31.98979,38.96772l.07338-.70049c.15344.0467.32689.08006.54037.08006.44698,0,.71383-.21348.71383-.93398v-3.20889h.88061v3.16219c0,.85392-.28687,1.66782-1.64781,1.66782-.20681,0-.39361-.02669-.56039-.06671ZM35.25865,32.63667h.88061v4.00944h.66713v.69381h-1.54774v-4.70326ZM36.70629,36.64611h.28019c.20681,0,.40695.03336.40695.03336-.20014-.20681-.30688-.52036-.30688-.90063,0-.96067.68714-1.66115,1.69451-1.66115.94732,0,1.55441.49367,1.55441,1.55441,0,.38693-.13343.79388-.38693,1.00737,0,0,.28019-.03336.50702-.03336h.35358v.69381h-4.10284v-.69381ZM37.73367,33.24376c0-.24684.19347-.45365.4403-.45365.25351,0,.44698.20014.44698.45365,0,.24684-.19347.45365-.44698.45365-.24684,0-.4403-.20014-.4403-.45365ZM39.44819,35.7188c0-.58707-.22682-.90729-.72717-.90729-.38026,0-.75386.26685-.75386.89395s.24684.94065.74051.94065c.42029,0,.74051-.30688.74051-.92731ZM38.84111,33.24376c0-.24684.19347-.45365.4403-.45365s.4403.20014.4403.45365c0,.24684-.19347.45365-.4403.45365s-.4403-.20014-.4403-.45365ZM40.70903,36.64611h.23349c.63377,0,1.14746-.07338,1.55441-.20681-.42696-.40028-.82057-.8139-1.40097-.97401l.07338-.6271c.52703-.38027,1.26755-.74051,1.928-.74051.99402,0,1.40764.51369,1.40764,1.09409,0,.44698-.23349.90729-.68047,1.28089.22015.10674.46032.17345.74051.17345h.4403v.69381h-.54037c-.5804,0-1.01404-.17345-1.37429-.41362-.56706.25351-1.30757.41362-2.20152.41362h-.18012v-.69381ZM43.21744,36.06571c.28019-.22015.41362-.48701.41362-.76053,0-.31355-.20681-.56039-.63377-.56039-.36025,0-.77387.24017-1.01404.40028.46032.1868.82724.5804,1.23419.92064ZM44.90518,36.64611h.82724v-4.00944h.88061v4.70326h-1.70785v-.69381ZM47.74713,32.63667h.88061v4.70326h-.88061v-4.70326ZM54.77863,36.86627c0,1.33426-.60709,2.00806-1.8813,2.00806-1.06741,0-1.76122-.56039-1.76122-1.89465,0-.38693.05337-.80722.16011-1.19416l.90729-.16678c-.12009.42696-.1868.87394-.1868,1.28089,0,1.0207.48033,1.28756.94732,1.28756.5804,0,.93398-.30688.93398-1.26754v-2.71521h.88061v2.66184ZM52.43701,34.57801c0-.25351.20681-.46032.46032-.46032s.46032.20681.46032.46032-.20681.46032-.46032.46032-.46032-.20014-.46032-.46032ZM54.67854,38.96772l.07339-.70049c.15344.0467.32689.08006.54037.08006.44698,0,.71383-.21348.71383-.93398v-3.20889h.88061v3.16219c0,.85392-.28687,1.66782-1.64781,1.66782-.20681,0-.3936-.02669-.56039-.06671ZM55.98611,33.18372c0-.25351.20681-.46032.46032-.46032s.46032.20681.46032.46032-.20681.46032-.46032.46032-.46032-.20014-.46032-.46032ZM57.9474,32.63667h.88061v4.70326h-.88061v-4.70326ZM59.70859,38.93436l.05337-.7205s.52036.11341,1.04072.11341c.69381,0,1.15413-.26018,1.15413-.88728v-.10007h-.52036c-1.3009,0-1.7879-.60042-1.7879-1.54774,0-.87394.54038-1.67449,1.76789-1.67449.78721,0,1.3943.23349,1.3943.23349v2.29492h.66046v.69381h-.66046v.01334c0,.92064-.59374,1.66782-2.08811,1.66782-.50035,0-1.01404-.08673-1.01404-.08673ZM61.95682,34.93159s-.25351-.12008-.63377-.12008c-.50034,0-.79388.38026-.79388.90062,0,.60709.30021.93398,1.00069.93398h.42696v-1.71452ZM63.36439,37.33993v-.69381h.56706c.18013,0,.30021.03336.30021.03336,0,0-.17345-.17346-.17345-.44698,0-.63377.46032-1.12745,1.26087-1.12745.87394,0,1.22085.59374,1.22085,1.36761v.17345h.70048v-.08006c0-1.38095-.56039-2.05476-1.88797-2.05476-.45365,0-1.00069.10674-1.42766.24684l-.08006-.62043c.47366-.15344,1.08742-.26018,1.61445-.26018,1.66782,0,2.62182.80055,2.62182,2.74857v.71383h-4.7166ZM65.82609,36.46599c0-.47366-.18012-.80723-.56706-.80723-.30688,0-.48033.21348-.48033.48033,0,.34691.28019.5337.6271.5337h.42029v-.20681Z"/><rect class="cls-1" x="64.89866" y="43.84111" width="3.20202" height=".32071"/><rect class="cls-1" x="24.82136" y="43.84111" width="3.22325" height=".32071"/></svg>