<?xml version="1.0" encoding="UTF-8"?><svg id="Layer_1" xmlns="http://www.w3.org/2000/svg" viewBox="0 0 92.92207 48.28543"><defs><style>.cls-1{fill:#4f1e27;}</style></defs><g id="Layer_5"><path class="cls-1" d="M47.20001,9.76007c4.97312.31846,9.19029,4.27955,9.93888,9.19541.90377,5.93494-3.48214,12.35438-7.26885,16.54254-.60312.66706-2.25524,2.51529-2.93131,2.91294-.62172.36568-1.05256-.0844-1.48154-.46847-4.18772-3.74937-9.48271-10.92383-9.77941-16.68828-.3014-5.85551,4.17343-11.10885,10.06117-11.49414.43019-.02815,1.03056-.02757,1.46106,0ZM46.17695,14.55316c-4.75094.24803-7.36247,5.69713-4.52981,9.55425,2.85233,3.88391,8.95845,2.92958,10.50004-1.61721,1.3519-3.9873-1.76931-8.15636-5.97023-7.93704h0Z"/></g></svg>