<?xml version="1.0" encoding="UTF-8"?><svg id="Layer_1" xmlns="http://www.w3.org/2000/svg" viewBox="0 0 92.92207 48.28543"><defs><style>.cls-1{fill:#403f3f;}</style></defs><g id="U9YFkT.tif"><path class="cls-1" d="M70.79281,41.32313c-.33543.01082-.68168.02164-1.01711.02164-.03246,0-.08656-.08656-.08656-.12984,0-2.21815,0-4.43631.01082-6.65446,0-.01082.01082-.02164.02164-.03246.37871.03246.89808.45445,1.00628.82234.02164.06492.0541.11902.08656.18395-.02164,1.93683-.02164,3.86283-.02164,5.78884Z"/><path class="cls-1" d="M33.58192,3.76598c.30297.32461.20558.55183-.22723.75742-.8007.35707-1.59058.73578-2.348,1.15777-.47609.25969-.91972.48691-1.48238.38953-.45445-.08656-.8548-.28133-1.25515-.53019-.51937-.31379-1.04957-.61675-1.57976-.9089-.19476-.1082-.27051-.24887-.23805-.45445.03246-.20559.23805-.33543.43281-.22723.6384.35707,1.27679.72496,1.90437,1.09285.37871.22723.78988.38953,1.22269.32461.21641-.03246.42199-.1623.61676-.28133.77906-.47609,1.59058-.88726,2.4562-1.20105.07574-.02164.12984-.07574.19476-.11902.10821,0,.20559,0,.30297,0Z"/><path class="cls-1" d="M61.94184,6.04906c-.8007,0-.97382.03246-1.21187.24887,1.16859-.06492,2.08831.34625,2.78081,1.22269-.01082.02164-.02164.04328-.03246.06492-.34625-.1082-.6925-.23805-1.04957-.33543-.44363-.11902-.88726-.18394-1.32007.07574-.01082.01082-.02164.03246-.06492.06492.30297.02164.57347.03246.8548.07574.87644.14066,1.7096.40035,2.26144,1.17941.28132.38953.37871.84398.31379,1.35253-.04328-.0541-.08656-.1082-.12984-.1623-.29215-.48691-.6384-.94136-1.14695-1.22269-.34625-.19477-.71413-.27051-1.14695-.22723.33543.23805.66003.43281.95218.67086.68168.55183,1.09284,1.24433,1.01711,2.15323-.02164.31379-.15149.60594-.23805.9089-.02164.0541-.08656.09738-.15149.17312-.14066-.99546-.35707-1.91519-1.09284-2.60768-.15149-.14066-.36789-.22723-.55183-.33543-.01082.01082-.02164.03246-.03246.04328.19476.29215.40035.58429.57347.88726.29215.54101.43281,1.11449.27051,1.72042-.1082.41117-.35707.75742-.71413.99546-.02164-.01082-.04328-.02164-.06492-.02164.01082-.08656.02164-.17312.03246-.25969.1623-.88726-.0541-1.66632-.70332-2.30472-.03246-.03246-.08656-.0541-.1082-.06492.02164.53019.07574,1.07121.07574,1.6014,0,.64922-.17312,1.25515-.56266,1.78534-.08656.11902-.20559.21641-.31379.32461-.03246.03246-.09739.04328-.14066.0541-.02164-.04328-.04328-.08656-.04328-.14066-.02164-.33543-.02164-.68168-.0541-1.0171-.04328-.51937-.14066-1.0171-.45445-1.47156-.01082.07574-.03246.15148-.02164.23805.01082.21641.03246.43281.03246.64922.03246.98464.0541,1.96929.09739,2.95393.01082.37871.04328.7466.07574,1.12531.01082.1082.0541.21641.1082.31379.18395.32461.1623.68168.19476,1.02793.0541.67086.08656,1.35253.14066,2.02339.02164.27051.28132.31379.44363.45445.30297.24886.61676.47609.90891.73578.14066.11902.21641.29215.12984.48691-.08656.18395-.24886.24886-.44363.24886-1.59058,0-3.19198.01082-4.78256-.01082-.12984,0-.29215-.1082-.38953-.21641-.1082-.11902-.03246-.28133.0541-.42199.24886-.40035.62757-.6384,1.01711-.84398.33543-.18395.44363-.45445.45445-.8007.02164-.54101.0541-1.08203.08656-1.62304.02164-.28133-.01082-.61675.11902-.84398.33543-.53019.20559-1.10367.24886-1.6555.07574-.93054.07574-1.86109.1082-2.79163.01082-.34625.03246-.6925.02164-1.04957-.22722.25969-.32461.57347-.36789.89808-.06492.50855-.09739,1.02793-.14066,1.5473-.01082.07574-.02164.15148-.04328.27051-.43281-.29215-.66003-.67086-.82234-1.09285-.23805-.61675-.24886-1.25515-.21641-1.89355.01082-.28133.07574-.55183.11902-.83316-.6384.21641-1.02793,1.4391-.82234,2.6185-.09739-.04328-.17312-.06492-.22722-.1082-.48691-.44363-.66003-.99546-.56266-1.6555.08656-.61675.37871-1.13613.7466-1.61222.03246-.04328.06492-.07574.08656-.11902.01082-.02164.02164-.0541-.01082-.12984-.18395.11902-.38953.22723-.55183.36789-.5302.45445-.77906,1.07121-.91972,1.73124-.06492.28133-.1082.56265-.17312.87644-.20559-.28133-.28132-.56265-.33543-.84398-.20559-1.12531.30297-1.92601,1.15777-2.5644.23805-.18394.50855-.33543.76824-.50855-.46527-.09738-1.01711.02164-1.43909.41117-.36789.34625-.67086.76824-1.00628,1.14695-.07574-.24887.01082-.51937.08656-.77906.1623-.56265.51937-.97382,1.02793-1.24433.67086-.36789,1.38499-.53019,2.15324-.53019.04328,0,.08656,0,.12984-.01082.01082,0,.02164-.02164.03246-.04328-.28132-.22723-.60593-.25969-.93054-.19477-.41117.08656-.81152.21641-1.22269.33543-.07574.02164-.15149.04328-.22722.06492.02164-.25969.57347-.73578,1.15777-1.0171.48691-.23805,1.00628-.27051,1.5473-.30297-.06492-.03246-.14066-.09738-.20559-.1082-.28132-.04328-.56266-.0541-.84398-.08656-.0541-.01082-.09739-.03246-.15149-.0541.02164-.04328.04328-.1082.08656-.14066.48691-.37871,1.02793-.38953,1.57976-.20558.25969.08656.48691.23805.73578.36789.14066-.46527.28132-.94136.43281-1.41745.03246,0,.0541,0,.08656.01082.25969.43281.32461.94136.45445,1.44992.68168-.46527,1.38499-.71414,2.16405-.30297.11899.03247.30293.06493.25966.27051Z"/><path class="cls-1" d="M56.05561,27.40827c.62757-.53019,1.25515-1.04957,1.90436-1.6014-.27051-.21641-.50855-.42199-.75742-.61676-.94136-.72496-1.8719-1.46074-2.82409-2.16405-.71413-.53019-1.50402-.963-2.33717-1.28761-.50855-.20558-1.02793-.41117-1.55812-.57347-.43281-.12984-.87644-.21641-1.32007-.28133-.54101-.07574-1.09285-.09738-1.63386-.14066-.02164,0-.04328-.01082-.07574-.07574.29215-.08656.57347-.19476.86562-.27051.78988-.20558,1.59058-.25969,2.4021-.21641.8007.04328,1.57976.20558,2.33717.48691.84398.31379,1.6555.6925,2.36964,1.24433.67086.50855,1.30925,1.06038,1.94765,1.59058.50855.42199,1.00628.83316,1.50402,1.26597.11902.09738.20559.09738.31379,0,1.10367-.91972,2.1857-1.8719,3.311-2.75917.98464-.77906,2.13159-1.28761,3.34346-1.6014.90891-.22723,1.83945-.32461,2.76999-.20558.64922.07574,1.27679.28133,1.90436.43281.03246.01082.04328.04328.11902.1082h-.30297c-.68168.01082-1.35253.09738-2.01257.24886-1.98011.44363-3.74381,1.32007-5.34521,2.55358-.90891.6925-1.78534,1.41746-2.68342,2.12077-.0541.04328-.11902.07574-.19476.12984.68168.57347,1.30925,1.10367,1.94765,1.64468.14066-.28133-.01082-.49773-.04328-.73578-.01082-.1082-.0541-.21641-.03246-.32461.01082-.08656.06492-.19476.14066-.23805.33543-.23805.84398.02164.87644.43281.02164.24886-.03246.47609-.18395.6925-.21641.31379-.18395.49773.08656.75742.12984.11902.25969.22723.38953.33543.15149.12984.30297.11902.44363-.01082.1082-.09738.20559-.19476.29215-.31379.18395-.23805.41117-.40035.71413-.38953.29215,0,.60593.02164.88726.09738.29215.07574.40035.32461.42199.61676.0541.67086-.54101,1.43909-1.16859,1.61222-.55183.15148-1.02793,0-1.50402-.20558-.54101-.23805-.99547-.59511-1.42828-.99547-.11902-.1082-.18395-.08656-.29215.03246-.25969.29215-.51937.57347-.81152.82234-.17312.15148-.44363.07574-.57347-.1082-.19476-.27051-.21641-.56266-.02164-.71414.07574-.06492.19476-.07574.29215-.09738.08656-.02164.20559.01082.27051-.03246.08656-.0541.18395-.14066.21641-.23805.02164-.0541-.07574-.1623-.14066-.21641-.57347-.46527-1.15777-.93054-1.73124-1.39581-.1082-.08656-.18395-.1082-.30297-.01082-.5843.47609-1.17941.94136-1.7637,1.41746-.06492.0541-.1623.19476-.14066.23805.04328.08656.1623.15148.25969.18395.1082.04328.23805.0541.35707.07574.23805.04328.35707.21641.31379.45445-.08656.47609-.49773.66004-.87644.35707-.24886-.20558-.46527-.46527-.66003-.72496-.1082-.15148-.1623-.15148-.29215-.04328-.44363.38953-.88726.75742-1.43909.98464-.28132.11902-.5843.22723-.87644.25969-.83316.08656-1.37418-.35707-1.67714-1.08203-.08656-.20558-.08656-.45445-.07574-.67086.02164-.33543.23805-.55183.55183-.60594.32461-.0541.67086-.1082.98464.0541.1623.08656.31379.21641.46527.32461.0541.03246.07574.09738.11902.15148.33543.34625.44363.35707.8007.03246.08656-.07574.1623-.1623.24886-.23805.31379-.27051.19476-.45445.06492-.70332-.09739-.19476-.19476-.41117-.20559-.61676-.02164-.45445.38953-.67086.81152-.56266.21641.0541.27051.31379.19476.58429-.06492.22723-.08656.45445-.12984.6925.10822-.01082.14068.01082.17314.03246Z"/><path class="cls-1" d="M44.16414,34.528c.30297.01082.49773.1623.6925.32461.29215.24886.44363.55183.44363.963-.01082,1.19023.02164,2.38046-.01082,3.57069-.02164.77906-.34625,1.44992-1.09285,1.8178-.20558.09738-.45445.15148-.68168.15148-3.33264.01082-6.65446,0-9.98711.01082-.19476,0-.23805-.06492-.23805-.23805.01082-.21641.01082-.43281,0-.64922-.01082-.1623.0541-.21641.20558-.21641,1.08203.01082,2.16405,0,3.24608.01082.46527,0,.48691-.02164.40035-.49773-.03246-.15148-.01082-.30297-.04328-.45445-.1623-.61676-.57347-.86562-1.14695-.9089-.66004-.0541-1.32007-.02164-1.98011-.03246-.07574,0-.15148-.01082-.25969-.01082.37871-.61676.82234-1.06038,1.57976-1.03875.28133.01082.56266.01082.84398,0,.8007-.04328,1.34171.35707,1.74206,1.0171.28133.46527.35707.963.33543,1.4932-.02164.44363.07574.50855.53019.43281.15148-.02164.12984-.12984.12984-.22723,0-.82234.01082-1.63386,0-2.4562,0-.18395.04328-.24886.23805-.24886.64922.01082,1.30925.03246,1.95847,0,.75742-.04328,1.67714.73578,1.90437,1.34171.17312.45445.1082.9089.14066,1.36335.02164.23805.06492.28133.29215.21641.54101-.15148.77906-.45445.77906-1.02793v-4.41467c-.02165-.1082-.02165-.19476-.02165-.29214ZM42.04336,40.26274c0-.30297-.01082-.56266,0-.82234.04328-.70332-.50855-1.04957-1.08203-1.07121-.27051-.01082-.55183.01082-.82234-.01082-.1623-.01082-.21641.04328-.21641.20558.01082.50855.01082,1.02793,0,1.53648,0,.12984.0541.1623.17312.15148h.86562c.34625.01082.70332.01082,1.08203.01082Z"/><path class="cls-1" d="M59.49645,37.33045v2.91065h3.51659c-.0541-.41117.08656-.82234-.1082-1.21187-.17312-.35707-.51937-.48691-.86562-.53019-.47609-.0541-.96301-.04328-1.44992-.0541-.32461-.01082-.32461,0-.32461-.32461v-.64922c0-.1082.04328-.15148.15149-.15148.6925.01082,1.38499-.02164,2.06667.0541.81152.08656,1.43909.61676,1.5473,1.46074.08656.64922.04328,1.30925.06492,1.96929v.54101h-4.5878v.56266c-.01082,1.03875-.82234,1.93683-1.95847,1.94765-.62757.01082-1.13613-.15148-1.50402-.66004-.04328-.0541-.06492-.12984-.11902-.24886h.30297c.44363-.03246.89808-.02164,1.33089-.1082.71413-.14066,1.01711-.64922.87644-1.36335-.01082-.0541-.12984-.11902-.20559-.11902-.67086-.01082-1.35253,0-2.02339,0q-.44363,0-.43281-.44363c0-.50855.01082-1.0171,0-1.52566-.01082-.68168.30297-1.20105.81152-1.61222.37871-.30297.81152-.47609,1.30925-.45445.51939.02164,1.04959.01082,1.60142.01082ZM56.79139,40.26274c.54101,0,1.03874,0,1.53648-.01082.03246,0,.1082-.1082.1082-.17312.01082-.50855,0-1.02793.01082-1.53648,0-.12984-.03246-.19476-.17312-.18395-.15149.01082-.30297-.01082-.45445.01082-.40035.04328-.87644.27051-.93054.64922-.07574.38953-.07574.81152-.09739,1.24433Z"/><path class="cls-1" d="M28.19342,37.23307c.64922.19476,1.17941.67086,1.12531,1.38499-.02164.28133,0,.56266.0541.84398.12984.61676.68168.91972,1.29843.76824.6384-.1623.8548-.46527.9089-1.16859.03246-.55183.01082-1.11449.01082-1.67714v-.1623c.42199.15148.77906.33543.98464.72496.08656.17312.14066.38953.14066.57347,0,.43281,0,.87644-.08656,1.28761-.14066.64922-.61676,1.06038-1.20105,1.33089-.91972.42199-1.75288.22723-2.49948-.42199-.04328-.04328-.09738-.08656-.1623-.14066-.1082.1082-.21641.21641-.33543.30297-.28133.22723-.59511.42199-.963.44363-.60594.04328-1.21187.12984-1.74206-.28133-.35707-.28133-.54101-.64922-.57347-1.08203s-.01082-.86562-.02164-1.30925c0-.1082-.01082-.21641-.01082-.31379-1.50402-.18395-2.07749.53019-1.95847,1.92601.93054-.1082,1.67714.18395,2.16405,1.07121-.09738.01082-.17312.02164-.23805.02164h-2.69425c-.28133,0-.29215,0-.28133-.29215.02164-.62757-.01082-1.26597.09738-1.88273.18395-1.09285.88726-1.78534,2.04503-1.85027.60594-.03246,1.22269-.01082,1.82862-.01082.03246,0,.0541.01082.1082.02164v.41117c.01082.59511.01082,1.19023.04328,1.78534.03246.51937.28133.72496.75742.71414.21641-.01082.45445-.03246.66004-.09738.44363-.15148.53019-.54101.54101-.94136.01082-.57347,0-1.14695.01082-1.72042-.01081-.07574-.01081-.1623-.01081-.25968Z"/><path class="cls-1" d="M27.97702,21.11087c.04328-1.00628.15148-2.01257.41117-2.99721.30297-1.17941.7466-2.30472,1.37418-3.34346.91972-1.53648,2.13159-2.80245,3.66807-3.73299.75742-.46527,1.57976-.81152,2.4562-1.0171.60594-.15148,1.23351-.24887,1.86109-.25969.22723,0,.33543.08656.34625.31379.02164.25969-.08656.37871-.32461.41117-.47609.0541-.963.08656-1.43909.17312-.97382.18394-1.88273.57347-2.71589,1.09285-1.47156.91972-2.61851,2.16405-3.46249,3.67889-.56266.99546-.963,2.05585-1.22269,3.15952-.22723.98464-.33543,1.98011-.29215,2.98639.03246.78988.56266,1.5473,1.38499,1.7096.54101.1082.99547-.11902,1.36335-.51937.36789-.40035.51937-.89808.53019-1.42828,0-.76824.09738-1.52566.32461-2.26143.43281-1.42827,1.19023-2.64014,2.35882-3.58151.70332-.57347,1.50402-.963,2.41292-1.11449.31379-.0541.62757-.09738.94136-.11902.29215-.02164.40035.08656.41117.32461.01082.27051-.09738.37871-.38953.40035-.34625.03246-.70332.07574-1.04957.12984-.48691.07574-.93054.29215-1.35253.54101-.86562.50855-1.53648,1.21187-2.04503,2.06667-.40035.66004-.70332,1.35253-.81152,2.12077-.09738.6925-.11902,1.39581-.22723,2.07749-.09738.66004-.41117,1.21187-.95218,1.63386-.48691.37871-1.02793.50855-1.62304.41117-.73578-.12984-1.22269-.59511-1.56894-1.23351-.3246-.49773-.40035-1.04957-.36789-1.62304Z"/><path class="cls-1" d="M22.74001,19.42291c0,.8007-.02164,1.61222.01082,2.41292.02164.75742.1623,1.51484.36789,2.25061.28133,1.00628.71414,1.93683,1.32007,2.79163.57347.81152,1.26597,1.50402,2.09913,2.05585.67086.44363,1.38499.77906,2.16405.963.78988.19476,1.6014.21641,2.41292.11902,1.09285-.14066,2.07749-.55183,2.97557-1.17941.88726-.61676,1.63386-1.36335,2.16405-2.30472.33543-.58429.66004-1.17941.9089-1.80699.21641-.55183.32461-1.14695.43281-1.73124.08656-.49773.08656-1.0171.14066-1.52566.01082-.11902.0541-.24886.12984-.32461.0541-.0541.20558-.09738.27051-.06492.08656.04328.19476.1623.19476.24886-.02164.55183-.03246,1.10367-.1082,1.64468-.07574.54101-.19476,1.07121-.34625,1.59058-.59511,1.98011-1.68796,3.62479-3.37592,4.84748-.73578.53019-1.5473.91972-2.43456,1.15777-.89808.23805-1.79616.31379-2.70507.19476-1.15777-.15148-2.22898-.56266-3.2028-1.22269-.98464-.67086-1.78534-1.51484-2.42374-2.52112-.45445-.71414-.84398-1.46074-1.07121-2.28308-.17312-.6384-.34625-1.27679-.45445-1.92601-.08656-.46527-.08656-.95218-.09738-1.42828-.01082-1.44992,0-2.89983,0-4.34975v-.06492c.01082-.24887.14066-.41117.32461-.41117.19476,0,.31379.14066.31379.41117-.01081.8007-.01081,1.62304-.01081,2.4562h0Z"/><path class="cls-1" d="M24.06008,19.27142c0-.84398.02164-1.69878-.01082-2.54276-.03246-.72496-.37871-1.28761-1.03875-1.62304-.14066-.07574-.31379-.08656-.47609-.1082-.24886-.03246-.43281-.19477-.42199-.40035.01082-.22723.1623-.34625.44363-.32461.73578.0541,1.27679.43281,1.67714,1.03875.31379.47609.45445,1.00629.45445,1.57976.01082,1.6014-.01082,3.2028.01082,4.8042.01082,1.0171.27051,1.98011.72496,2.89983.45445.9089,1.08203,1.68796,1.90437,2.27226.66004.47609,1.39581.76824,2.21815.89808.60594.09738,1.17941.06492,1.7637-.07574,1.0171-.23805,1.88273-.75742,2.60768-1.51484.7466-.76824,1.25515-1.66632,1.5473-2.68342.1623-.57347.23805-1.19023.28133-1.78534.04328-.58429.07574-1.16859.36789-1.68796.40035-.71414.97382-1.17941,1.8178-1.23351.18395-.01082.35707.02164.38953.24886.04328.27051-.02164.37871-.28133.44363-.18395.0541-.38953.0541-.56266.12984-.67086.30297-.98464.87644-1.08203,1.56894-.0541.42199-.04328.8548-.08656,1.27679-.07574.77906-.29215,1.52566-.61676,2.22898-.37871.83316-.87644,1.56894-1.5473,2.20733-.75742.71414-1.62304,1.22269-2.64014,1.48238-.963.23805-1.92601.20558-2.86737-.07574-.98464-.30297-1.82862-.8548-2.54276-1.6014-.91972-.963-1.52566-2.12077-1.8178-3.4192-.14066-.62757-.18395-1.28761-.21641-1.92601-.03247-.68168,0-1.385,0-2.07749h0Z"/><path class="cls-1" d="M26.01855,19.18486v-2.23979c.01082-1.17941-.34625-2.23979-1.14695-3.11624-.53019-.58429-1.17941-.97382-1.98011-1.07121-.15148-.02164-.30297-.0541-.45445-.06492-.22723-.02164-.29215-.08656-.29215-.33543,0-.23805.09738-.37871.30297-.35707.34625.03246.71414.0541,1.03875.1623,1.17941.35707,2.00175,1.15777,2.5644,2.22898.33543.62758.54101,1.30925.55183,2.02339.03246,1.63386.04328,3.27854.03246,4.9124,0,.81152.15148,1.57976.55183,2.28308.51937.91972,1.24433,1.61222,2.30472,1.85027,1.42828.32461,2.60768-.25969,3.43003-1.33089.32461-.42199.56266-.88726.70332-1.39581.08656-.31379.11902-.6384.1623-.95218.08656-.6384.08656-1.29843.24886-1.92601.35707-1.30925,1.12531-2.32636,2.348-2.95393.48691-.24887,1.00628-.37871,1.56894-.36789.25969,0,.35707.09738.36789.34625,0,.25969-.08656.33543-.34625.34625-.99547.06492-1.82862.47609-2.47784,1.23351-.60594.71414-.95218,1.52566-1.0171,2.46702-.03246.48691-.04328.98464-.12984,1.46074-.28133,1.48238-.99547,2.68342-2.35882,3.44084-.76824.42199-1.6014.57347-2.46702.38953-1.36335-.29215-2.31554-1.13613-2.94311-2.36964-.42199-.82234-.59511-1.7096-.57347-2.62932.02164-.68168.01082-1.35254.01082-2.03422Z"/><path class="cls-1" d="M49.46607,38.5856v1.16859c0,.60594-.01082,1.20105,0,1.80699.01082.35707.1082.68168.36789.94136.42199.43281,1.51484.42199,1.80699-.37871.07574-.19476.1082-.41117.1082-.61676.01082-2.25061,0-4.49041,0-6.74102,0-.09738.01082-.19476.02164-.30297.48691.08656,1.11449.60594,1.10367,1.22269-.02164,2.10995,0,4.2199-.02164,6.32986-.01082.64922-.40035,1.11449-.94136,1.44992-.50855.32461-1.06038.42199-1.6555.37871-.78988-.06492-1.6555-.81152-1.83945-1.59058-.0541-.21641-.07574-.44363-.07574-.66004-.01082-.60594,0-1.22269,0-1.82862-.01083-.56265.59511-1.11449,1.1253-1.17941Z"/><path class="cls-1" d="M30.00041,10.61521c-1.29843,0-2.348-.33543-3.32182-.94136-.62757-.38953-1.23351-.82234-1.93683-1.04957-.40035-.12984-.82234-.20558-1.22269-.33543-.12984-.04328-.30297-.12984-.33543-.23805-.04328-.1082.03246-.28133.08656-.41117.03246-.0541.1623-.08656.24886-.07574.7466.11902,1.46074.32461,2.12077.68168.61676.33543,1.20105.7466,1.82862,1.06039,1.12531.57347,2.31554.77906,3.55987.45445.57347-.15148,1.07121-.45445,1.57976-.75742.97382-.58429,2.01257-1.00629,3.12706-1.24433.42199-.09738.86562-.12984,1.29843-.19477.20558-.03246.28133.1082.31379.27051.04328.20558-.07574.37871-.25969.41117-.35707.06492-.71414.09738-1.06038.18394-.49773.11902-.99547.25969-1.48238.43281-.81152.28133-1.53648.72496-2.27226,1.15777-.74659.40035-1.51483.61675-2.27225.59511Z"/><path class="cls-1" d="M67.83888,34.528c.56266.06492,1.11449.66004,1.12531,1.17941.01082,1.22269.02164,2.43456-.01082,3.65725-.01082.54101-.12984,1.08203-.55183,1.50402-.34625.34625-.77906.46527-1.23351.48691-.70332.03246-1.40663.01082-2.10995.01082-.02164,0-.0541-.01082-.09739-.03246.20559-.37871.47609-.67086.84398-.86562.29215-.1623.60593-.21641.94136-.19476.6925.03246,1.10367-.44363,1.10367-1.10367v-4.41467c-.01082-.08656-.01082-.14067-.01082-.22723Z"/><path class="cls-1" d="M29.93549,20.95939c.0541-1.00628.22723-1.98011.54101-2.94311.37871-1.13613.94136-2.16405,1.69878-3.0946.87644-1.08203,1.94765-1.89355,3.23526-2.41292.81152-.32461,1.66632-.49773,2.54276-.49773.29215,0,.46527.22723.35707.49773-.03246.07574-.14066.17312-.22723.18394-.42199.06492-.8548.07574-1.26597.14066-.34625.06492-.68168.1623-1.0171.28133-.88726.30297-1.66632.81152-2.35882,1.41746-.57347.50855-1.07121,1.09285-1.44992,1.7637-.31379.55183-.61676,1.12531-.84398,1.7096-.28133.72496-.47609,1.4932-.51937,2.28308-.02164.37871-.0541.75742-.08656,1.14695-.02164.21641-.11902.31379-.30297.31379-.18395-.01082-.28133-.11902-.29215-.33543v-.23805c-.01082-.07574-.01082-.15148-.01082-.21641Z"/><path class="cls-1" d="M29.90303,8.37542c-.81152-.04328-1.5473-.23805-2.21815-.6384-.61676-.35707-1.23351-.73578-1.86109-1.07121-.32461-.17312-.6925-.27051-1.04957-.38953-.15148-.0541-.27051-.12984-.29215-.31379-.04328-.25969.12984-.47609.37871-.38953.51937.17312,1.03875.33543,1.51484.57347.6384.32461,1.23351.73578,1.86109,1.07121.7466.40035,1.55812.53019,2.38046.31379.34625-.09738.67086-.31379.99547-.49773.84398-.48691,1.69878-.93054,2.64014-1.19023.42199-.11902.84398-.24887,1.26597-.35707.23805-.06492.38953.04328.42199.27051.03246.21641-.09738.40035-.31379.44363-.76824.15148-1.50402.36789-2.20733.71414-.66004.32461-1.30925.67086-1.94765,1.02793-.51937.28133-1.04957.38953-1.56894.43281Z"/><path class="cls-1" d="M44.89992,17.25885V6.42777c0-.12984-.07574-.33543.15148-.33543.21641,0,.18395.20558.18395.35707v21.48905c0,.1082.01082.22723-.03246.32461-.02164.06492-.11902.11902-.18395.12984-.03246,0-.09738-.09738-.11902-.1623-.02164-.0541,0-.12984,0-.19476v-10.77699Z"/><path class="cls-1" d="M46.98823,41.35559c-.34625,0-.67086,0-.99547-.01082-.04328,0-.1082-.08656-.11902-.12984-.01082-.12984,0-.25969,0-.38953v-6.3515c.19476.09738.36789.15148.50855.24886.40035.25969.61676.62757.60594,1.12531-.01082,1.74206,0,3.47331,0,5.21537v.29215Z"/><path class="cls-1" d="M53.86991,34.528c.48691.06492,1.11449.59511,1.10367,1.24433-.02164,1.28761,0,2.57522,0,3.87365v1.59058c0,.03246-.01082.06492-.02164.11902h-.93054c-.12984,0-.15149-.07574-.15149-.18395v-6.64364Z"/><path class="cls-1" d="M22.90231,9.78205c.75742.0541,1.47156.27051,2.13159.62758,1.32007.71414,2.22898,1.81781,2.86737,3.15952.14066.30297.24886.62758.35707.94136.07574.20558-.03246.44363-.21641.50855-.1623.0541-.31379-.06492-.38953-.31379-.51937-1.59058-1.44992-2.86737-2.94311-3.68971-.59511-.32461-1.25515-.53019-1.94765-.55183-.25969-.01082-.40035-.14066-.40035-.37871.01082-.23805.11902-.33543.40035-.32461.0541.01082.09739.01082.14067.02164Z"/><path class="cls-1" d="M66.01025,35.93463h1.07121c0,.07574.01082.15148.01082.22723,0,.84398-.02164,1.69878.01082,2.54276.02164.62757-.48691,1.08203-.97382,1.25515-.17312.06492-.15149-.07574-.15149-.17312v-3.47331c0-.1082.02165-.22723.03247-.37871Z"/><path class="cls-1" d="M30.22764,11.81626c-.36789.47609-.71414.91972-1.10367,1.41746-.27051-.55183-.51937-1.04957-.78988-1.59058.64922.06492,1.24433.11902,1.89355.17312Z"/><path class="cls-1" d="M25.42344,36.67041c-.31379,0-.54101-.22723-.54101-.54101,0-.29215.23805-.53019.54101-.53019.28133,0,.56266.27051.54101.56266-.02164.23804-.19477.51937-.54101.50855Z"/><path class="cls-1" d="M27.50093,42.89206c-.29215,0-.53019-.24886-.53019-.54101,0-.27051.25969-.53019.51937-.54101.28133-.01082.56266.25969.56266.54101,0,.30297-.23805.54101-.55183.54101Z"/><path class="cls-1" d="M31.62345,36.14022c0,.31379-.21641.53019-.53019.53019s-.54101-.23805-.53019-.54101c.01082-.34625.23805-.53019.53019-.54101.30297,0,.53019.23805.53019.55183Z"/><path class="cls-1" d="M28.66952,42.89206c-.30297-.01082-.53019-.23805-.51937-.54101.01082-.29215.25969-.54101.55183-.53019.27051,0,.55183.28133.53019.55183-.03246.27051-.22723.54101-.56266.51937Z"/><path class="cls-1" d="M24.7634,36.14022c0,.31379-.20558.53019-.51937.53019-.30297,0-.53019-.21641-.53019-.53019,0-.28133.25969-.56266.53019-.54101.24886.02164.53019.17312.51937.54101Z"/><path class="cls-1" d="M66.92998,34.46308c.02164.18395.09739.35707-.1623.45445-.07574.03246-.1082.18395-.15149.27051.07574.02164.15149.0541.22722.06492.06492.01082.14066,0,.23805,0v.41117h-.98464c-.03246,0-.09739-.06492-.09739-.09738.01082-.1082.04328-.21641.07574-.31379.02164-.06492.08656-.1082.1082-.17312.08657-.40035.37872-.64922.7466-.61676Z"/></g></svg>