<?xml version="1.0" encoding="UTF-8"?><svg id="Layer_1" xmlns="http://www.w3.org/2000/svg" viewBox="0 0 92.92207 48.28543"><defs><style>.cls-1{fill:#403f3f;}</style></defs><path class="cls-1" d="M53.03771,4.28669c-1.50154.0143-2.70722,1.24308-2.69304,2.74462l.02493,2.58962c.00311.34374-.27302.62491-.61676.62802h-.00074s-2.58813.02493-2.58813.02493c-1.50169.01466-2.70728,1.24368-2.69303,2.74537l.02494,2.58962c.00329.34399-.27276.62559-.61675.62914l-2.58927.02493c-1.50104.01436-2.70622,1.24284-2.69186,2.74387,0,.00012,0,.00023,0,.00035l.03093,3.21203c.04541,4.91306,4.06505,8.85907,8.97811,8.81366,4.91306-.04542,8.85907-4.06505,8.81366-8.97811-.00002-.00229-.00004-.00457-.00007-.00686l-.0571-5.93007-3.21161.03092c-1.50145.01413-2.70716,1.24274-2.69304,2.74419v.00004l.03093,3.21203c.01492,1.63776-1.30065,2.97753-2.93841,2.99245-1.63656.01491-2.97581-1.2988-2.99242-2.93534l-.05111-5.30769c-.00339-.34365.27245-.62499.61611-.62838.0001,0,.00019,0,.00029,0l2.59-.02494c1.50154-.01504,2.70675-1.24418,2.69225-2.74573l-.02493-2.58964c-.00281-.34389.27328-.62517.61717-.62875l2.5885-.02493c1.50141-.01427,2.70703-1.24285,2.69299-2.74425l-.03092-3.21126-.00151-.00073-3.21011.03091Z"/><path class="cls-1" d="M20.73884,42.79953l-.40551-.07578c-.11906-.01486-.23366-.05455-.33641-.1165-.05721-.0393-.08999-.10542-.08662-.17475-.00122-.04225.00708-.08423.02427-.12283.01686-.03601.04351-.06655.07691-.08812.04835-.0313.10241-.05274.15907-.0631.18292-.0334.37048-.03225.55298.00337.07914.0161.15691.03832.23261.06645.05753.02139.11281.0484.16504.08065.03392.02028.06515.04474.09296.07281l.02912.03172.03473-.02352c.04241-.03057.07886-.06866.10754-.11237.03898-.05292.06016-.11686.06048-.18259.00054-.05007-.01607-.09882-.04706-.13815-.03033-.03838-.06649-.07176-.10715-.09895-.02017-.01269-.05114-.02988-.09371-.05301-.05496-.02738-.11233-.04964-.17137-.06648-.08297-.02415-.16758-.04225-.25316-.05415-.11519-.01573-.23135-.02321-.3476-.0224-.15954-.00319-.31866.0177-.47196.06199-.11909.03583-.23049.09344-.32857.16989-.08507.06871-.15136.15786-.19266.25911-.04.09777-.06055.2024-.06048.30804-.00261.10932.02188.21759.07131.31513.04634.08587.1102.16105.18744.22067.08013.05995.16889.10741.26324.14077.09772.03521.19845.06146.30093.07842l.39915.07243c.06334.00991.12596.02401.18744.04221.04667.01257.09094.03275.13104.05973.0313.02075.05706.04882.07507.08177.01807.03691.0269.07765.02575.11873.00427.08902-.03947.17351-.11463.22142-.08177.05563-.22327.08327-.4234.08327-.10679.00051-.2134-.00875-.3185-.02765-.08831-.01648-.17529-.03944-.26023-.06871-.06539-.02244-.12915-.04938-.19082-.08063-.03922-.01947-.07703-.04168-.11313-.06648l-.04592-.03286-.23785.4249.03808.02578c.02988.02017.07691.04703.14227.08177.07778.04109.15883.07568.24232.10342.10757.03577.21748.06409.32894.08475.13465.02439.27128.03615.40811.03512.15769.00204.31497-.01654.46784-.05526.12482-.03231.24231-.08821.34612-.16467.09076-.06832.1646-.15659.21581-.258.04984-.10467.075-.21938.07356-.3353,0-.22215-.07281-.39503-.21657-.51414-.13926-.11461-.34612-.19788-.61681-.24792"/><path class="cls-1" d="M24.3196,42.05061c-.12569-.12205-.2736-.21889-.43573-.28527-.34864-.13664-.73601-.13664-1.08465,0-.16246.06619-.31065.16304-.43648.28527-.12454.12309-.22362.2695-.29161.43087-.1409.34408-.1409.72975,0,1.07382.06779.16147.1669.30792.29161.43087.12553.1226.2738.21951.43648.28527.3484.13789.73625.13789,1.08465,0,.16235-.06596.31034-.16285.43573-.28527.12447-.12315.22355-.26954.29161-.43087.13989-.34427.13989-.72955,0-1.07382-.06798-.16138-.16706-.30778-.29161-.43087M24.1643,43.01877c.00144.1186-.01999.23637-.0631.34687-.03962.10098-.09832.1934-.17288.27219-.07356.07659-.16182.13754-.2595.17921-.20998.08589-.4453.08589-.65528,0-.0982-.04191-.18715-.10281-.26173-.17921-.07525-.07811-.13382-.17072-.17213-.27219-.04233-.11067-.06325-.22839-.06162-.34687-.00114-.11941.01975-.238.06162-.34984.07517-.20398.2322-.36725.43311-.45029.21084-.08414.44594-.08414.65678,0,.09746.04066.18552.1009.25875.17698.0749.07895.13363.1718.17288.27331.04301.11156.06443.23028.0631.34984"/><path class="cls-1" d="M27.14234,43.69415l-.04369.02913c-.18397.10725-.39382.162-.60674.15831-.11633.00088-.23196-.01793-.34202-.05563-.10111-.03411-.19387-.0892-.27219-.16167-.07929-.07399-.14136-.16449-.18183-.26511-.04645-.11773-.06928-.24346-.06721-.37-.00169-.12658.01995-.2524.06383-.37114.03889-.1028.09763-.19694.17288-.27705.07231-.07548.16006-.13445.25727-.17288.17581-.06482.36678-.07664.54924-.03398.06428.01556.12701.03694.18742.06386.04976.02266.09716.05017.14152.08213.033.02405.06386.05092.09223.08028l.02575.02801.03398-.01755c.02165-.01208.04193-.02648.06048-.04293.02258-.02031.04321-.04269.06162-.06684.02175-.02666.03995-.05603.05415-.08737.01599-.03478.02426-.07261.02425-.11089-.00349-.04825-.01902-.09485-.04517-.13555-.03805-.0598-.08926-.11012-.14972-.14711-.08559-.05251-.17916-.09072-.27705-.11313-.14419-.0331-.29192-.04828-.43983-.04519-.18019-.00121-.35914.0299-.52834.09186-.16126.05903-.30905.1498-.43461.26695-.1275.12159-.22778.26883-.29421.43201-.07388.18309-.11044.37909-.10754.5765-.00348.19825.03468.39503.11201.57761.06838.16129.17138.30558.30171.42265.12783.11347.27661.20086.43796.25727.16825.05928.34547.08909.52385.08812.1133.00091.22647-.00784.33828-.02614.08772-.01445.17422-.03555.25875-.0631.0643-.02086.12655-.04761.18594-.0799.03984-.02174.07837-.04581.11538-.07208l.0351-.025-.24343-.41446Z"/><path class="cls-1" d="M28.15495,41.74756c-.04581-.01423-.09355-.02127-.14152-.0209-.07059-.00301-.1401.01805-.19715.05973-.0556.04675-.08556.11722-.08065.1897v2.33397h.52982v-2.52367l-.03136-.0123c-.01269-.00485-.03883-.0142-.07914-.02652"/><path class="cls-1" d="M31.20744,43.97657c-.04891-.12507-.10515-.26757-.16873-.4275-.06463-.1613-.13332-.3312-.20911-.51152-.07466-.17999-.14713-.35284-.21919-.51863-.07169-.16504-.13815-.31513-.19972-.44842-.06199-.13254-.1124-.23523-.15198-.30467l-.00971-.01085c-.01106-.00977-.02352-.01782-.03696-.02388-.01716-.00896-.03808-.01866-.06235-.02988-.02841-.01114-.05762-.02012-.08737-.02687-.03384-.00835-.06856-.01261-.10342-.01272-.08409-.00289-.16711.01963-.23822.06461-.07481.05722-.13221.13415-.16577.22215-.08701.19305-.17513.39131-.26249.59404-.08888.20351-.17363.40325-.2569.59965-.08177.19715-.16018.3892-.23523.57613-.07466.18742-.143.36292-.20237.52458l-.02575.06759h.5414l.01082-.03361c.0265-.07429.06123-.16764.10342-.27967.03847-.10342.08215-.21506.12994-.33566h1.14664c.01568.0407.03323.08587.05264.13516.02352.06235.04704.12509.07019.18594l.06308.1714c.02019.05412.03587.09594.04854.12582l.01235.03063h.58172l-.02352-.06759c-.01942-.05264-.0534-.14138-.10196-.26623M30.32108,43.18239h-.77178c.02837-.07206.05825-.1456.08885-.22064.04107-.09934.08252-.1964.12286-.29088.04068-.09558.08102-.18594.11946-.27144.02129-.04703.04145-.09147.06012-.1333.01344.02801.02726.05975.04332.09521.03658.084.07691.17698.1191.27967.04182.10267.0855.20758.12771.31438.03323.08065.06308.15681.09036.227"/><path class="cls-1" d="M32.16996,41.78626l-.0314-.01231c-.01231-.00485-.03956-.0142-.07912-.0265-.04592-.01365-.09361-.02044-.14152-.02017-.07053-.00355-.14013.01728-.19713.05898-.05585.04642-.086.11685-.08104.18931v2.33436h1.80937v-.49361h-1.27916v-2.03006Z"/><path class="cls-1" d="M36.79826,42.04535c-.14083-.11931-.30444-.20873-.4809-.26285-.20453-.06383-.41789-.09483-.63213-.09186-.1613,0-.29384.00301-.39653.00711-.08689.00233-.17322.01473-.25724.03696-.06225.01421-.11743.05007-.1557.10118-.03194.05307-.04766.11433-.04521.17623v2.28955l.04111.00709c.00634.0015.02087.00411.20756.02092.12434.01044.3185.01641.57688.01641.22373.0033.44667-.02729.66125-.09072.17919-.05433.34547-.14451.48874-.26508.13155-.11566.23434-.26037.30022-.42267.07037-.17561.10514-.36345.10228-.55261.0022-.18845-.03373-.3754-.10565-.54961-.06824-.1614-.17245-.30508-.30469-.42005M36.65677,43.015c0,.26848-.08254.47905-.24494.62317-.16317.14713-.40551.22142-.72064.22142-.10939,0-.19754-.00262-.25948-.00896-.0325-.00262-.05492-.0056-.0706-.00747v-1.6574c.01645-.00225.0381-.00412.06572-.00711.06272-.00558.15196-.0082.26435-.0082.1495-.00312.29849.01845.44097.06386.11031.03628.21171.09544.29758.17361.07632.07355.13459.16378.17023.2636.03868.11035.05789.22657.05679.3435"/><path class="cls-1" d="M39.57388,42.22067l.01454-.02425c.01383-.02646.02593-.05378.03624-.08179.01689-.04551.02536-.09371.02498-.14225,0-.15756-.09444-.2453-.26659-.2453h-1.39155c-.202,0-.3129.10492-.3129.29571v2.28694h1.94938v-.49361h-1.41247v-.57798h1.29935l.01531-.01866c.01848-.02705.03271-.05677.04221-.08812.01549-.04554.02306-.0934.02238-.1415,0-.15831-.09298-.24569-.26322-.24569h-1.11603v-.52349h1.35837Z"/><path class="cls-1" d="M42.34923,41.76728c-.05613-.02817-.11835-.04202-.18113-.04031-.07601-.00535-.15126.01797-.21094.06534-.05478.05603-.09625.12367-.12133.1979-.05082.12769-.10866.27181-.17028.43311-.06308.16018-.12718.32236-.19229.48653-.06536.16426-.12958.32258-.19302.47716-.04557.11128-.08924.21171-.13031.30282-.05342-.12285-.1098-.25389-.16805-.39204-.07502-.17625-.14786-.35471-.21841-.5332-.07169-.17846-.13927-.35009-.20273-.51487-.06609-.17026-.118-.31289-.16094-.43874l-.00634-.01942-.01869-.00896c-.00971-.00485-.03473-.01531-.07169-.02985-.05008-.01874-.10334-.0275-.15679-.02578-.06987-.00452-.1387.01868-.19157.06458-.04631.04558-.07102.10872-.06796.17363.0008.05744.01115.11435.03063.16839.01791.05638.04107.11613.06723.17924.01381.03621.03733.0922.06942.16875.03063.07616.06946.16727.1139.27406.04517.10604.09444.2229.14859.3491.05415.12696.11167.25727.17251.39204.05975.13405.12247.26809.18482.4025.06308.1348.12507.26173.18596.38309l.01304.02726h.53992l.01418-.02801c.05529-.11835.1165-.25314.18295-.40323.06609-.14973.13482-.30506.20424-.46747.0706-.16167.1398-.32272.20761-.48315.06723-.16167.13031-.31027.18783-.44993.05861-.13851.10825-.26137.15082-.36777.04221-.10679.07356-.18519.09225-.23598l.01531-.03808-.03473-.02204c-.01272-.00709-.04107-.02313-.084-.04667"/><path class="cls-1" d="M44.68079,42.22067l.01454-.02425c.0138-.02636.02565-.0537.03546-.08179.01752-.04536.02626-.09363.02575-.14225,0-.15756-.09444-.2453-.26659-.2453h-1.39155c-.202,0-.3129.10492-.3129.29571v2.28694h1.94938v-.49361h-1.4132v-.57798h1.30008l.01531-.01866c.01877-.02688.03303-.05665.04221-.08812.01549-.04554.02306-.0934.02238-.1415,0-.15831-.09298-.24569-.26322-.24569h-1.11676v-.52349h1.3591Z"/><path class="cls-1" d="M45.77061,41.78626l-.03177-.01231c-.01194-.00485-.03956-.0142-.07917-.0265-.04579-.01362-.09334-.02042-.14111-.02017-.07066-.00359-.14041.01723-.19754.05898-.0558.04649-.08605.11683-.0814.18931v2.33436h1.80941v-.49361h-1.27843v-2.03006Z"/><path class="cls-1" d="M49.49568,42.05061c-.12582-.12223-.27401-.21909-.43646-.28527-.34838-.13664-.73552-.13664-1.0839,0-.16251.0661-.31073.16296-.4365.28527-.12476.12291-.22388.26936-.29161.43087-.14087.34408-.14087.72974,0,1.07382.0678.16147.16691.30791.29161.43087.12547.12269.27377.2196.4365.28527.34814.13789.73575.13789,1.0839,0,.32889-.13145.59121-.38948.72807-.71615.1399-.34427.1399-.72955,0-1.07382-.06824-.16123-.16729-.30759-.29161-.43087M49.3404,43.01876c.00144.11861-.01999.23638-.06313.34687-.03961.10099-.0983.19341-.17288.27219-.07348.07667-.16175.13764-.25948.17921-.21025.08589-.4458.08589-.65605,0-.09782-.0422-.18647-.10308-.26098-.17921-.07525-.07811-.1338-.17072-.1721-.27219-.04259-.11063-.06375-.22834-.06235-.34687-.00129-.11949.01986-.23815.06235-.34984.07517-.20373.23185-.36691.43236-.45029.2111-.08414.44642-.08414.65751,0,.09751.04056.1856.10081.25875.17698.07468.07899.13316.17184.17215.27331.04362.11141.06531.2302.06386.34984"/><path class="cls-1" d="M52.14852,41.92981c-.19713-.15829-.49699-.23894-.89311-.23894-.18892,0-.33678.00411-.43874.01342-.10829.00823-.17698.01643-.21654.02354-.06058.01239-.117.04001-.16394.08026-.05346.05394-.08073.12853-.07466.20423v2.29776h.51973v-.87706h.00077c.03172.00485.07056.00971.11572.01308.04371.00335.09111.00784.14376.01119.22913.01973.45995-.00048.68217-.05973.1313-.03617.25353-.09952.35879-.18594.09032-.07685.16024-.17485.20351-.28527.04271-.11165.06412-.23032.06313-.34986.00785-.251-.10365-.49088-.30059-.64669M51.90846,42.57649c.00015.0563-.00971.11219-.02913.16504-.0202.0513-.05356.09638-.09672.1307-.05709.04367-.12273.07484-.19266.09147-.10508.02456-.21285.03572-.32073.03323-.09668.0013-.19334-.00369-.28938-.01493l-.0799-.01121c-.00674-.00075-.01308-.00223-.01869-.00298v-.79717c.01942-.00223.04708-.00485.08737-.00784.06946-.00485.16244-.00672.27556-.00672.11566-.00286.23118.0097.34353.03735.07284.01813.14128.05076.20123.09594.04252.033.07477.07742.09298.12807.01765.05117.02661.10492.02652.15905"/><path class="cls-1" d="M55.71812,43.96622c-.00638-.12618-.01386-.26846-.02357-.42415-.00971-.15531-.01942-.31848-.02871-.48837l-.05041-.91403c-.00784-.12844-.01381-.22628-.01869-.29423l-.0015-.01903-.01344-.01308c-.03177-.02582-.06848-.04488-.10788-.05599-.06283-.02135-.12892-.03146-.19526-.02988-.07921-.00294-.15733.01914-.22329.0631-.06203.04625-.11125.10755-.14303.1781-.02913.05975-.07092.14524-.12507.25501l-.17402.35098c-.06121.12434-.12256.24718-.18405.36852-.04148.08252-.07844.1557-.11089.2188-.03623-.07167-.07842-.1548-.12657-.2494-.0691-.13516-.13742-.27183-.2061-.40998l-.32484-.65378-.00971-.01308c-.03395-.03068-.07317-.05496-.11577-.07167-.0648-.02667-.13457-.03915-.2046-.0366-.07455-.0011-.14761.02095-.20911.0631-.07022.05158-.11067.13432-.10825.22142-.00488.0631-.01121.15344-.01869.26994-.0067.118-.01454.24904-.02352.39542-.00857.14599-.01604.29795-.02502.45626-.0082.15795-.01755.30991-.02575.4559-.0082.14562-.01604.27816-.02129.39689-.0056.118-.01044.20948-.01272.27219l-.00187.05116h.52648l.0015-.04706c.0026-.05825.00633-.13553.01044-.23186l.01718-.32221c.0056-.11836.01208-.24071.01942-.36704.00711-.12693.01417-.24904.02014-.36777.0056-.118.01199-.22477.01832-.32224.00109-.01791.0026-.0351.00337-.05189.02684.05415.05674.11164.08737.17288.06308.12769.12766.25688.19152.38719.06386.13067.12434.25278.17921.36704.05529.11388.09708.20348.12548.26807l.01381.02988h.41782l.01381-.02726c.02165-.04368.05-.10342.0855-.17698.03473-.07356.07356-.15271.11536-.23858.04293-.08477.08664-.17475.13332-.26848l.13176-.27069c.04148-.08475.08104-.16393.11727-.23598l.00483-.01044.02092.3435c.00747.12434.01531.2554.02129.39427.00784.13929.01454.27108.02238.39692.00674.12545.01235.23521.01796.33042.00483.09633.0082.16356.01117.202l.00264.04631h.52347l-.00411-.05339c-.00451-.06645-.00971-.16393-.01604-.29013"/><path class="cls-1" d="M58.19056,42.22067l.01454-.02425c.01398-.02638.02609-.05371.03623-.08179.01689-.04551.02535-.09371.02498-.14225,0-.15756-.09517-.2453-.26659-.2453h-1.39082c-.20273,0-.31436.10492-.31436.29571v2.28694h1.95011v-.49361h-1.41247v-.57798h1.30012l.01454-.01866c.01848-.02705.03271-.05677.04221-.08812.01561-.04552.0233-.09338.02274-.1415,0-.15831-.09334-.24569-.26358-.24569h-1.11603v-.52349h1.35837Z"/><path class="cls-1" d="M60.87052,41.74795c-.04652-.0145-.09503-.02155-.14376-.0209-.06986-.00359-.1387.01785-.19416.06048-.05347.04736-.08179.11695-.07657.18819v1.43041c-.02985-.04667-.06158-.09521-.0948-.14674-.0717-.10866-.14713-.22179-.2278-.33792l-.24006-.34984c-.0814-.1165-.15829-.22552-.22926-.32598-.07206-.1008-.13441-.18742-.18856-.26173-.0556-.07429-.09521-.1262-.11946-.15533l-.00898-.00857c-.03133-.02059-.06401-.03905-.09781-.05526-.05924-.02692-.12389-.03982-.18892-.03772-.07466-.00138-.14797.01998-.21021.06123-.06951.05077-.10746.13415-.10009.21992v2.3015h.52684v-1.76347c.03769.05191.07653.10754.118.16654.0758.10679.15419.21841.23336.3353l.46895.69523c.07279.10902.14038.21021.20013.30316l.17064.26324h.51075v-2.51394l-.02352-.01456c-.02687-.01429-.05531-.02545-.08473-.03325"/><path class="cls-1" d="M63.48325,41.72722h-2.09656l-.0149.02354c-.00747.01344-.01905.04107-.03587.08213-.01718.04557-.02566.09395-.02502.14264,0,.15831.09376.2453.2629.2453h.67542v2.08906h.52944v-2.08906h.88714l.01531-.0183c.01856-.02737.03302-.05731.04293-.08885.01503-.04565.02248-.09346.02206-.14152,0-.15829-.09376-.24494-.26285-.24494"/><path class="cls-1" d="M66.95053,42.96756c.01117-.00784.02165-.01604.03286-.02352.04357-.03493.08191-.07592.11386-.12172.03469-.05155.0622-.10757.08177-.16654.02337-.07091.0346-.14526.03323-.21992.00008-.09569-.01685-.19063-.05-.2804-.03808-.09617-.1019-.18-.18446-.24232-.1056-.07708-.2254-.13253-.3525-.16317-.18235-.04295-.3694-.06265-.55669-.05861-.20683,0-.3603.00335-.46859.01082-.08022.00379-.16014.01239-.23933.02575-.0592.01084-.11411.0383-.15829.07917-.05289.05444-.07994.12891-.07434.2046v2.29813h.04932c.01454,0,.04667.00262.09521.00672.05264.0056.11946.00971.2005.01344.07917.00337.17137.00672.27556.01082.10415.00374.21467.00485.33117.00485.20276.00438.40534-.01466.60373-.05674.13585-.02862.26435-.08492.37748-.1654.08758-.0646.15421-.15355.19156-.25576.03397-.09733.05114-.19973.05077-.30282.00476-.14603-.03897-.28952-.12434-.40808-.06048-.07994-.1387-.14475-.22849-.18931M66.67532,43.32489c.02984.02515.05252.05773.06573.09446.01422.0399.0213.08199.02092.12434.00167.05046-.00857.1006-.0299.14635-.02158.04171-.05511.07603-.09631.09856-.06062.03362-.12676.05614-.1953.06648-.10366.01691-.20861.02466-.31362.02315-.15419,0-.27703-.00449-.36367-.01121-.05565-.00485-.0922-.00859-.115-.01119v-.62542h.6814c.07265-.00156.14512.00763.21508.02726.04759.0135.09202.03636.13067.06723M66.65855,42.58297c-.01312.03429-.03517.06445-.06386.08737-.03668.02951-.07899.05124-.12434.06386-.06478.01798-.13183.02641-.19904.02502h-.62314v-.58174c.02425-.0026.06235-.0067.1206-.01082.08737-.00784.202-.01119.34015-.01119.09451-.00184.18893.0068.28154.02575.06223.01266.12191.03562.17657.06796.03683.02204.06642.05436.08514.09298.01781.03845.02662.08046.02575.12283.00033.04014-.00623.08005-.01937.11798"/><path class="cls-1" d="M70.14278,43.97657c-.04854-.12507-.10478-.26757-.16873-.4275-.06386-.1613-.13332-.3312-.20911-.51152-.07393-.17998-.14673-.35287-.21841-.51863-.07206-.16504-.13815-.31513-.19977-.44842-.06199-.13254-.11276-.23523-.15273-.30467l-.00971-.01233c-.01159-.00861-.02397-.01611-.03696-.0224-.01714-.00896-.03733-.01866-.06158-.02988-.02834-.01098-.05741-.01996-.08701-.02687-.03424-.00828-.06933-.01254-.10456-.01272-.08387-.00299-.16667.01954-.23746.06461-.07484.05735-.13245.13421-.1665.22215-.08664.19304-.17414.39106-.26249.59404-.08888.20351-.17329.40325-.25615.59965-.08177.19715-.16094.38944-.23523.57613-.07543.18742-.14303.36292-.20314.52458l-.02575.06759h.54142l.01158-.03361c.02648-.07429.06121-.16764.10264-.27967.03883-.10342.08291-.21506.13072-.33566h1.14662c.01568.0407.03323.08587.05191.13516.02425.06235.04704.12434.07092.18594.02279.06123.04371.11875.06313.17213.02014.05339.03546.09521.04854.12509l.01158.03063h.58245l-.02425-.06759c-.01942-.05264-.0534-.14138-.10196-.26623M69.25643,43.18239h-.77104c.0284-.07206.05752-.1456.08961-.22064.03997-.09934.08104-.1964.12137-.29088.04143-.09558.08177-.18594.12019-.27144.02056-.04703.0407-.09072.06012-.1333.01344.02876.02726.05975.04293.09521.03696.084.07657.17698.1195.27967.0418.10267.08473.20758.12766.31438.03286.08065.06235.15681.08965.227"/><path class="cls-1" d="M72.69608,41.74795c-.04654-.01441-.09504-.02146-.14376-.0209-.07008-.00346-.13912.01797-.19494.06048-.05294.04768-.08091.11713-.0758.18819v1.42966c-.02985-.04592-.06146-.09458-.0948-.14599-.0717-.10866-.14749-.22179-.2278-.33792l-.24079-.34984c-.08068-.1165-.15756-.22552-.22853-.32598-.07133-.1008-.13441-.18742-.18929-.26173-.05488-.07429-.09445-.12607-.11873-.15533l-.00898-.00857c-.03117-.02084-.06387-.03932-.09781-.05526-.05922-.027-.12388-.03991-.18892-.03772-.07489-.00127-.14841.02007-.21098.06123-.06901.05111-.1066.13434-.09932.21992v2.3015h.52611v-1.76347c.03842.05191.07726.10754.11873.16654.0758.10679.15419.21841.23336.3353l.46896.69523c.07279.10902.14038.21021.19977.30316l.17101.26324h.51075v-2.51394l-.02352-.01456c-.02682-.01443-.05526-.02559-.08473-.03325"/><path class="cls-1" d="M75.59417,44.2306c-.17884-.23787-.37238-.46432-.57948-.67804-.19717-.20387-.41221-.40959-.63851-.61009.0381-.03473.08254-.07618.13405-.12285.07133-.06534.14749-.13402.2304-.2061l.24977-.22067c.084-.07505.16167-.143.23186-.2061.0691-.06235.13031-.11648.18108-.16091.05118-.04592.08327-.07505.09562-.08774l.03058-.03024-.02575-.03398c-.03043-.03523-.0662-.06547-.10602-.08961-.06486-.04026-.1403-.06017-.21659-.05713-.07229-.00179-.14357.01725-.20533.05488-.05909.03796-.11617.07897-.17101.12285-.0448.03956-.11167.09669-.19567.17137-.08437.07429-.17548.15645-.27069.24307-.09485.08737-.18845.17388-.28081.2595-.05374.05002-.10155.09521-.14521.13553v-.92823l-.03136-.0123c-.01235-.00485-.03883-.01381-.0788-.0265-.04607-.01357-.09386-.02036-.14189-.02017-.07056-.00373-.14018.0174-.19676.05973-.05575.04637-.086.11658-.0814.18894v2.33397h.53021v-1.08616c.07766.06386.15907.1333.24006.2061.10902.09932.21581.20125.3185.30467.09859.10007.19526.2005.28673.30057.08888.09633.16467.18259.2263.25688l.01531.01794h.6545l-.05971-.07917Z"/><path class="cls-1" d="M72.84722,36.39904c.20847-.00002.37746-.16905.37744-.37752-.00003-.20847-.16905-.37746-.37752-.37744-.20846.00003-.37744.16902-.37744.37748-.00004.20844.1689.37744.37734.37748h.00012"/><path class="cls-1" d="M45.14168,35.85889v3.71809h.68996v-4.05264c-.09941-.02714-.20165-.04255-.30465-.04592-.27443,0-.38532.11053-.38532.38047"/><path class="cls-1" d="M43.6824,35.85889v2.5386c0,.37973-.16914.55596-.53171.55596h-.36294v-2.50872c-.09963-.02735-.20215-.04276-.30542-.04592-.27329,0-.38454.11051-.38454.38047v2.17418h-.69863c-.25278,0-.35209.09672-.35209.3435.00322.09471.01763.18871.04294.28003h2.08644c.3566-.00073.64821-.10827.86777-.32071.21885-.21412.33789-.5102.32816-.81621v-2.91571c-.09941-.02714-.20165-.04255-.30465-.04592-.27443,0-.38532.11053-.38532.38047"/><path class="cls-1" d="M27.21845,37.39105c.1641.00928.32441.05304.47046.12844.1374.06199.23598.04369.30394-.05563.06762-.12069.1241-.24729.16875-.37823-.20273-.12807-.64145-.30579-.94315-.30579-.79901,0-1.29524.46561-1.29524,1.21571v.95847h-1.06749c-.29643-.00094-.53639-.24123-.53691-.53767v-1.49577c-.01866-.00485-.0534-.01381-.09521-.0224-.06865-.01454-.13854-.02241-.2087-.02352-.27445,0-.38609.10977-.38609.38049v1.1429c0,.37899-.17286.55596-.54325.55596h-.65938c-.35695,0-.53021-.18184-.53094-.55373v-1.43749c-.12919-.03024-.25763-.05825-.38534-.08252-.13441-.02578-.28115-.04929-.4335-.07019-.15266-.01986-.30642-.02996-.46036-.03024-.20866-.00594-.41639.03012-.61084.10604-.15385.06407-.29138.1618-.4025.286-.10558.12359-.18236.2691-.22477.42602-.04685.17279-.06997.35116-.06871.53019-.00882.25661.0307.51259.1165.75459.06343.16746.16627.31718.29981.43648.11848.09961.25842.17041.40886.20686.28866.07417.59139.07417.88005,0,.1504-.03652.29032-.10732.40884-.20686.02131-.01885.04162-.03879.06087-.05973l.01903-.01942.02017.01866c.16579.21096.46.3185.87371.3185h.72435c.34724,0,.63249-.09485.84532-.28302l.01607-.01308.01604.01308c.21246.18817.49063.28302.82704.28302h3.29953c.02463-.08963.03842-.1819.04107-.27481,0-.24756-.10007-.34836-.34425-.34836h-1.19705v-1.01933c0-.31027.25465-.54364.59329-.54364M21.19701,38.75836l-.00823.00711c-.07019.06085-.21657.18856-.56456.18856-.17405.00883-.34238-.06342-.45587-.19567-.10754-.12693-.16169-.33527-.16169-.61905-.0029-.12582.01399-.25131.05005-.37189.02704-.08929.07654-.17014.14375-.23484.06237-.0551.13699-.09452.21766-.11499.08447-.02127.17128-.03181.25838-.03138.059,0,.13181.00299.22404.00823.09361.006.18669.01861.27853.03772l.01793.00485v1.32136Z"/><path class="cls-1" d="M38.87371,36.77935c-.42415,0-.84046.12358-1.27059.37636l.1232.37189c.01803.04726.0548.08497.10159.10417.06663.02715.14155.02539.20684-.00485.32821-.14562.58696-.21171.83896-.21171.37675,0,.62953.15756.75236.46971.08888.2147.12361.46225.12361.88303v.18596h-3.06131c-.2967-.00082-.53691-.24135-.53732-.53805v-1.49538c-.09937-.02733-.20164-.04275-.30465-.04592-.27407,0-.38532.11014-.38532.38047v1.14292c0,.37899-.17251.55596-.54329.55596h-.50182c-.39913,0-.62164-.17773-.6844-.54215-.05825-.38457-.17548-.65378-.35879-.82442-.20797-.19489-.50929-.28935-.92223-.28935-.74675,0-1.17989.37486-1.28745,1.11528-.04517.36029-.25537.52868-.66011.52868h-.74601c-.1639,0-.23373-.06869-.23373-.22887l-.00075-3.18902c-.09993-.02712-.20268-.04253-.30617-.04592-.27705,0-.39017.11053-.39017.38122v2.87239c0,.52123.32894.84532.85876.84532h.85503c.28787,0,.52611-.07839.70642-.23336l.02352-.01939.01272.02726c.20164.41294.62802.64967,1.16794.64967.56339,0,.99725-.25914,1.18731-.71091l.01344-.03175.02539.02427c.17555.16918.40531.27076.64858.28676l.02051.00187v.00335l.60747.00223c.34763,0,.63217-.09519.84612-.28302l.01568-.01342.01527.01342c.21322.18783.49065.28302.82743.28302h3.49107c.17372-.00049.31432-.14141.3144-.31513v-.49398c0-.56715-.0732-.95247-.24384-1.28665-.24754-.46597-.70008-.70195-1.34565-.70195M32.45054,39.39037c-.24909,0-.58026-.07691-.58026-.74413,0-.6661.33117-.74377.58026-.74377.24567,0,.57388.07766.57388.74377,0,.66722-.32821.74413-.57388.74413"/><path class="cls-1" d="M74.96387,37.25505v1.14292c0,.37413-.17552.55557-.53732.55557h-.73217c-.36221,0-.53769-.17586-.53769-.53728v-1.49577c-.09941-.02714-.20166-.04255-.30465-.04592-.27447,0-.38609.10977-.38609.38047v1.14292c0,.37899-.1721.55557-.54325.55557h-.58587c-.46034,0-.6829-.23746-.6829-.72547v-2.69839c-.09942-.02708-.20166-.0425-.30465-.04592-.27407,0-.38536.11051-.38536.38047v2.54568c0,.35806-.17771.53169-.54325.53169h-1.85531c-.36216,0-.53764-.17363-.53764-.53169v-1.48941c-.10016-.02728-.20317-.0427-.30693-.04592-.27629,0-.38947.10977-.38947.38047v1.2161c0,.66125.46449,1.10632,1.15564,1.10632h1.96356c.40998,0,.72661-.12247.93832-.3618l.01869-.02017.01714.02165c.1994.2386.49439.36032.87597.36032h.65305c.34722,0,.63172-.09597.84529-.28338l.01531-.01383.01604.01383c.21249.18742.49138.28338.82743.28338h.79306c.36102,0,.65528-.10827.87442-.32149.21899-.21374.3382-.50958.32857-.81544v-1.52004c-.09928-.02717-.2014-.04259-.30428-.04592-.27407,0-.38568.10977-.38568.38047"/><path class="cls-1" d="M64.51956,35.85889v3.71809h.68996v-4.05264c-.0994-.0272-.20165-.04261-.30465-.04592-.2737,0-.38532.11053-.38532.38047"/><path class="cls-1" d="M63.06042,35.85935v2.5386c0,.37899-.16873.55596-.53167.55596h-.65305c-.36143,0-.53805-.1755-.53805-.53805v-1.49538c-.09921-.0275-.20137-.04292-.30428-.04592-.2737,0-.38532.11014-.38532.38047v1.14292c0,.37899-.17288.55596-.54329.55596h-.69635c-.36216,0-.53691-.1755-.53691-.53805v-1.49538c-.09952-.02729-.20192-.04271-.30506-.04592-.27329,0-.38568.11014-.38568.38047v1.14292c0,.37899-.17288.55596-.54361.55596h-.60227c-.3984,0-.62169-.17773-.68368-.54215-.05825-.38457-.1762-.65378-.35957-.82442-.2072-.19489-.50852-.28935-.92146-.28935-.74675,0-1.17988.37486-1.28745,1.11528-.0459.36367-.26171.54065-.66011.54065h-.51152c-.36143,0-.53691-.1755-.53691-.53805v-1.49538c-.09939-.02733-.20167-.04275-.30469-.04592-.27443,0-.38605.11014-.38605.38047v1.14292c0,.37899-.17288.55596-.54402.55596h-.73144c-.35546,0-.52985-.18035-.53094-.55036v-1.44087c-.12921-.03063-.25838-.05825-.38459-.08252-.13591-.02502-.2819-.04929-.43459-.06946-.15246-.02077-.30615-.03124-.46002-.03136-.20867-.00563-.41636.03056-.61084.10643-.15393.0641-.29148.16196-.4025.28637-.10553.12337-.18208.26882-.22402.42566-.04713.17301-.0705.35163-.06946.53094-.00884.25625.03068.51186.1165.75348.06291.16784.16582.31779.29981.43684.1185.09963.25842.17055.40884.20722.28879.0732.59128.0732.88007,0,.15019-.03669.28987-.1076.40811-.20722.02139-.0181.04148-.03768.06012-.05861l.019-.01866.02056.01679c.16613.21096.46039.31848.87405.31848h.79233c.34722,0,.63176-.09519.84534-.28302l.01527-.01342.01682.01342c.21244.18783.4906.28302.82665.28302h.58436c.2886,0,.52684-.07839.70715-.23336l.02279-.01939.01344.02726c.20164.41294.62802.64967,1.16794.64967.56339,0,.99725-.25914,1.18731-.71091l.01344-.03175.02502.02427c.16914.16577.38418.29421.64817.29421h.7236c.34799,0,.63176-.09519.84607-.28302l.01531-.01342.01531.01342c.21244.18783.49138.28302.82779.28302h.7628c.34726,0,.63176-.09519.84534-.28302l.01531-.01342.01604.01342c.21244.18783.49133.28302.82738.28302h.71389c.3577,0,.64967-.10827.86849-.32071.21913-.21399.33846-.51008.32894-.81622v-2.91608c-.09945-.02702-.2017-.04243-.30469-.04592-.27365,0-.38532.11053-.38532.38122M48.87955,38.75824l-.00934.00747c-.06942.06123-.21654.18819-.56417.18819-.17385.0086-.34198-.06329-.45588-.19491-.10679-.12807-.16094-.33603-.16094-.61907-.00335-.12591.01328-.25154.04927-.37224.02683-.08938.07653-.17021.14416-.2345.06178-.05582.13643-.09545.21727-.11536.08441-.02161.17125-.03228.25838-.03175.05898,0,.1329.00262.22329.00823.09378.00574.18701.01846.27889.03808l.01905.00447v1.32139ZM55.07018,39.39037c-.13926.00835-.27656-.03603-.38459-.12431-.12958-.11873-.19567-.3267-.19567-.61982,0-.6661.33117-.74377.58026-.74377.13783-.00825.27362.03635.37971.12472.12844.11873.19416.32707.19416.61905,0,.66722-.32821.74413-.57388.74413"/><path class="cls-1" d="M68.99959,37.77083c0-.11536-.04781-.16315-.16171-.16315h-.51636v-.23448c.00338-.13002.11153-.23268.24155-.2293.003.00008.006.00021.009.00041.07085.00455.14005.02335.20346.05526.04827.03176.11302.01954.1464-.02762.03078-.05647.05676-.11543.07766-.17625-.12921-.08053-.27578-.12904-.42752-.1415-.38869,0-.57948.23596-.57948.5455v.50218h.98609c.01247-.04263.01949-.08667.02092-.13106"/><path class="cls-1" d="M74.11393,39.98886c-.20838.00009-.37723.1691-.37714.37748s.1691.37723.37748.37714.37723-.1691.37714-.37748v-.00039c-.00056-.20813-.16935-.3766-.37748-.37675"/><path class="cls-1" d="M21.09879,36.39904c.20848.00172.37887-.16589.38059-.37436s-.16589-.37887-.37436-.38059c-.00208-.00002-.00415-.00002-.00623,0-.20665.00028-.37406.16784-.37413.37449.00065.20739.16677.37633.37413.38047"/><path class="cls-1" d="M20.10578,36.39904c.21093-.00073.38276-.16958.38719-.38047.00186-.21199-.16848-.38535-.38047-.38721-.21199-.00186-.38535.16848-.38721.38047-.00186.21199.16848.38535.38047.38721h.00002"/><path class="cls-1" d="M24.46381,39.98886c-.20658.0001-.37403.16755-.37413.37413-.00596.20416.15471.37451.35888.38047.00023,0,.00046.00001.00069.00002.21193-.0017.38556-.16878.39539-.38049-.00472-.20724-.17353-.37309-.38083-.37413"/><path class="cls-1" d="M23.47764,39.98886c-.20438-.00224-.37188.16162-.37413.366-.00003.00271-.00003.00542,0,.00813-.00799.20202.14931.37227.35133.38026.00274.00011.00549.00019.00823.00023.21186-.00173.38536-.16885.39503-.38049-.00455-.20717-.17324-.37306-.38046-.37413"/><path class="cls-1" d="M35.31012,36.39904c.20847.00168.37884-.16596.38052-.37444.00168-.20847-.16596-.37884-.37444-.38052-.00203-.00001-.00405-.00001-.00608,0-.20429-.00234-.37181.16137-.37416.36566-.00003.00295-.00003.00589,0,.00883-.00172.20837.16578.37869.37415.38047"/><path class="cls-1" d="M36.29626,36.39904c.20847.00168.37884-.16596.38052-.37444.00168-.20847-.16596-.37884-.37444-.38052-.00203-.00001-.00405-.00001-.00608,0-.20847.00188-.37596.1724-.37408.38087.00185.20583.16825.37223.37408.37408"/><path class="cls-1" d="M39.02758,39.98886c-.20659.00009-.37405.16754-.37415.37413-.00175.20837.16575.37872.37413.38047s.37872-.16575.38047-.37413c.00175-.20837-.16575-.37872-.37413-.38047-.0021-.00002-.00421-.00002-.00631,0"/><path class="cls-1" d="M52.21953,39.98886c-.20648.00037-.37377.16765-.37415.37413-.00185.20847.16565.37898.37413.38083s.37898-.16565.38083-.37413c.00185-.20848-.16565-.37898-.37413-.38083-.00223-.00002-.00445-.00002-.00668,0"/><path class="cls-1" d="M51.2334,39.98886c-.20438-.00225-.3719.1616-.37415.36599-.00003.00271-.00003.00543,0,.00814-.00159.20833.16583.37858.37415.38049.20838.00194.37888-.16541.38082-.3738.00194-.20838-.16541-.37888-.3738-.38082-.00234-.00002-.00468-.00002-.00702,0"/><path class="cls-1" d="M58.52679,36.39904c.20847-.00166.37613-.17201.37447-.38049-.00166-.20847-.17201-.37613-.38049-.37447-.20614.00164-.37284.16835-.37447.37449.0026.20905.17144.37788.38049.38047"/><path class="cls-1" d="M60.49705,36.39904c.20847.00168.37884-.16596.38052-.37444s-.16596-.37884-.37444-.38052c-.00203-.00001-.00405-.00001-.00608,0-.20429-.00234-.37181.16137-.37415.36566-.00003.00294-.00003.00589,0,.00883-.00172.20837.16578.37869.37415.38047"/><path class="cls-1" d="M61.48318,36.39904c.20847.00168.37884-.16596.38052-.37444s-.16596-.37884-.37444-.38052c-.00203-.00001-.00405-.00001-.00608,0-.20847.00188-.37596.1724-.37408.38087.00185.20583.16826.37223.37408.37408"/><path class="cls-1" d="M48.78051,36.39904c.20847.00168.37884-.16596.38052-.37444s-.16596-.37884-.37444-.38052c-.00203-.00001-.00405-.00001-.00608,0-.20666.00027-.37408.16783-.37415.37449.00066.2074.16679.37633.37415.38047"/><path class="cls-1" d="M47.78764,36.39904c.21081-.001.38249-.1697.38719-.38046-.00518-.21199-.18124-.37964-.39323-.37445-.20469.00501-.36945.16976-.37445.37445.00271.209.17149.37777.38049.38047"/></svg>