<?xml version="1.0" encoding="UTF-8"?><svg id="Layer_1" xmlns="http://www.w3.org/2000/svg" viewBox="0 0 92.92207 48.28543"><defs><style>.cls-1{fill:#403f3f;}</style></defs><g id="lyH40j"><path class="cls-1" d="M75.38748,26.3063v-.2996c0-2.85158-.00004-5.70316.00002-8.55474,0-.29526-.00015-.29917.30354-.33121.85582-.09028,1.71201-.17704,2.57133-.26552.06273.09283.03529.19584.03538.2924.00177,2.0237.00133,4.0474.00133,6.07111,0,2.492.00093,4.98399-.00123,7.47599-.00026.29458.07765.31547-.31436.26926-.83826-.0988-1.67722-.19233-2.51698-.27731-.49413-.05-.49493-.04085-.75769-.46401-1.74612-2.81212-3.49222-5.62424-5.23882-8.43606-.04705-.07575-.08413-.1602-.16996-.22949-.05577.09757-.03261.19026-.03266.27646-.00159,2.62579-.0013,5.25159-.0013,7.87739,0,.05017.00022.10035-.00004.15052q-.00131.25046-.26278.23238c-.80064-.05521-1.60126-.11071-2.40194-.16536-.24564-.01677-.24754-.01568-.24761-.25997-.00053-1.94008-.00031-3.88016-.00031-5.82023,0-1.88154.00002-3.76308.00002-5.64462,0-.05854-.00173-.11714.0005-.1756.00656-.17217.00713-.17297.18868-.18548.45871-.03162.91747-.06261,1.37623-.09353.59221-.03992,1.18524-.07076,1.77618-.12458.17897-.0163.26841.04159.35824.18659,1.5188,2.45147,3.04267,4.89979,4.56538,7.34883.20302.32654.4049.6538.6097.97922.03386.0538.05273.12227.15913.16717Z"/><path class="cls-1" d="M40.66374,29.38422c-.36479.01293-.69001.02608-1.01534.03564-.63504.01866-1.27013.03593-1.90523.05246-.21029.00548-.21221.00427-.2808-.19555-.14099-.41072-.27896-.82248-.4198-1.23325-.06731-.19631-.069-.19815-.28223-.19825-1.61348-.00071-3.22696-.00081-4.84044.00006-.22683.00012-.21911-.03123-.3104.23129-.17281.49693-.35218.99159-.5248,1.48859-.03509.10103-.06694.17172-.19956.17804-.96012.04572-1.9198.10083-2.87966.15211-.03178.0017-.06405-.00577-.09341-.0087-.03457-.09939.02273-.17096.05083-.24541,1.40671-3.72718,2.81483-7.45382,4.22466-11.17982.08635-.22821.04016-.22219.3219-.20832,1.26913.06248,2.53896.10537,3.80905.14199.26407.00761.23422-.03571.33557.23541.965,2.58162,1.93044,5.16307,2.89565,7.74461.3422.91526.6843,1.83057,1.0258,2.7461.02863.07677.05229.15539.08823.26299ZM34.37391,20.31557c-.2468.53005-1.81243,5.01139-1.82131,5.19442h3.60504c-.59412-1.73014-1.18082-3.43868-1.78373-5.19442Z"/><path class="cls-1" d="M64.63775,29.77235c-.09127.03619-.17541.01693-.25753.01269-.92666-.04786-1.85306-.10084-2.77993-.144-.13295-.00619-.1859-.05741-.22499-.17752-.15507-.47645-.3261-.94773-.47906-1.42482-.04538-.14154-.1073-.19783-.26286-.19729-1.63035.0057-3.26073.00532-4.89108.0005-.14997-.00044-.22307.04546-.27009.19092-.13101.4052-.28046.80439-.41806,1.20751-.03652.10701-.08603.16265-.21283.15953-.92773-.02287-1.85565-.03829-2.78349-.05707-.03173-.00064-.06325-.01195-.09548-.01841-.00921-.10387.04274-.18343.07454-.26769,1.31255-3.47747,2.62586-6.95465,3.93909-10.43187.01771-.04689.03947-.09263.05273-.14073.02854-.10356.08962-.14166.20016-.14327.33427-.00488.66839-.02175,1.00253-.0349.95228-.03746,1.90449-.07687,2.85685-.1123.31391-.01168.24908-.01664.33795.22084,1.38477,3.70015,2.76772,7.40098,4.14939,11.10228.02847.07626.07783.14943.06215.25561ZM56.36188,25.50356c.48025.04903,3.4458.02956,3.62041-.02018-.10016-.45209-1.67518-4.96855-1.79409-5.12492-.60867,1.71473-1.21349,3.41864-1.82632,5.1451Z"/><path class="cls-1" d="M20.47472,26.72465c-.26894.1984-.49804.41565-.71222.64848-.23208.25228-.45548.51256-.68861.76383-.18631.20081-.27271.43237-.26998.70589.00536.53509.00124,1.07027.00427,1.6054.00066.1157-.02194.18173-.16218.19068-.97602.06225-1.9515.13298-2.92717.20086-.03336.00232-.0668.00432-.10022.00463-.1588.00151-.1646.00132-.16575-.1678-.00337-.49331-.00186-.98666-.00192-1.48-.00013-1.05357-.00004-2.10714-.00003-3.16071,0-.06689-.00052-.13379.00026-.20068.0029-.24994.00302-.25151.2428-.25719.24241-.00574.4851-.00315.72731-.01298.24209-.00984.4836-.03341.72565-.04502.09249-.00444.13681-.03839.13652-.13417-.00157-.51841-.00205-1.03683-.00025-1.55523.00037-.1057-.05955-.12068-.14506-.11999-.28428.0023-.56858.00145-.85288.00177-.30102.00034-.60205.0025-.90305.00022-.17363-.00132-.17758-.00455-.17832-.18311-.00217-.51841.00005-1.03685-.00131-1.55527-.00057-.21799-.00267-.21887-.21896-.22354-.44305-.00956-.88617-.01631-1.32917-.02778-.21282-.00551-.22851-.01687-.23211-.22948-.00637-.37616-.00551-.75254-.00099-1.12875.00245-.20436.01768-.22052.21421-.2158.46806.01126.93587.0324,1.40392.04445.12615.00325.17574.05126.17358.18061-.00601.35945-.00238.71907-.00171,1.07862.00049.26123.00105.26346.25289.26883.56844.01214,1.13694.02152,1.70541.03271.21506.00423.21726.00508.2184.22407.00192.3679-.00143.73584.00177,1.10373.00152.17444.00602.1779.18575.17917.33445.00237.66893-.00087,1.00339.00034.21345.00077.21438.00246.21702.2242.00199.16721.00313.33448.00082.50167-.0013.09423.03742.1365.13374.13491.21735-.0036.43498-.00837.6521-.00094.12543.00429.17291-.08447.23451-.16046.62655-.77286,1.25263-1.54609,1.8785-2.3195.37867-.46794.75786-.93546,1.13412-1.40532.07605-.09497.14855-.16154.28821-.15697.98608.03222,1.97247.05505,2.95875.08161.03155.00085.06731-.00449.10168.04169-.01657.08518-.09383.14158-.14939.20814-1.07158,1.28372-2.1452,2.56573-3.2174,3.84893-.16457.19695-.18508.15372-.02079.39912,1.14862,1.71566,2.29689,3.43155,3.44479,5.14769.05441.08134.10421.16576.16758.267-.44597.06615-.87059.07391-1.29255.10789-.6332.05099-1.26783.08479-1.90056.1406-.1785.01575-.28454-.02373-.38956-.17981-.72324-1.07496-1.45847-2.14184-2.19054-3.21085-.04627-.06757-.0984-.13113-.15524-.2064Z"/><path class="cls-1" d="M40.54142,18.51642c.09064-.04262.1746-.02261.25563-.02186.99501.00932,1.98999.02522,2.98501.02745.16633.00037.25301.05893.33412.19745.66298,1.13238,1.33331,2.26046,2.00163,3.38972.0551.0931.11175.18529.17324.2871.09443-.05073.12231-.14139.16612-.21563.67543-1.14446,1.35214-2.28819,2.01944-3.43739.09859-.1698.20392-.2444.40941-.24502.98659-.00296,1.97313-.02511,2.95968-.04046.03344-.00052.067-.00319.10031-.00138.11787.00641.12597.02228.06576.13648-.02725.05168-.05916.10092-.08932.15105-1.32306,2.19857-2.64522,4.39767-3.97131,6.59441-.08955.14835-.13486.29402-.13377.46961.00654,1.05357.00324,2.10721.00323,3.16082,0,.05853-.00435.11743.00069.17553.01091.12574-.03556.18259-.16932.1786-.22556-.00674-.45148-.0011-.67726-.00032-.67731.00232-1.35463.00536-2.03194.00691-.23215.00053-.23443-.00109-.23461-.22988-.00086-1.12051-.00274-2.24103.00213-3.36152.00072-.16522-.03695-.30508-.12274-.44743-1.30733-2.16897-2.61037-4.34052-3.91316-6.51221-.04985-.0831-.11854-.15955-.13296-.26204Z"/><path class="cls-1" d="M25.19609,15.03499c-.20021,0-.40043-.00064-.60064.0001-1.54734.00571-3.09442-.01675-4.64057-.07384-1.47045-.05429-2.93993-.13088-4.40865-.22433-1.20976-.07697-2.41703-.18395-3.62581-.27223-.26665-.01947-.5329-.04654-.79848-.07746-.12176-.01417-.17056.02944-.16555.14959.0087.20887.01633.41786.01933.62688.06193,4.30683.0815,8.61388.04955,12.92102-.01228,1.65579-.04911,3.3114-.07405,4.9671-.00502.33313-.02795.3182.31305.29386,1.03378-.07377,2.06658-.1619,3.10069-.23028.80076-.05296,1.6028-.0876,2.40451-.12503,1.01061-.04718,2.02112-.10093,3.0323-.1302,1.52974-.04427,3.05992-.07692,4.5906-.06462.30043.00242.60089.00035.90315.03249-.55331.07035-1.10641.14236-1.65997.21066-.74626.09208-1.49279.18191-2.23934.27157-.78802.09464-1.57625.18758-2.36431.28193-.77146.09236-1.54281.18564-2.31423.27835-.75485.09072-1.50986.18012-2.26455.27214-.86248.10516-1.72493.21066-2.58694.31964-.66299.08383-1.32565.17064-1.98752.26277-.11458.01595-.15335-.02103-.15508-.12692-.00192-.11704-.00972-.23398-.01137-.35102-.05828-4.13104-.1225-8.26208-.09651-12.39371.01783-2.83504.04342-5.67006.09609-8.50473.00662-.35634.00864-.36236.36111-.3146.91043.12336,1.81962.25597,2.73017.37846.82785.11137,1.65689.21375,2.48529.32108.84494.10946,1.68951.22185,2.53465.32972.72095.09202,1.44258.17871,2.16374.26909.87856.11011,1.75696.22144,2.63539.33257.71272.09016,1.42541.18051,2.13802.27148.14779.01887.29518.04089.44275.06145-.00227.01234-.00453.02468-.0068.03702Z"/><path class="cls-1" d="M67.60114,32.73359c1.12275-.03266,2.24286-.04279,3.36282-.01062.90273.02593,1.80571.04584,2.70803.08215.85196.03428,1.7033.08462,2.55473.1314.65102.03577,1.30216.07133,1.9525.11731.75026.05304,1.4998.11622,2.24947.17734.44144.03599.88237.07835,1.32382.1143.21597.01758.21901.01388.21702-.21487-.00523-.6021-.01051-1.20423-.02029-1.80627-.07292-4.49062-.05296-8.9814-.02325-13.47217.0068-1.02854.0308-2.05696.04683-3.08544.00091-.05853.00214-.11708.00168-.17561-.00175-.22348-.00475-.22549-.22517-.20566-1.10733.09963-2.21696.16722-3.32605.24305-1.50166.10268-3.00519.16909-4.50893.2245-1.99741.07359-3.99598.10172-5.9949.0868-.05633-.00042-.11649.01339-.1882-.03948.43857-.05652.85867-.11209,1.27916-.16455.76256-.09512,1.52516-.18995,2.2881-.28199.763-.09204,1.52649-.18003,2.28966-.27068.77973-.09261,1.55935-.18613,2.33899-.27956.75477-.09044,1.50955-.1808,2.26423-.27206.74635-.09026,1.49297-.17855,2.23876-.2733.82858-.10526,1.65637-.21685,2.48451-.32555.01655-.00217.03334-.00259.05002-.00383q.23837-.01783.24446.21283c.01021.42636.02169.85271.0292,1.27912.09223,5.23473.08559,10.46982.04825,15.70492-.01013,1.42149-.04951,2.84278-.07639,4.26414-.0014.07427.0095.15048-.0346.25718-2.58406-.3625-5.17932-.70412-7.77624-1.0327-2.59915-.32887-5.19878-.65396-7.7982-.9807Z"/><path class="cls-1" d="M17.36201,19.50075c.70833.02959,1.41666.05914,2.12498.0888.2383.00998.24132.01009.24206.23383.00183.55055.00206,1.10112-.00009,1.65167-.00087.22365-.00693.23217-.22148.22879-.6422-.01011-1.28437-.02354-1.92645-.03978-.20037-.00507-.20236-.01103-.20371-.21702-.00426-.65051-.00676-1.30103-.00995-1.95155l-.00537.00525Z"/><path class="cls-1" d="M51.8864,34.27369c.028.05082.06043.05898.09137.07172.4126.16991.62026.47725.61521.9088-.0054.46231-.22803.80482-.62648.96573-.23654.09552-.48435.13003-.7366.12506-.50999-.01005-1.01988-.0258-1.52971-.04203-.17143-.00546-.17454-.00941-.17267-.19359.00304-.30104.00821-.6021.017-.90302.02489-.8526.05187-1.70513.07847-2.55768.0085-.27241-.00753-.25328.27084-.24551.47647.01329.95293.02745,1.42932.04356.18447.00624.3661.03553.54153.09432.37938.12712.60716.39921.62994.76066.02545.40363-.12523.71699-.48862.9145-.03639.01978-.0747.03602-.11959.05748ZM50.73895,35.99939c0,.00788,0,.01576,0,.02365.13359,0,.26725.00263.40076-.00072.14179-.00356.28511-.00129.42481-.02173.39763-.05819.62597-.3117.65008-.70583.02438-.39863-.14622-.63895-.54282-.75878-.07139-.02157-.14584-.03569-.2199-.04535-.45707-.05959-.91764-.02943-1.3762-.05157-.09302-.00449-.1362.03095-.13864.12889-.01064.42582-.02317.85164-.04093,1.27721-.00532.12736.05685.15669.16641.15517.22544-.00312.45096-.00094.67644-.00094ZM50.76791,34.1167c0,.01122,0,.02243-.00001.03365.1833,0,.3666-.00093.54988.00029.1438.00096.2816-.02667.41314-.08352.28121-.12154.41779-.35342.3896-.6581-.03213-.34737-.22024-.55445-.58239-.61526-.47079-.07905-.94807-.03673-1.42197-.06054-.09812-.00493-.12848.04428-.13081.13562-.00936.36649-.02076.73297-.03655,1.09923-.00471.10926.0406.15025.14467.14928.2248-.0021.44962-.00064.67443-.00064Z"/><path class="cls-1" d="M37.30974,34.47526c.0209.06294.05664.06484.08749.07471.25444.08145.40117.26109.46069.51512.02466.10523.04165.21279.0542.32022.03759.32166.0432.64865.18691.95266-.41539.05386-.41722.05413-.47477-.33731-.03034-.20638-.04986-.41435-.08051-.62067-.0134-.09023-.03422-.18118-.06587-.26653-.11275-.3041-.32822-.45296-.65182-.44454-.41746.01086-.83481.02784-1.25201.04642-.19303.00859-.19824.0133-.1926.20219.0127.42578.03149.85138.04729,1.27707.00217.05839.00396.11702.00079.17526-.00124.02283-.0103.05662-.02656.06533-.0848.04544-.17887.0287-.26845.02246-.0811-.00565-.06817-.08135-.07467-.13608-.00689-.05797-.00932-.11658-.01143-.17499-.03962-1.09349-.07891-2.18699-.11824-3.28049-.0009-.02504-.00173-.0501-.00196-.07515-.00191-.20875-.00217-.21551.195-.22441.54236-.02449,1.08498-.04285,1.62751-.06349.14332-.00545.28418.01906.42176.05186.41112.09802.67875.39341.72998.79361.06388.49905-.10685.86854-.49938,1.08008-.02903.01565-.059.02955-.09335.04667ZM36.19479,32.82783c-.00006.00357-.00012.00714-.00018.01072-.25001.01092-.50002.02206-.75005.03263-.08324.00352-.14588.02247-.14143.12821.01787.42507.03323.85026.04739,1.27547.00315.09444.04473.1332.13968.12891.45832-.02069.91852-.02002,1.37467-.06293.43552-.04097.70299-.38379.68009-.81051-.02344-.43675-.28644-.68568-.74977-.70136-.19992-.00677-.40025-.00113-.6004-.00113Z"/><path class="cls-1" d="M61.34097,36.89762c.00287-.08801.05138-.14873.08527-.21453.56623-1.09928,1.13321-2.19819,1.70055-3.2969.10828-.2097.10895-.20238.34599-.18982.12942.00686.18753.05749.22329.18358.35315,1.24536.71288,2.48886,1.07025,3.73302.00675.02351.00742.04876.01175.07897-.02194.01003-.04283.02784-.06373.02788q-.30188.00056-.38651-.29253c-.07678-.26468-.16014-.52766-.22839-.79452-.0308-.12039-.07659-.18442-.2124-.19515-.4831-.03819-.96552-.08595-1.44748-.13687-.1191-.01258-.18348.02663-.23408.13362-.12855.27184-.2691.53798-.40186.80787-.12859.26141-.11628.19979-.34223.17725-.04053-.00405-.08042-.01444-.12043-.02187ZM63.95125,35.62353c-.19825-.68858-.35218-1.33858-.60148-1.97454-.3016.59927-.60319,1.19853-.92208,1.83219.52005.04859.99725.09317,1.52356.14235Z"/><path class="cls-1" d="M31.0015,36.68964c-.02318.00785-.03096.01236-.03902.01294-.40561.02941-.30879.05221-.46488-.2609-.12283-.24638-.24444-.49362-.35684-.74484-.04864-.10871-.11176-.14508-.23105-.13443-.46554.04156-.93169.07774-1.39819.10646-.15673.00965-.23299.07201-.27154.22757-.06812.27491-.15939.54412-.24215.81535q-.07271.23827-.32976.24431c-.03236.00074-.06488-.00551-.09419-.00822-.03144-.07799.0119-.13683.03096-.19739.37563-1.19338.75292-2.38624,1.1306-3.57898.06522-.20597.22379-.28831.43575-.23254.04478.01178.07156.03848.09016.07798.01778.03774.03655.07502.05464.11262.53529,1.11278,1.07071,2.22551,1.60541,3.33857.03189.06639.07651.12881.08011.22149ZM29.91939,35.24793c-.29721-.63889-.58257-1.25229-.86792-1.86569-.01682.00248-.03363.00497-.05045.00745-.19748.64754-.39497,1.29507-.60281,1.97659.52656-.04096,1.00711-.07835,1.52118-.11834Z"/><path class="cls-1" d="M42.0053,36.27355c-.0166-.10603.03027-.1702.057-.238.45023-1.1423.90232-2.28386,1.35434-3.42545.08714-.22006.21175-.27963.44353-.22622.10653.02455.11214.11713.14117.18917.27472.68175.54522,1.3652.81731,2.048.17933.45002.35969.89963.53854,1.34984.03351.08434.06203.17065.09629.26556-.10752.04333-.20684.02259-.30347.02507-.08717.00224-.10555-.06741-.13024-.12934-.11755-.29483-.24035-.58772-.35005-.88543-.04922-.13357-.11253-.19742-.26881-.19282-.46784.01378-.93626.01278-1.40438.0087-.12843-.00112-.19564.04137-.2385.1641-.0991.28377-.21078.56317-.31881.84378-.08509.22103-.08606.22103-.32568.21554-.03247-.00074-.06481-.00731-.10823-.0125ZM42.94226,34.73484c.53444.04796,1.33917.02577,1.50188-.04191-.24082-.62631-.48172-1.25283-.74343-1.93348-.26548.69146-.50708,1.3207-.75845,1.97539Z"/><path class="cls-1" d="M17.36737,19.4955c-.59208.021-1.1815-.04932-1.77283-.05114-.10856-.00033-.14466-.04784-.14414-.15103.00246-.4916.00295-.98323-.00027-1.47482-.00072-.11086.0449-.14399.15034-.13756.59006.03595,1.18175.04573,1.76986.11257l-.00591-.00599c.01849.57106.03601,1.14212-.00232,1.71317-.00009.00006.00527-.00519.00527-.00519Z"/><path class="cls-1" d="M17.37034,17.79351c.00248-.43324.00408-.86649.0078-1.29972.00181-.21114.00387-.21529.20431-.20192.43224.02883.86391.06676,1.29636.09121.12306.00696.15472.05867.15388.16983-.00288.3833.00214.76666-.00038,1.14997-.00108.16428-.00621.16548-.17008.15767-.49927-.02379-.99849-.04862-1.49777-.07304-.00003,0,.00588.00599.00588.00599Z"/><path class="cls-1" d="M57.38861,34.58658c-.04182.6716-.07786,1.26321-.1167,1.85463-.00402.06128.02408.14834-.06178.17088-.08801.0231-.18599.02115-.26888-.01802-.06239-.02949-.03533-.10489-.0326-.16008.0215-.43357.04384-.86712.0696-1.30046.04309-.72497.08942-1.44976.13324-2.17469.01424-.23557.02185-.23522.24369-.2243.14028.0069.13509.08034.12889.18188-.03557.58327-.06709,1.16678-.09548,1.67014Z"/><path class="cls-1" d="M14.36716,17.59625c-.16692-.0098-.33374-.02208-.50078-.02853-.11108-.00429-.16451-.04488-.16036-.16714.00793-.23386.00486-.46822.00136-.7023-.00165-.11038.02688-.17427.15505-.16405.29996.02391.60041.04165.90075.06068.08161.00517.12022.04626.12017.12728-.00015.2592-.00063.5184.00095.77759.00061.09938-.04803.1318-.14185.12194-.12468-.0131-.24991-.02092-.3749-.03101-.00013.00185-.00026.0037-.00038.00555Z"/></g></svg>